<svg id="svg" version="1.1" xmlns="http://www.w3.org/2000/svg" xmlns:xlink="http://www.w3.org/1999/xlink" width="400" height="400" viewBox="0, 0, 400,400"><g id="svgg"><path id="path0" d="M196.500 39.910 C 196.362 39.944,195.050 40.055,193.583 40.158 C 186.762 40.636,178.666 42.312,173.000 44.419 C 172.679 44.539,171.967 44.800,171.417 45.001 C 170.867 45.202,170.267 45.430,170.083 45.509 C 169.900 45.587,169.262 45.846,168.667 46.084 C 166.658 46.887,160.640 49.823,159.705 50.458 C 159.401 50.664,159.106 50.833,159.049 50.833 C 158.917 50.833,157.415 51.760,155.095 53.272 C 152.724 54.818,151.945 55.371,151.783 55.625 C 151.710 55.739,151.548 55.833,151.422 55.833 C 151.297 55.833,151.169 55.894,151.139 55.968 C 151.108 56.042,150.746 56.335,150.333 56.619 C 149.921 56.903,149.433 57.275,149.250 57.445 C 149.067 57.616,148.692 57.929,148.418 58.141 C 147.862 58.572,146.585 59.664,145.181 60.908 C 144.188 61.787,140.087 65.883,138.824 67.257 C 137.419 68.785,134.102 72.959,133.068 74.500 C 132.791 74.912,132.287 75.643,131.949 76.123 C 131.610 76.604,131.333 77.072,131.333 77.165 C 131.333 77.258,131.267 77.333,131.187 77.333 C 131.106 77.333,130.947 77.558,130.833 77.833 C 130.719 78.108,130.579 78.333,130.521 78.333 C 130.463 78.333,130.231 78.690,130.004 79.125 C 129.777 79.560,129.546 79.954,129.490 80.000 C 129.030 80.380,124.167 90.165,124.167 90.712 C 124.167 90.834,124.104 91.005,124.028 91.092 C 123.848 91.299,122.989 93.543,122.407 95.333 C 122.153 96.112,121.814 97.125,121.653 97.583 C 121.492 98.042,121.233 98.904,121.077 99.500 C 120.921 100.096,120.700 100.921,120.586 101.333 C 120.472 101.746,120.260 102.646,120.114 103.333 C 119.969 104.021,119.699 105.296,119.515 106.167 C 119.168 107.808,118.856 109.870,118.394 113.583 C 118.168 115.399,118.111 118.386,118.043 132.042 L 117.962 148.333 121.214 148.333 C 125.796 148.333,127.339 148.817,129.428 150.905 C 132.383 153.860,132.687 158.107,130.173 161.321 C 128.049 164.038,126.819 164.500,121.716 164.500 L 117.962 164.500 118.043 180.958 C 118.129 198.326,118.096 197.493,118.939 203.500 C 119.087 204.554,119.349 206.092,119.521 206.917 C 120.119 209.779,120.374 210.921,120.583 211.667 C 120.699 212.079,120.926 212.904,121.087 213.500 C 121.403 214.665,122.585 218.369,122.815 218.917 C 122.892 219.100,123.122 219.700,123.325 220.250 C 124.314 222.929,126.792 228.327,127.973 230.375 C 128.171 230.719,128.492 231.281,128.686 231.625 C 129.655 233.345,130.016 233.932,131.477 236.167 C 132.890 238.329,136.178 242.763,137.346 244.083 C 140.240 247.351,143.156 250.330,145.512 252.424 C 146.023 252.879,146.698 253.479,147.012 253.759 C 147.831 254.489,152.401 257.981,153.583 258.781 C 155.238 259.899,157.370 261.243,158.167 261.670 C 158.579 261.892,159.029 262.159,159.167 262.264 C 159.524 262.537,161.829 263.773,163.583 264.633 C 164.408 265.037,165.271 265.464,165.500 265.582 C 165.729 265.699,166.929 266.219,168.167 266.737 C 169.404 267.255,170.663 267.788,170.964 267.923 C 171.265 268.057,171.622 268.167,171.758 268.167 C 171.894 268.167,172.135 268.241,172.294 268.332 C 173.062 268.772,178.269 270.310,181.833 271.149 C 192.990 273.774,207.061 273.774,218.167 271.147 C 221.806 270.286,226.940 268.771,227.706 268.332 C 227.865 268.241,228.106 268.167,228.242 268.167 C 228.378 268.167,228.735 268.059,229.036 267.928 C 229.337 267.797,230.596 267.262,231.833 266.740 C 233.071 266.218,234.271 265.693,234.500 265.574 C 234.729 265.456,235.554 265.054,236.333 264.681 C 238.102 263.836,239.976 262.815,241.917 261.640 C 242.742 261.141,243.600 260.624,243.825 260.491 C 244.049 260.358,244.312 260.192,244.408 260.120 C 244.505 260.049,245.221 259.569,246.000 259.054 C 247.375 258.144,252.145 254.548,252.684 254.014 C 252.831 253.869,253.431 253.341,254.017 252.841 C 256.250 250.937,259.333 247.812,262.657 244.083 C 264.057 242.512,268.490 236.479,269.269 235.083 C 269.372 234.900,269.889 234.037,270.419 233.167 C 272.356 229.981,274.006 226.728,275.490 223.167 C 275.968 222.021,276.503 220.763,276.679 220.371 C 276.856 219.979,277.000 219.546,277.000 219.410 C 277.000 219.274,277.075 219.032,277.166 218.873 C 277.361 218.533,278.490 215.060,278.913 213.500 C 279.074 212.904,279.300 212.079,279.415 211.667 C 280.009 209.531,280.707 206.074,281.082 203.417 C 281.940 197.342,281.898 198.420,281.958 180.958 L 282.015 164.500 278.216 164.496 C 274.791 164.493,274.345 164.460,273.690 164.163 C 273.291 163.982,272.901 163.833,272.823 163.833 C 272.617 163.833,271.136 162.824,270.750 162.420 C 267.314 158.825,267.244 154.264,270.574 150.909 C 272.646 148.821,274.199 148.333,278.774 148.333 L 282.014 148.333 281.959 132.042 C 281.901 114.754,281.940 115.730,281.080 109.583 C 280.708 106.925,280.146 104.144,279.429 101.417 C 279.309 100.958,279.082 100.096,278.925 99.500 C 278.768 98.904,278.508 98.042,278.347 97.583 C 278.186 97.125,277.847 96.112,277.594 95.333 C 277.166 94.016,276.581 92.436,276.083 91.250 C 275.967 90.975,275.606 90.112,275.281 89.333 C 274.742 88.046,273.414 85.222,272.973 84.430 C 272.875 84.254,272.496 83.542,272.130 82.847 C 271.343 81.353,270.637 80.116,270.504 80.000 C 270.451 79.954,270.223 79.560,269.996 79.125 C 269.769 78.690,269.537 78.333,269.479 78.333 C 269.421 78.333,269.281 78.108,269.167 77.833 C 269.053 77.558,268.894 77.333,268.813 77.333 C 268.733 77.333,268.667 77.258,268.667 77.166 C 268.667 76.606,263.646 69.962,261.174 67.253 C 259.836 65.785,255.279 61.266,254.361 60.496 C 253.873 60.086,253.305 59.597,253.099 59.411 C 252.894 59.224,252.357 58.774,251.907 58.411 C 251.456 58.047,250.936 57.612,250.752 57.443 C 250.567 57.273,250.079 56.903,249.667 56.619 C 249.254 56.335,248.892 56.042,248.861 55.968 C 248.831 55.894,248.699 55.833,248.569 55.833 C 248.440 55.833,248.333 55.771,248.333 55.695 C 248.333 55.619,247.950 55.300,247.482 54.986 C 247.014 54.673,246.465 54.304,246.262 54.167 C 244.349 52.869,241.105 50.833,240.951 50.833 C 240.894 50.833,240.599 50.664,240.295 50.458 C 239.360 49.823,233.342 46.887,231.333 46.084 C 230.737 45.846,230.100 45.587,229.917 45.509 C 229.733 45.430,229.133 45.202,228.583 45.001 C 228.033 44.800,227.321 44.539,227.000 44.421 C 221.474 42.380,214.280 40.852,206.917 40.155 C 204.991 39.973,197.013 39.786,196.500 39.910 M206.623 45.918 C 240.959 48.811,269.418 74.977,275.145 108.917 C 276.099 114.571,276.167 115.969,276.167 129.925 L 276.167 142.624 275.003 142.738 C 265.512 143.674,259.737 153.609,263.658 162.257 C 265.655 166.661,270.118 169.831,274.936 170.268 L 276.167 170.379 276.167 183.194 C 276.167 196.747,276.109 198.109,275.322 203.071 C 270.203 235.353,244.994 260.899,212.917 266.311 C 169.252 273.679,128.783 242.952,124.153 198.917 C 123.873 196.250,123.838 194.496,123.836 183.148 L 123.833 170.379 125.064 170.268 C 130.196 169.803,134.805 166.326,136.640 161.535 C 139.939 152.922,134.192 143.644,124.997 142.738 L 123.833 142.624 123.833 129.897 C 123.833 119.605,123.883 116.683,124.092 114.627 C 128.351 72.697,164.757 42.389,206.623 45.918 M192.429 52.686 C 163.391 54.536,138.223 75.771,131.008 104.511 C 129.022 112.419,128.560 118.990,128.943 133.879 L 129.053 138.146 130.068 138.514 C 146.672 144.544,147.806 166.784,131.921 174.850 L 130.083 175.783 130.135 177.266 C 130.300 181.974,130.671 189.394,130.746 189.468 C 130.794 189.516,130.835 189.149,130.837 188.653 C 130.840 188.009,131.295 176.823,131.330 176.555 C 131.332 176.539,131.615 176.435,131.958 176.323 C 141.755 173.146,147.951 161.136,145.195 150.667 C 143.556 144.440,139.492 139.321,133.935 136.482 L 132.502 135.750 132.505 129.167 C 132.512 116.814,133.039 111.248,134.832 104.597 C 142.451 76.327,165.776 56.482,195.583 52.910 C 196.867 52.757,197.948 52.601,197.986 52.565 C 198.095 52.463,194.807 52.534,192.429 52.686 M196.250 87.439 C 180.915 89.043,168.150 101.239,165.832 116.500 C 164.800 123.293,165.712 126.354,169.266 128.029 C 174.162 130.336,178.788 127.270,179.176 121.462 C 179.926 110.231,187.462 102.156,198.125 101.157 C 210.106 100.035,219.987 108.832,220.830 121.373 C 221.059 124.770,222.231 126.861,224.533 127.976 C 229.855 130.552,234.982 126.700,234.595 120.417 C 233.345 100.123,216.173 85.354,196.250 87.439 M198.380 115.151 C 196.461 115.645,194.638 117.154,193.785 118.954 L 193.250 120.083 193.250 156.509 L 193.250 192.934 193.872 194.193 C 196.386 199.279,203.614 199.279,206.128 194.193 L 206.750 192.934 206.750 156.509 L 206.750 120.083 206.215 118.954 C 204.861 116.095,201.344 114.388,198.380 115.151 M269.107 124.955 C 269.048 126.034,268.918 128.417,268.819 130.250 C 268.720 132.083,268.589 134.205,268.528 134.966 L 268.417 136.348 267.052 136.906 C 249.901 143.918,249.409 168.127,266.240 176.854 L 267.298 177.402 267.422 181.493 C 267.698 190.548,267.326 199.035,266.436 204.000 C 264.229 216.321,259.240 227.356,251.367 237.331 C 250.679 238.203,250.038 239.029,249.944 239.167 C 249.541 239.751,253.971 235.287,255.153 233.917 C 262.894 224.948,267.995 214.103,270.076 202.186 C 270.971 197.059,271.067 195.381,271.076 184.693 L 271.083 174.803 269.456 174.158 C 253.353 167.769,252.982 144.992,268.868 138.010 L 270.137 137.453 270.056 135.518 C 269.912 132.104,269.358 123.135,269.286 123.063 C 269.247 123.025,269.167 123.876,269.107 124.955 M170.504 142.934 C 168.033 143.598,166.263 145.463,165.582 148.119 C 165.173 149.718,165.303 193.577,165.724 196.167 C 169.718 220.682,196.347 233.408,217.583 220.951 C 226.541 215.696,232.605 206.676,234.281 196.110 C 234.628 193.922,234.809 177.571,234.502 176.094 C 233.119 169.433,224.483 168.376,221.451 174.496 L 220.917 175.575 220.816 184.829 C 220.698 195.694,220.581 196.539,218.655 200.394 C 210.398 216.921,186.010 215.241,180.267 197.750 C 179.203 194.508,179.276 196.303,179.175 171.000 L 179.083 147.917 178.553 146.796 C 177.066 143.657,173.744 142.063,170.504 142.934 M171.833 233.218 C 166.654 234.718,164.963 240.989,168.725 244.746 C 172.699 248.714,179.370 246.521,180.344 240.926 C 181.168 236.197,176.414 231.892,171.833 233.218 M224.791 233.170 C 221.445 234.016,219.092 237.503,219.639 240.804 C 220.761 247.575,229.602 248.982,232.622 242.871 C 235.147 237.761,230.314 231.775,224.791 233.170 M198.667 239.850 C 193.446 240.869,191.351 247.494,195.034 251.338 C 198.692 255.156,205.135 253.590,206.608 248.524 C 208.025 243.650,203.654 238.876,198.667 239.850 " stroke="none" fill="#fbfbfb" fill-rule="evenodd"></path><path id="path1" d="M39.833 262.167 L 39.833 263.333 95.292 263.328 C 157.779 263.322,151.097 263.487,148.937 262.000 C 148.338 261.587,147.844 261.194,147.840 261.125 C 147.837 261.056,123.533 261.000,93.833 261.000 L 39.833 261.000 39.833 262.167 M252.160 261.125 C 252.156 261.194,251.662 261.587,251.063 262.000 C 248.903 263.487,242.221 263.322,304.708 263.328 L 360.167 263.333 360.167 262.167 L 360.167 261.000 306.167 261.000 C 276.467 261.000,252.163 261.056,252.160 261.125 M180.999 335.211 C 180.999 335.416,181.103 335.921,181.232 336.333 C 181.733 337.944,182.487 340.557,182.914 342.167 C 183.073 342.762,183.338 343.662,183.505 344.167 C 183.671 344.671,183.849 345.327,183.900 345.625 L 183.992 346.167 111.912 346.167 L 39.833 346.167 39.833 347.417 L 39.833 348.667 112.294 348.667 L 184.754 348.667 185.057 349.792 C 185.593 351.782,185.831 352.307,186.303 352.550 C 186.800 352.805,187.566 353.238,189.667 354.449 C 190.446 354.899,191.421 355.437,191.833 355.646 C 192.246 355.854,192.883 356.203,193.250 356.420 C 193.617 356.638,194.103 356.900,194.330 357.002 C 194.557 357.104,194.782 357.239,194.830 357.302 C 194.878 357.365,195.254 357.587,195.667 357.795 C 196.079 358.003,196.717 358.346,197.083 358.558 C 197.450 358.769,198.257 359.219,198.877 359.558 L 200.004 360.175 200.960 359.648 C 202.638 358.723,203.396 358.298,204.250 357.802 C 204.708 357.535,205.308 357.203,205.583 357.064 C 205.858 356.925,206.383 356.634,206.750 356.418 C 207.117 356.201,207.754 355.854,208.167 355.646 C 208.579 355.437,209.554 354.899,210.333 354.449 C 212.434 353.238,213.200 352.805,213.697 352.550 C 214.169 352.307,214.407 351.782,214.943 349.792 L 215.246 348.667 287.706 348.667 L 360.167 348.667 360.167 347.417 L 360.167 346.167 288.072 346.167 C 219.489 346.167,215.982 346.152,216.064 345.875 C 216.112 345.715,216.199 345.358,216.258 345.083 C 216.317 344.808,216.462 344.283,216.580 343.917 C 216.699 343.550,216.907 342.837,217.043 342.333 C 217.442 340.854,218.505 337.147,218.763 336.333 C 219.320 334.582,219.306 334.583,215.750 336.614 C 215.383 336.823,214.933 337.063,214.750 337.146 C 214.567 337.230,213.929 337.578,213.333 337.920 C 212.311 338.506,211.985 338.690,210.042 339.776 C 209.606 340.019,208.876 340.413,208.420 340.651 C 207.963 340.889,207.489 341.177,207.366 341.292 C 207.243 341.406,207.041 341.500,206.917 341.500 C 206.792 341.500,206.578 341.612,206.441 341.749 C 206.304 341.886,206.017 342.075,205.804 342.169 C 205.591 342.262,205.117 342.510,204.750 342.719 C 204.383 342.928,203.593 343.369,202.994 343.700 C 202.394 344.030,201.510 344.533,201.028 344.817 C 199.979 345.435,199.989 345.435,199.205 344.945 C 198.522 344.517,197.042 343.691,195.753 343.017 C 195.297 342.779,194.823 342.490,194.700 342.375 C 194.577 342.260,194.381 342.167,194.264 342.167 C 194.147 342.167,193.878 342.017,193.667 341.833 C 193.455 341.650,193.187 341.500,193.070 341.500 C 192.953 341.500,192.757 341.406,192.634 341.292 C 192.511 341.177,192.037 340.888,191.580 340.649 C 190.328 339.994,188.820 339.154,188.167 338.747 C 187.846 338.547,186.962 338.054,186.202 337.650 C 185.442 337.247,184.542 336.758,184.202 336.565 C 181.563 335.063,181.000 334.825,180.999 335.211 M215.515 340.100 C 215.338 340.641,215.072 341.533,214.925 342.083 C 214.633 343.176,214.295 344.370,213.840 345.917 C 213.524 346.988,213.203 348.116,212.732 349.809 C 212.569 350.392,212.326 350.910,212.192 350.962 C 212.057 351.014,211.152 351.516,210.182 352.079 C 209.211 352.642,208.079 353.274,207.667 353.485 C 207.254 353.695,206.617 354.046,206.250 354.263 C 205.883 354.481,205.397 354.740,205.170 354.840 C 204.943 354.939,204.718 355.072,204.670 355.135 C 204.622 355.198,204.208 355.445,203.750 355.684 C 203.292 355.923,202.485 356.358,201.958 356.651 L 201.000 357.184 201.002 352.217 L 201.004 347.250 202.037 346.667 C 203.864 345.635,205.905 344.508,206.333 344.295 C 206.563 344.181,206.849 343.993,206.970 343.877 C 207.091 343.761,207.292 343.667,207.417 343.667 C 207.541 343.667,207.742 343.573,207.863 343.458 C 207.984 343.344,208.421 343.080,208.833 342.872 C 209.246 342.664,209.921 342.300,210.333 342.064 C 210.746 341.828,211.758 341.248,212.583 340.776 C 214.291 339.797,215.729 339.040,215.794 339.085 C 215.818 339.102,215.693 339.559,215.515 340.100 M185.474 339.684 C 185.993 339.968,186.904 340.483,187.500 340.828 C 188.990 341.689,190.099 342.306,191.080 342.817 C 191.537 343.055,192.011 343.344,192.134 343.458 C 192.257 343.573,192.459 343.667,192.583 343.667 C 192.708 343.667,192.909 343.761,193.030 343.877 C 193.151 343.993,193.438 344.181,193.667 344.296 C 194.136 344.532,195.553 345.315,197.167 346.232 C 197.762 346.570,198.419 346.931,198.625 347.033 L 199.000 347.220 199.000 352.201 L 199.000 357.182 197.754 356.502 C 197.068 356.128,196.262 355.693,195.962 355.536 C 195.662 355.379,195.378 355.198,195.330 355.135 C 195.282 355.072,195.057 354.939,194.830 354.840 C 194.603 354.740,194.117 354.481,193.750 354.263 C 193.383 354.046,192.746 353.695,192.333 353.485 C 191.921 353.274,190.767 352.629,189.770 352.051 C 188.773 351.473,187.897 351.000,187.824 351.000 C 187.667 351.000,187.000 349.280,187.000 348.874 C 187.000 348.720,186.895 348.292,186.767 347.922 C 186.638 347.553,186.406 346.762,186.250 346.167 C 186.095 345.571,185.835 344.671,185.673 344.167 C 185.512 343.662,185.251 342.762,185.095 342.167 C 184.939 341.571,184.703 340.746,184.571 340.333 C 184.141 338.987,184.169 338.967,185.474 339.684 " stroke="none" fill="#7c7c7c" fill-rule="evenodd"></path><path id="path2" d="M198.132 290.322 C 195.507 291.169,195.244 294.721,197.719 295.875 C 199.393 296.655,201.646 295.827,202.171 294.238 C 202.964 291.835,200.585 289.529,198.132 290.322 M254.250 290.567 C 251.330 291.958,252.486 296.178,255.783 296.163 C 257.691 296.154,258.833 295.061,258.833 293.243 C 258.833 290.793,256.561 289.466,254.250 290.567 M326.982 290.524 C 324.742 291.607,324.765 294.851,327.019 295.861 C 329.058 296.773,331.431 295.560,331.629 293.504 C 331.858 291.115,329.237 289.434,326.982 290.524 M46.583 291.101 C 41.273 292.658,39.071 296.331,39.098 303.583 C 39.124 310.760,41.467 314.552,46.628 315.771 C 48.657 316.251,52.431 315.983,53.820 315.262 C 54.056 315.139,54.545 314.899,54.905 314.728 C 56.916 313.774,58.753 311.005,59.072 308.448 C 59.282 306.769,59.396 306.833,56.193 306.833 L 53.409 306.833 53.206 307.905 C 52.430 311.995,46.935 312.218,45.493 308.218 C 44.875 306.506,44.870 300.507,45.485 298.804 C 47.034 294.510,52.754 294.885,53.279 299.314 L 53.380 300.167 56.179 300.167 C 59.402 300.167,59.296 300.226,59.083 298.527 C 58.797 296.237,56.501 292.505,55.375 292.501 C 55.260 292.500,55.167 292.441,55.167 292.369 C 55.167 291.349,48.897 290.423,46.583 291.101 M67.229 291.159 C 63.236 292.166,61.268 294.397,61.268 297.917 C 61.268 301.754,63.333 303.828,69.069 305.750 C 72.714 306.971,73.417 307.487,73.417 308.940 C 73.417 310.852,71.136 311.738,68.538 310.835 C 67.145 310.352,66.647 309.689,66.255 307.792 L 66.160 307.333 63.434 307.333 C 60.156 307.333,60.245 307.282,60.515 309.022 C 61.303 314.109,66.989 317.086,73.386 315.762 C 81.844 314.012,81.518 304.034,72.915 301.344 C 67.997 299.806,66.717 298.903,67.230 297.334 C 68.093 294.689,73.500 295.466,73.500 298.235 C 73.500 299.047,73.900 299.167,76.618 299.167 C 79.593 299.167,79.587 299.170,79.460 297.622 C 79.066 292.789,73.155 289.665,67.229 291.159 M82.243 291.375 C 82.200 291.490,82.183 296.983,82.207 303.583 L 82.250 315.583 84.894 315.629 C 86.703 315.661,87.612 315.615,87.769 315.484 C 88.086 315.221,88.116 291.683,87.800 291.367 C 87.511 291.077,82.354 291.085,82.243 291.375 M91.708 291.353 C 91.467 291.600,91.401 315.086,91.640 315.463 C 91.742 315.624,92.434 315.664,94.512 315.629 L 97.250 315.583 97.295 311.375 L 97.339 307.167 98.878 307.170 L 100.417 307.173 100.928 308.211 C 101.209 308.783,102.173 310.694,103.071 312.458 L 104.703 315.667 107.505 315.667 C 111.339 315.667,111.352 315.656,110.141 313.383 C 109.760 312.668,109.152 311.521,108.788 310.833 C 108.424 310.146,107.822 309.021,107.449 308.333 C 105.999 305.657,105.956 305.469,106.726 305.176 C 108.058 304.669,109.596 302.250,109.858 300.250 C 110.415 295.998,108.605 292.921,104.793 291.641 C 103.483 291.201,92.100 290.950,91.708 291.353 M111.367 291.367 C 111.076 291.658,111.103 295.485,111.399 295.875 C 111.597 296.136,111.975 296.167,114.975 296.167 L 118.331 296.167 118.374 305.875 L 118.417 315.583 121.250 315.583 L 124.083 315.583 124.126 305.875 L 124.169 296.167 127.551 296.167 C 129.960 296.167,130.991 296.109,131.133 295.967 C 131.465 295.635,131.408 291.398,131.070 291.268 C 130.527 291.060,111.579 291.155,111.367 291.367 M140.708 291.353 C 140.411 291.658,140.403 315.170,140.700 315.467 C 140.838 315.605,141.700 315.667,143.500 315.667 C 146.807 315.667,146.500 316.122,146.500 311.217 L 146.500 307.167 147.973 307.167 L 149.446 307.167 151.003 310.208 C 151.860 311.881,152.828 313.795,153.155 314.462 L 153.750 315.674 156.732 315.629 C 160.709 315.568,160.556 315.922,158.373 311.833 C 158.055 311.237,157.280 309.758,156.652 308.547 C 156.023 307.335,155.413 306.187,155.296 305.996 C 155.116 305.702,155.126 305.624,155.360 305.491 C 157.575 304.232,158.775 302.259,158.939 299.608 C 159.201 295.365,157.624 292.938,153.750 291.621 C 152.485 291.191,141.094 290.957,140.708 291.353 M212.508 291.407 C 212.100 291.898,212.365 309.402,212.795 310.439 C 215.946 318.030,228.215 318.071,230.922 310.500 C 231.233 309.631,231.250 309.109,231.250 300.417 L 231.250 291.250 228.606 291.204 C 226.797 291.173,225.888 291.219,225.731 291.349 C 225.540 291.508,225.500 292.955,225.500 299.697 C 225.500 309.549,225.452 309.851,223.764 310.641 C 221.813 311.553,219.651 311.059,218.750 309.495 C 218.430 308.940,218.415 308.565,218.368 300.258 C 218.335 294.374,218.261 291.531,218.139 291.383 C 217.865 291.053,212.784 291.075,212.508 291.407 M335.204 293.196 C 335.067 293.333,335.000 294.020,335.000 295.283 L 335.000 297.167 333.950 297.167 C 332.546 297.167,332.500 297.234,332.500 299.294 C 332.500 301.567,332.560 301.667,333.923 301.667 L 335.000 301.667 335.002 306.375 C 335.005 311.430,335.147 312.639,335.874 313.816 C 336.251 314.425,336.763 315.000,336.929 315.000 C 336.981 315.000,337.131 315.107,337.262 315.238 C 337.984 315.960,341.064 316.252,343.000 315.781 L 343.917 315.559 343.964 313.501 C 344.019 311.090,344.011 311.076,342.621 311.137 C 340.844 311.216,340.925 311.444,340.867 306.187 L 340.818 301.680 342.201 301.632 L 343.583 301.583 343.638 299.750 L 343.693 297.917 344.337 299.833 C 344.691 300.887,345.178 302.275,345.418 302.917 C 345.658 303.558,345.919 304.308,345.999 304.583 C 346.079 304.858,346.451 305.946,346.826 307.000 C 347.201 308.054,347.803 309.779,348.164 310.833 C 348.525 311.887,349.013 313.275,349.248 313.917 C 350.044 316.091,349.019 317.833,346.944 317.833 C 345.520 317.833,345.500 317.867,345.500 320.279 L 345.500 322.324 346.446 322.599 C 348.452 323.182,350.949 322.556,352.349 321.119 C 353.480 319.958,353.951 318.927,355.681 313.833 C 356.164 312.412,356.849 310.425,357.204 309.417 C 357.559 308.408,357.952 307.283,358.078 306.917 C 358.204 306.550,358.727 305.050,359.241 303.583 C 361.718 296.504,361.854 297.250,358.088 297.250 L 355.296 297.250 355.091 297.833 C 354.978 298.154,354.727 298.942,354.534 299.583 C 354.203 300.681,354.032 301.265,353.388 303.500 C 353.243 304.004,353.021 304.719,352.895 305.089 C 352.770 305.459,352.667 305.890,352.667 306.047 C 352.667 306.594,352.346 306.329,352.154 305.625 C 351.943 304.846,351.611 303.740,351.167 302.333 C 350.877 301.415,350.643 300.630,349.986 298.375 L 349.634 297.167 346.825 297.167 C 344.417 297.167,343.995 297.205,343.866 297.435 C 343.728 297.681,343.708 297.681,343.613 297.435 C 343.531 297.219,343.249 297.167,342.177 297.167 L 340.844 297.167 340.797 295.125 L 340.750 293.083 338.079 293.038 C 336.142 293.005,335.352 293.048,335.204 293.196 M102.953 296.775 C 103.752 297.418,104.056 298.272,103.945 299.562 C 103.778 301.514,102.553 302.167,99.056 302.167 L 97.333 302.167 97.333 299.146 L 97.333 296.125 99.828 296.196 C 102.315 296.267,102.326 296.269,102.953 296.775 M151.760 296.571 C 153.242 297.534,153.507 299.982,152.264 301.225 C 151.572 301.916,150.503 302.167,148.237 302.167 L 146.500 302.167 146.500 299.148 L 146.500 296.130 148.885 296.191 C 150.881 296.243,151.349 296.305,151.760 296.571 M166.325 297.165 C 163.195 298.020,161.082 300.207,161.200 302.469 L 161.250 303.417 163.899 303.417 C 166.772 303.417,166.601 303.473,166.995 302.401 C 167.712 300.456,170.833 301.345,170.833 303.495 L 170.833 304.000 168.955 304.000 C 162.675 304.000,159.039 308.082,161.223 312.681 C 162.702 315.796,167.650 317.110,170.583 315.167 C 171.217 314.747,171.241 314.749,171.470 315.250 L 171.660 315.667 174.309 315.667 C 177.577 315.667,177.552 315.683,176.993 313.954 C 176.623 312.811,176.600 312.473,176.544 307.250 C 176.481 301.415,176.426 300.975,175.605 299.750 C 173.984 297.330,169.892 296.190,166.325 297.165 M241.797 297.168 C 241.272 297.340,240.560 297.675,240.213 297.911 L 239.583 298.340 239.532 297.753 L 239.480 297.167 236.927 297.167 C 234.975 297.167,234.330 297.220,234.186 297.394 C 234.049 297.558,234.009 300.108,234.040 306.602 L 234.083 315.583 236.833 315.583 L 239.583 315.583 239.624 309.417 C 239.673 301.912,239.699 301.833,242.191 301.833 C 244.414 301.833,244.399 301.784,244.500 309.333 L 244.583 315.583 247.144 315.629 C 250.576 315.691,250.210 316.575,250.131 308.425 C 250.059 301.048,250.027 300.782,249.023 299.167 C 247.766 297.147,244.559 296.259,241.797 297.168 M283.917 297.107 C 278.352 298.799,275.820 305.701,278.640 311.495 C 281.051 316.449,288.975 317.636,293.222 313.679 C 294.485 312.501,294.481 312.423,293.054 310.867 C 291.606 309.288,291.336 309.209,290.278 310.057 C 287.887 311.975,283.667 311.092,283.667 308.675 C 283.667 308.557,285.326 308.500,288.796 308.500 C 295.208 308.500,294.757 308.687,294.602 306.098 C 294.347 301.828,293.085 299.276,290.500 297.803 C 288.890 296.886,285.740 296.553,283.917 297.107 M303.409 297.134 C 303.039 297.290,302.495 297.591,302.201 297.803 L 301.667 298.189 301.667 297.678 L 301.667 297.167 299.117 297.167 C 297.356 297.167,296.505 297.229,296.367 297.367 C 296.051 297.682,296.081 315.221,296.397 315.484 C 296.555 315.615,297.442 315.661,299.189 315.629 L 301.750 315.583 301.794 309.756 L 301.838 303.928 302.352 303.398 C 303.019 302.709,304.030 302.433,305.500 302.539 C 307.009 302.647,306.979 302.698,307.108 299.716 L 307.217 297.217 306.667 297.025 C 305.876 296.749,304.194 296.806,303.409 297.134 M312.712 297.165 C 309.774 298.033,307.988 300.091,307.938 302.667 C 307.917 303.749,308.501 305.667,308.853 305.667 C 308.934 305.667,309.003 305.760,309.007 305.875 C 309.016 306.128,310.363 307.159,311.167 307.529 C 312.392 308.091,313.020 308.333,313.253 308.333 C 313.608 308.333,316.334 309.135,316.917 309.411 C 318.049 309.947,317.966 310.920,316.742 311.431 C 314.981 312.167,312.833 311.057,312.833 309.411 L 312.833 309.000 310.359 309.000 C 307.317 309.000,307.144 309.094,307.458 310.587 C 309.032 318.094,323.317 317.791,323.333 310.250 C 323.339 307.060,321.539 305.356,317.083 304.338 C 313.733 303.571,312.803 302.860,313.875 301.883 C 315.094 300.773,316.990 301.064,317.392 302.422 C 317.698 303.454,317.583 303.413,320.329 303.463 C 323.131 303.514,323.333 303.455,323.333 302.593 C 323.333 298.588,317.679 295.699,312.712 297.165 M179.033 297.367 C 178.864 297.536,178.716 301.739,178.875 301.867 C 178.898 301.885,180.552 301.941,182.550 301.992 L 186.184 302.083 183.842 305.132 C 182.554 306.809,181.500 308.253,181.500 308.341 C 181.500 308.428,181.437 308.500,181.361 308.500 C 181.285 308.500,180.930 308.925,180.572 309.444 C 180.215 309.963,179.843 310.469,179.747 310.569 C 178.743 311.606,178.653 311.882,178.703 313.773 L 178.750 315.583 186.231 315.627 C 191.615 315.658,193.775 315.617,193.939 315.481 C 194.109 315.341,194.167 314.774,194.167 313.258 C 194.167 310.672,194.467 310.844,189.866 310.791 L 186.316 310.750 187.366 309.333 C 187.944 308.554,188.473 307.892,188.542 307.861 C 188.610 307.831,188.667 307.699,188.667 307.569 C 188.667 307.440,188.731 307.333,188.809 307.333 C 188.888 307.333,189.279 306.865,189.678 306.292 C 190.078 305.719,190.482 305.165,190.577 305.060 C 190.672 304.956,190.900 304.661,191.083 304.406 C 191.267 304.150,191.960 303.230,192.625 302.362 L 193.833 300.783 193.833 299.175 C 193.833 298.146,193.761 297.495,193.633 297.367 C 193.346 297.079,179.321 297.079,179.033 297.367 M196.533 297.367 C 196.300 297.600,196.242 315.098,196.473 315.463 C 196.576 315.624,197.251 315.664,199.263 315.629 L 201.917 315.583 201.960 306.602 C 201.991 300.108,201.951 297.558,201.814 297.394 C 201.561 297.089,196.835 297.065,196.533 297.367 M253.125 297.347 C 252.754 297.563,252.665 315.099,253.033 315.467 C 253.171 315.605,254.015 315.667,255.750 315.667 C 257.485 315.667,258.329 315.605,258.467 315.467 C 258.861 315.072,258.743 297.552,258.344 297.339 C 257.928 297.117,253.509 297.123,253.125 297.347 M260.114 297.467 C 259.861 297.746,259.916 297.981,260.929 300.925 C 261.527 302.662,262.080 304.308,262.160 304.583 C 262.239 304.858,262.386 305.308,262.485 305.583 C 262.715 306.218,263.388 308.210,264.781 312.379 L 265.883 315.675 268.566 315.629 L 271.250 315.583 271.556 314.667 C 271.725 314.162,271.927 313.525,272.005 313.250 C 272.083 312.975,272.720 311.100,273.419 309.083 C 274.119 307.067,274.751 305.192,274.824 304.917 C 274.897 304.642,275.031 304.229,275.122 304.000 C 275.213 303.771,275.375 303.321,275.483 303.000 C 277.662 296.523,277.816 297.167,274.094 297.167 L 271.347 297.167 271.164 297.875 C 271.064 298.265,270.840 299.071,270.667 299.667 C 270.494 300.262,270.225 301.237,270.071 301.833 C 269.595 303.667,269.304 304.709,268.979 305.741 C 268.807 306.286,268.661 306.886,268.654 307.074 C 268.640 307.421,268.369 306.669,267.904 305.000 C 267.764 304.496,267.509 303.596,267.338 303.000 C 267.168 302.404,266.900 301.429,266.744 300.833 C 266.588 300.237,266.362 299.412,266.242 299.000 C 266.122 298.587,265.975 298.006,265.915 297.708 L 265.807 297.167 263.096 297.167 C 260.697 297.167,260.354 297.201,260.114 297.467 M325.792 297.347 C 325.421 297.563,325.332 315.099,325.700 315.467 C 325.838 315.605,326.681 315.667,328.417 315.667 C 330.152 315.667,330.995 315.605,331.133 315.467 C 331.422 315.178,331.422 297.655,331.133 297.367 C 330.882 297.115,326.219 297.098,325.792 297.347 M59.333 298.833 C 59.333 298.925,59.446 299.000,59.583 299.000 C 59.721 299.000,59.888 299.006,59.954 299.012 C 60.021 299.019,60.102 298.944,60.135 298.846 C 60.168 298.747,60.001 298.667,59.764 298.667 C 59.527 298.667,59.333 298.742,59.333 298.833 M288.042 302.375 C 288.447 302.742,288.673 303.118,288.744 303.542 L 288.848 304.167 286.258 304.167 C 283.436 304.167,283.480 304.186,283.994 303.178 C 284.751 301.695,286.835 301.281,288.042 302.375 M170.833 308.977 C 170.833 311.021,167.992 312.306,166.781 310.810 C 165.666 309.434,167.142 307.844,169.542 307.837 L 170.833 307.833 170.833 308.977 " stroke="none" fill="#3b3b3b" fill-rule="evenodd"></path><path id="path3" d="M196.000 45.769 C 162.771 48.148,136.161 69.244,126.858 100.583 C 124.317 109.144,123.791 114.620,123.868 131.750 L 123.917 142.583 125.083 142.688 C 134.262 143.510,140.139 153.161,136.663 161.703 C 134.676 166.585,129.537 170.333,124.830 170.333 L 123.799 170.333 123.881 183.792 C 123.972 198.710,124.140 201.124,125.504 207.108 C 126.279 210.506,126.354 210.790,127.258 213.750 C 133.349 233.713,148.000 250.670,167.082 259.845 C 172.529 262.465,177.492 264.165,184.056 265.662 C 194.618 268.070,208.359 267.768,219.158 264.891 C 220.034 264.658,220.975 264.408,221.250 264.336 C 222.362 264.045,226.936 262.479,228.083 261.995 C 248.895 253.227,262.976 238.920,271.301 218.083 C 271.636 217.245,272.919 213.347,273.167 212.417 C 274.564 207.166,275.112 204.452,275.688 199.917 C 276.024 197.276,276.053 196.173,276.123 183.708 L 276.197 170.333 275.168 170.333 C 270.469 170.333,265.321 166.578,263.337 161.703 C 259.863 153.166,265.743 143.510,274.917 142.688 L 276.083 142.583 276.077 129.417 C 276.069 113.685,275.929 111.970,273.971 103.667 C 267.298 75.362,243.506 52.703,214.583 47.108 C 209.095 46.047,200.637 45.437,196.000 45.769 M199.167 52.667 C 198.938 52.740,198.300 52.808,197.750 52.818 C 195.361 52.860,188.956 53.925,185.167 54.909 C 161.043 61.175,142.058 79.604,135.279 103.336 C 134.357 106.562,133.679 109.958,133.165 113.917 C 132.817 116.603,132.802 117.057,132.593 130.710 L 132.517 135.671 133.717 136.275 C 150.461 144.707,149.759 169.406,132.583 176.173 C 132.033 176.389,131.533 176.608,131.472 176.658 C 131.411 176.709,131.271 179.188,131.162 182.167 C 131.053 185.146,130.914 188.333,130.852 189.250 L 130.739 190.917 130.617 189.917 C 130.549 189.367,130.421 186.929,130.333 184.500 C 130.244 182.071,130.122 179.099,130.062 177.895 L 129.954 175.708 131.685 174.864 C 148.113 166.863,146.520 144.102,129.125 138.275 C 128.357 138.018,128.787 115.849,129.664 110.474 C 134.803 78.977,159.536 55.895,191.667 52.613 C 192.870 52.490,199.568 52.538,199.167 52.667 M205.763 87.656 C 215.497 89.381,224.538 95.370,229.264 103.223 C 229.531 103.667,229.892 104.267,230.066 104.557 C 233.852 110.855,235.797 120.935,233.996 124.920 C 232.090 129.137,226.015 130.138,222.773 126.769 C 221.374 125.316,220.911 124.107,220.754 121.500 C 220.034 109.576,211.507 101.260,200.000 101.260 C 188.510 101.260,179.956 109.604,179.248 121.500 C 178.653 131.511,165.327 131.283,165.335 121.261 C 165.351 100.478,185.169 84.005,205.763 87.656 M201.551 115.082 C 204.327 115.805,206.336 117.880,206.842 120.546 C 207.059 121.692,207.055 191.332,206.837 192.479 C 205.422 199.942,194.535 199.897,193.154 192.423 C 193.056 191.895,193.012 177.907,193.039 155.908 L 193.083 120.250 193.489 119.333 C 194.960 116.006,198.312 114.238,201.551 115.082 M269.657 126.347 C 269.760 128.310,269.916 131.004,270.002 132.333 C 270.089 133.662,270.161 135.369,270.163 136.125 L 270.167 137.500 269.042 138.028 C 252.986 145.559,253.263 167.381,269.500 174.063 L 271.250 174.783 271.217 184.183 C 271.160 200.353,270.089 206.876,265.840 216.917 C 262.375 225.107,254.774 235.821,249.844 239.466 C 249.114 240.005,249.160 239.931,250.927 237.733 C 255.641 231.865,259.838 224.739,262.203 218.583 C 264.707 212.067,265.948 207.291,266.858 200.667 C 267.179 198.329,267.220 197.108,267.290 187.815 L 267.367 177.547 265.743 176.680 C 249.634 168.072,249.844 145.122,266.105 137.233 C 267.126 136.738,268.040 136.333,268.137 136.333 C 268.375 136.333,268.458 135.540,268.669 131.250 C 268.769 129.233,268.921 126.567,269.008 125.324 C 269.095 124.081,269.171 122.844,269.177 122.574 C 269.211 121.005,269.491 123.211,269.657 126.347 M175.294 143.330 C 176.611 143.946,177.947 145.264,178.594 146.583 L 179.083 147.583 179.179 170.500 C 179.285 195.986,179.207 194.259,180.413 197.907 C 186.041 214.930,209.942 216.737,218.346 200.775 C 220.476 196.728,220.693 195.286,220.816 184.333 L 220.917 175.417 221.430 174.333 C 223.985 168.948,231.810 169.119,234.167 174.612 L 234.583 175.583 234.631 184.412 C 234.706 198.466,233.700 203.105,229.044 210.162 C 211.284 237.081,169.631 227.349,165.579 195.333 C 165.224 192.535,165.217 149.034,165.571 147.706 C 166.668 143.584,171.342 141.480,175.294 143.330 M176.575 233.585 C 183.115 236.870,180.863 246.838,173.583 246.830 C 165.834 246.822,163.924 236.322,171.128 233.331 C 172.428 232.792,175.258 232.923,176.575 233.585 M229.537 233.646 C 236.319 237.049,233.511 247.315,225.941 246.793 C 219.289 246.334,217.125 237.520,222.787 233.946 C 224.634 232.780,227.553 232.650,229.537 233.646 M202.221 239.990 C 208.810 242.257,208.395 251.578,201.626 253.355 C 195.992 254.834,191.117 248.697,193.769 243.463 C 195.311 240.419,199.029 238.892,202.221 239.990 " stroke="none" fill="#bc141c" fill-rule="evenodd"></path><path id="path4" d="M195.792 45.784 C 195.998 45.824,196.335 45.824,196.542 45.784 C 196.748 45.745,196.579 45.712,196.167 45.712 C 195.754 45.712,195.585 45.745,195.792 45.784 M203.458 45.784 C 203.665 45.824,204.002 45.824,204.208 45.784 C 204.415 45.745,204.246 45.712,203.833 45.712 C 203.421 45.712,203.252 45.745,203.458 45.784 M191.627 46.118 C 191.834 46.158,192.134 46.156,192.294 46.115 C 192.453 46.073,192.283 46.040,191.917 46.042 C 191.550 46.044,191.420 46.078,191.627 46.118 M207.794 46.118 C 208.001 46.158,208.301 46.156,208.460 46.115 C 208.620 46.073,208.450 46.040,208.083 46.042 C 207.717 46.044,207.586 46.078,207.794 46.118 M192.708 52.621 C 193.052 52.657,193.615 52.657,193.958 52.621 C 194.302 52.585,194.021 52.556,193.333 52.556 C 192.646 52.556,192.365 52.585,192.708 52.621 M197.500 52.667 C 196.981 52.776,197.017 52.790,197.833 52.795 C 198.338 52.798,198.938 52.740,199.167 52.667 C 199.722 52.489,198.344 52.489,197.500 52.667 M190.627 52.785 C 190.834 52.824,191.134 52.823,191.294 52.781 C 191.453 52.739,191.283 52.707,190.917 52.709 C 190.550 52.711,190.420 52.745,190.627 52.785 M235.167 54.241 C 235.167 54.287,235.392 54.441,235.667 54.583 C 235.942 54.726,236.167 54.804,236.167 54.759 C 236.167 54.713,235.942 54.559,235.667 54.417 C 235.392 54.274,235.167 54.196,235.167 54.241 M182.583 55.500 C 182.373 55.590,182.342 55.643,182.500 55.643 C 182.637 55.643,182.900 55.579,183.083 55.500 C 183.293 55.410,183.324 55.357,183.167 55.357 C 183.029 55.357,182.767 55.421,182.583 55.500 M165.458 60.262 C 164.835 60.600,164.873 60.741,165.500 60.417 C 165.775 60.274,166.000 60.123,166.000 60.079 C 166.000 59.972,165.982 59.978,165.458 60.262 M250.000 64.417 C 250.311 64.737,250.603 65.000,250.649 65.000 C 250.695 65.000,250.478 64.737,250.167 64.417 C 249.856 64.096,249.564 63.833,249.518 63.833 C 249.472 63.833,249.689 64.096,250.000 64.417 M149.740 64.542 L 149.250 65.083 149.792 64.594 C 150.090 64.325,150.333 64.081,150.333 64.052 C 150.333 63.923,150.196 64.037,149.740 64.542 M148.000 66.083 C 147.595 66.496,147.301 66.833,147.347 66.833 C 147.393 66.833,147.762 66.496,148.167 66.083 C 148.572 65.671,148.865 65.333,148.819 65.333 C 148.774 65.333,148.405 65.671,148.000 66.083 M251.750 66.000 C 252.108 66.367,252.438 66.667,252.484 66.667 C 252.530 66.667,252.275 66.367,251.917 66.000 C 251.559 65.633,251.228 65.333,251.182 65.333 C 251.137 65.333,251.392 65.633,251.750 66.000 M160.667 66.520 C 160.086 67.030,160.086 67.030,160.620 66.675 C 160.915 66.478,161.201 66.246,161.255 66.159 C 161.416 65.899,161.282 65.981,160.667 66.520 M158.500 68.189 L 157.750 68.869 158.456 68.339 C 159.070 67.878,159.464 67.489,159.302 67.505 C 159.273 67.508,158.912 67.816,158.500 68.189 M152.573 69.208 L 152.083 69.750 152.625 69.260 C 152.923 68.991,153.167 68.748,153.167 68.719 C 153.167 68.590,153.029 68.703,152.573 69.208 M156.906 69.542 L 156.417 70.083 156.958 69.594 C 157.256 69.325,157.500 69.081,157.500 69.052 C 157.500 68.923,157.362 69.037,156.906 69.542 M144.167 69.917 C 143.762 70.329,143.468 70.667,143.514 70.667 C 143.560 70.667,143.928 70.329,144.333 69.917 C 144.738 69.504,145.032 69.167,144.986 69.167 C 144.940 69.167,144.572 69.504,144.167 69.917 M255.660 69.875 C 256.350 70.611,256.500 70.743,256.500 70.618 C 256.500 70.591,256.144 70.235,255.708 69.826 L 254.917 69.083 255.660 69.875 M150.991 70.625 L 150.417 71.250 151.042 70.676 C 151.623 70.141,151.743 70.000,151.616 70.000 C 151.588 70.000,151.307 70.281,150.991 70.625 M155.573 70.708 L 155.083 71.250 155.625 70.760 C 155.923 70.491,156.167 70.248,156.167 70.219 C 156.167 70.090,156.029 70.203,155.573 70.708 M142.573 71.708 L 142.083 72.250 142.625 71.760 C 142.923 71.491,143.167 71.248,143.167 71.219 C 143.167 71.090,143.029 71.203,142.573 71.708 M257.000 71.385 C 257.000 71.414,257.244 71.658,257.542 71.927 L 258.083 72.417 257.594 71.875 C 257.138 71.370,257.000 71.257,257.000 71.385 M152.913 73.208 L 151.583 74.583 152.958 73.254 C 153.715 72.523,154.333 71.904,154.333 71.879 C 154.333 71.757,154.147 71.931,152.913 73.208 M141.573 72.875 L 141.083 73.417 141.625 72.927 C 141.923 72.658,142.167 72.414,142.167 72.385 C 142.167 72.257,142.029 72.370,141.573 72.875 M147.409 74.208 L 146.750 74.917 147.458 74.258 C 147.848 73.895,148.167 73.577,148.167 73.550 C 148.167 73.423,148.022 73.550,147.409 74.208 M150.333 75.917 C 149.928 76.329,149.635 76.667,149.681 76.667 C 149.726 76.667,150.095 76.329,150.500 75.917 C 150.905 75.504,151.199 75.167,151.153 75.167 C 151.107 75.167,150.738 75.504,150.333 75.917 M145.740 76.042 L 145.250 76.583 145.792 76.094 C 146.090 75.825,146.333 75.581,146.333 75.552 C 146.333 75.423,146.196 75.537,145.740 76.042 M132.750 85.833 C 132.608 86.108,132.529 86.333,132.575 86.333 C 132.621 86.333,132.774 86.108,132.917 85.833 C 133.059 85.558,133.138 85.333,133.092 85.333 C 133.046 85.333,132.892 85.558,132.750 85.833 M198.875 87.290 C 199.494 87.322,200.506 87.322,201.125 87.290 C 201.744 87.258,201.237 87.232,200.000 87.232 C 198.762 87.232,198.256 87.258,198.875 87.290 M195.960 87.451 C 196.168 87.491,196.468 87.490,196.627 87.448 C 196.786 87.406,196.617 87.374,196.250 87.375 C 195.883 87.377,195.753 87.411,195.960 87.451 M203.460 87.451 C 203.668 87.491,203.968 87.490,204.127 87.448 C 204.286 87.406,204.117 87.374,203.750 87.375 C 203.383 87.377,203.253 87.411,203.460 87.451 M137.083 88.500 C 136.941 88.775,136.862 89.000,136.908 89.000 C 136.954 89.000,137.108 88.775,137.250 88.500 C 137.392 88.225,137.471 88.000,137.425 88.000 C 137.379 88.000,137.226 88.225,137.083 88.500 M140.417 90.167 C 140.274 90.442,140.196 90.667,140.241 90.667 C 140.287 90.667,140.441 90.442,140.583 90.167 C 140.726 89.892,140.804 89.667,140.759 89.667 C 140.713 89.667,140.559 89.892,140.417 90.167 M177.240 95.708 L 176.750 96.250 177.292 95.760 C 177.797 95.304,177.910 95.167,177.781 95.167 C 177.752 95.167,177.509 95.410,177.240 95.708 M175.411 97.375 L 174.417 98.417 175.458 97.422 C 176.426 96.498,176.576 96.333,176.453 96.333 C 176.427 96.333,175.959 96.802,175.411 97.375 M224.500 97.417 C 225.091 98.013,225.611 98.500,225.657 98.500 C 225.703 98.500,225.257 98.013,224.667 97.417 C 224.076 96.821,223.555 96.333,223.510 96.333 C 223.464 96.333,223.909 96.821,224.500 97.417 M199.458 101.121 C 199.756 101.158,200.244 101.158,200.542 101.121 C 200.840 101.084,200.596 101.053,200.000 101.053 C 199.404 101.053,199.160 101.084,199.458 101.121 M197.208 101.282 C 197.369 101.323,197.631 101.323,197.792 101.282 C 197.952 101.240,197.821 101.205,197.500 101.205 C 197.179 101.205,197.048 101.240,197.208 101.282 M202.208 101.282 C 202.369 101.323,202.631 101.323,202.792 101.282 C 202.952 101.240,202.821 101.205,202.500 101.205 C 202.179 101.205,202.048 101.240,202.208 101.282 M185.245 107.208 L 184.250 108.250 185.292 107.255 C 185.865 106.708,186.333 106.239,186.333 106.214 C 186.333 106.090,186.169 106.241,185.245 107.208 M214.583 107.167 C 215.128 107.717,215.610 108.167,215.656 108.167 C 215.702 108.167,215.294 107.717,214.750 107.167 C 214.206 106.617,213.723 106.167,213.677 106.167 C 213.631 106.167,214.039 106.617,214.583 107.167 M275.539 112.000 C 275.539 112.321,275.573 112.452,275.615 112.292 C 275.657 112.131,275.657 111.869,275.615 111.708 C 275.573 111.548,275.539 111.679,275.539 112.000 M129.372 112.500 C 129.372 112.821,129.406 112.952,129.448 112.792 C 129.490 112.631,129.490 112.369,129.448 112.208 C 129.406 112.048,129.372 112.179,129.372 112.500 M133.205 112.833 C 133.205 113.154,133.240 113.285,133.282 113.125 C 133.323 112.965,133.323 112.702,133.282 112.542 C 133.240 112.381,133.205 112.513,133.205 112.833 M129.205 113.833 C 129.205 114.154,129.240 114.285,129.282 114.125 C 129.323 113.965,129.323 113.702,129.282 113.542 C 129.240 113.381,129.205 113.513,129.205 113.833 M199.542 114.953 C 199.794 114.991,200.206 114.991,200.458 114.953 C 200.710 114.915,200.504 114.883,200.000 114.883 C 199.496 114.883,199.290 114.915,199.542 114.953 M195.884 116.262 L 195.417 116.691 195.958 116.314 C 196.256 116.107,196.500 115.914,196.500 115.885 C 196.500 115.754,196.316 115.867,195.884 116.262 M203.500 115.879 C 203.500 115.911,203.744 116.116,204.042 116.334 C 204.377 116.579,204.493 116.619,204.347 116.439 C 204.125 116.166,203.500 115.753,203.500 115.879 M123.890 117.750 C 123.891 118.483,123.920 118.763,123.956 118.371 C 123.991 117.979,123.990 117.379,123.954 117.037 C 123.919 116.696,123.890 117.017,123.890 117.750 M276.056 117.667 C 276.056 118.354,276.085 118.635,276.121 118.292 C 276.157 117.948,276.157 117.385,276.121 117.042 C 276.085 116.698,276.056 116.979,276.056 117.667 M132.721 118.083 C 132.722 118.725,132.752 118.967,132.788 118.621 C 132.824 118.275,132.824 117.750,132.787 117.455 C 132.750 117.159,132.721 117.442,132.721 118.083 M128.887 118.167 C 128.887 118.763,128.917 119.006,128.954 118.708 C 128.991 118.410,128.991 117.923,128.954 117.625 C 128.917 117.327,128.887 117.571,128.887 118.167 M165.375 119.583 C 165.377 119.950,165.411 120.080,165.451 119.873 C 165.491 119.666,165.490 119.366,165.448 119.206 C 165.406 119.047,165.374 119.217,165.375 119.583 M234.542 119.583 C 234.544 119.950,234.578 120.080,234.618 119.873 C 234.658 119.666,234.656 119.366,234.615 119.206 C 234.573 119.047,234.540 119.217,234.542 119.583 M220.712 120.667 C 220.712 121.079,220.745 121.248,220.784 121.042 C 220.824 120.835,220.824 120.498,220.784 120.292 C 220.745 120.085,220.712 120.254,220.712 120.667 M179.212 120.833 C 179.212 121.246,179.245 121.415,179.284 121.208 C 179.324 121.002,179.324 120.665,179.284 120.458 C 179.245 120.252,179.212 120.421,179.212 120.833 M193.082 156.500 C 193.082 176.071,193.101 184.077,193.125 174.292 C 193.149 164.506,193.149 148.494,193.125 138.708 C 193.101 128.923,193.082 136.929,193.082 156.500 M206.915 156.500 C 206.915 176.071,206.935 184.077,206.958 174.292 C 206.982 164.506,206.982 148.494,206.958 138.708 C 206.935 128.923,206.915 136.929,206.915 156.500 M132.575 127.083 C 132.575 130.292,132.597 131.581,132.625 129.948 C 132.652 128.315,132.652 125.690,132.625 124.114 C 132.597 122.539,132.575 123.875,132.575 127.083 M269.188 122.417 C 269.187 122.600,269.248 123.050,269.324 123.417 L 269.462 124.083 269.469 123.417 C 269.473 123.050,269.412 122.600,269.333 122.417 L 269.190 122.083 269.188 122.417 M269.045 124.667 C 269.045 125.079,269.078 125.248,269.118 125.042 C 269.157 124.835,269.157 124.498,269.118 124.292 C 269.078 124.085,269.045 124.254,269.045 124.667 M269.553 125.833 C 269.553 126.429,269.584 126.673,269.621 126.375 C 269.658 126.077,269.658 125.590,269.621 125.292 C 269.584 124.994,269.553 125.237,269.553 125.833 M268.888 127.417 C 268.889 128.058,268.919 128.300,268.955 127.955 C 268.991 127.609,268.990 127.084,268.954 126.788 C 268.917 126.492,268.887 126.775,268.888 127.417 M269.709 128.917 C 269.711 129.283,269.745 129.414,269.785 129.206 C 269.824 128.999,269.823 128.699,269.781 128.540 C 269.739 128.380,269.707 128.550,269.709 128.917 M268.709 130.583 C 268.711 130.950,268.745 131.080,268.785 130.873 C 268.824 130.666,268.823 130.366,268.781 130.206 C 268.739 130.047,268.707 130.217,268.709 130.583 M269.881 131.583 C 269.882 132.042,269.915 132.209,269.953 131.956 C 269.991 131.703,269.990 131.328,269.951 131.123 C 269.911 130.918,269.880 131.125,269.881 131.583 M128.910 135.320 C 128.916 137.755,128.957 138.234,129.167 138.291 C 129.347 138.340,129.360 138.319,129.213 138.214 C 129.069 138.112,128.993 137.231,128.956 135.243 L 128.904 132.417 128.910 135.320 M268.552 133.583 C 268.553 134.133,268.584 134.338,268.621 134.039 C 268.658 133.739,268.657 133.289,268.619 133.039 C 268.581 132.788,268.551 133.033,268.552 133.583 M270.058 135.167 C 270.058 135.946,270.087 136.265,270.122 135.875 C 270.157 135.485,270.157 134.848,270.122 134.458 C 270.087 134.069,270.058 134.387,270.058 135.167 M268.353 135.926 C 268.341 136.132,268.150 136.346,267.875 136.462 C 267.458 136.637,267.454 136.645,267.833 136.558 C 268.392 136.430,268.547 136.263,268.452 135.893 C 268.381 135.617,268.370 135.621,268.353 135.926 M267.292 138.762 C 266.669 139.100,266.707 139.241,267.333 138.917 C 267.608 138.774,267.833 138.623,267.833 138.579 C 267.833 138.472,267.815 138.478,267.292 138.762 M139.417 140.500 C 139.961 141.050,140.444 141.500,140.490 141.500 C 140.535 141.500,140.128 141.050,139.583 140.500 C 139.039 139.950,138.556 139.500,138.510 139.500 C 138.465 139.500,138.872 139.950,139.417 140.500 M260.906 140.708 L 260.417 141.250 260.958 140.760 C 261.463 140.304,261.577 140.167,261.448 140.167 C 261.419 140.167,261.175 140.410,260.906 140.708 M259.409 142.208 L 258.750 142.917 259.458 142.258 C 260.117 141.645,260.243 141.500,260.117 141.500 C 260.090 141.500,259.771 141.819,259.409 142.208 M262.073 143.042 L 261.583 143.583 262.125 143.094 C 262.630 142.638,262.743 142.500,262.615 142.500 C 262.586 142.500,262.342 142.744,262.073 143.042 M177.167 144.750 C 177.478 145.071,177.770 145.333,177.815 145.333 C 177.861 145.333,177.644 145.071,177.333 144.750 C 177.022 144.429,176.730 144.167,176.685 144.167 C 176.639 144.167,176.856 144.429,177.167 144.750 M133.500 146.750 C 133.998 147.254,134.443 147.667,134.489 147.667 C 134.534 147.667,134.165 147.254,133.667 146.750 C 133.169 146.246,132.724 145.833,132.678 145.833 C 132.632 145.833,133.002 146.246,133.500 146.750 M139.812 146.083 C 139.902 146.267,140.098 146.567,140.247 146.750 L 140.518 147.083 140.355 146.750 C 140.265 146.567,140.069 146.267,139.920 146.083 L 139.648 145.750 139.812 146.083 M266.328 146.792 L 265.417 147.750 266.375 146.839 C 267.265 145.993,267.410 145.833,267.286 145.833 C 267.260 145.833,266.829 146.265,266.328 146.792 M140.917 148.000 C 141.059 148.275,141.213 148.500,141.259 148.500 C 141.304 148.500,141.226 148.275,141.083 148.000 C 140.941 147.725,140.787 147.500,140.741 147.500 C 140.696 147.500,140.774 147.725,140.917 148.000 M145.898 156.167 C 145.898 157.313,145.924 157.781,145.957 157.208 C 145.989 156.635,145.989 155.698,145.957 155.125 C 145.924 154.552,145.898 155.021,145.898 156.167 M143.048 155.250 C 143.049 155.708,143.081 155.876,143.120 155.623 C 143.158 155.369,143.157 154.994,143.117 154.789 C 143.078 154.584,143.046 154.792,143.048 155.250 M262.372 155.167 C 262.372 155.487,262.406 155.619,262.448 155.458 C 262.490 155.298,262.490 155.035,262.448 154.875 C 262.406 154.715,262.372 154.846,262.372 155.167 M262.372 157.833 C 262.372 158.154,262.406 158.285,262.448 158.125 C 262.490 157.965,262.490 157.702,262.448 157.542 C 262.406 157.381,262.372 157.512,262.372 157.833 M143.048 158.583 C 143.049 159.042,143.081 159.209,143.120 158.956 C 143.158 158.703,143.157 158.328,143.117 158.123 C 143.078 157.918,143.046 158.125,143.048 158.583 M265.333 165.219 C 265.333 165.248,265.577 165.491,265.875 165.760 L 266.417 166.250 265.927 165.708 C 265.471 165.203,265.333 165.090,265.333 165.219 M267.000 166.917 C 267.311 167.237,267.603 167.500,267.649 167.500 C 267.695 167.500,267.478 167.237,267.167 166.917 C 266.856 166.596,266.564 166.333,266.518 166.333 C 266.472 166.333,266.689 166.596,267.000 166.917 M262.667 169.750 C 263.257 170.346,263.778 170.833,263.824 170.833 C 263.870 170.833,263.424 170.346,262.833 169.750 C 262.243 169.154,261.722 168.667,261.676 168.667 C 261.630 168.667,262.076 169.154,262.667 169.750 M257.798 169.750 C 257.893 169.933,258.246 170.383,258.583 170.750 L 259.194 171.417 258.564 170.583 C 257.771 169.536,257.579 169.327,257.798 169.750 M140.077 170.875 L 139.250 171.750 140.125 170.923 C 140.938 170.154,141.076 170.000,140.952 170.000 C 140.926 170.000,140.532 170.394,140.077 170.875 M137.244 171.042 L 136.417 171.917 137.292 171.090 C 137.773 170.635,138.167 170.241,138.167 170.215 C 138.167 170.090,138.012 170.229,137.244 171.042 M259.993 172.375 C 260.684 173.111,260.833 173.243,260.833 173.118 C 260.833 173.091,260.477 172.735,260.042 172.326 L 259.250 171.583 259.993 172.375 M138.573 172.375 L 138.083 172.917 138.625 172.427 C 138.923 172.158,139.167 171.914,139.167 171.885 C 139.167 171.757,139.029 171.870,138.573 172.375 M271.167 180.967 L 271.250 187.250 271.294 181.094 C 271.318 177.708,271.280 174.880,271.210 174.810 C 271.141 174.740,271.121 177.511,271.167 180.967 M263.751 175.501 C 263.862 175.681,264.833 176.222,264.833 176.104 C 264.833 176.065,264.566 175.875,264.240 175.683 C 263.914 175.490,263.693 175.408,263.751 175.501 M130.053 177.333 C 130.053 177.929,130.084 178.173,130.121 177.875 C 130.158 177.577,130.158 177.090,130.121 176.792 C 130.084 176.494,130.053 176.737,130.053 177.333 M131.218 178.917 C 131.219 179.467,131.250 179.672,131.287 179.372 C 131.325 179.072,131.324 178.622,131.286 178.372 C 131.248 178.122,131.217 178.367,131.218 178.917 M130.217 181.167 C 130.217 181.671,130.248 181.877,130.286 181.625 C 130.324 181.373,130.324 180.960,130.286 180.708 C 130.248 180.456,130.217 180.662,130.217 181.167 M267.409 187.833 C 267.409 191.454,267.431 192.935,267.458 191.125 C 267.485 189.315,267.485 186.352,267.458 184.542 C 267.431 182.731,267.409 184.213,267.409 187.833 M131.059 183.583 C 131.059 184.408,131.087 184.767,131.122 184.380 C 131.157 183.993,131.157 183.318,131.123 182.880 C 131.088 182.442,131.060 182.758,131.059 183.583 M130.392 185.417 C 130.392 186.242,130.420 186.600,130.455 186.213 C 130.490 185.827,130.490 185.152,130.456 184.713 C 130.422 184.275,130.393 184.592,130.392 185.417 M130.885 187.250 C 130.886 187.800,130.917 188.005,130.954 187.705 C 130.991 187.406,130.990 186.956,130.952 186.705 C 130.914 186.455,130.884 186.700,130.885 187.250 M130.533 188.750 C 130.525 189.208,130.581 189.883,130.657 190.250 L 130.795 190.917 130.798 190.333 C 130.799 190.012,130.743 189.338,130.674 188.833 L 130.547 187.917 130.533 188.750 M179.212 192.167 C 179.212 192.579,179.245 192.748,179.284 192.542 C 179.324 192.335,179.324 191.998,179.284 191.792 C 179.245 191.585,179.212 191.754,179.212 192.167 M220.712 192.333 C 220.712 192.746,220.745 192.915,220.784 192.708 C 220.824 192.502,220.824 192.165,220.784 191.958 C 220.745 191.752,220.712 191.921,220.712 192.333 M271.056 193.667 C 271.056 194.354,271.085 194.635,271.121 194.292 C 271.157 193.948,271.157 193.385,271.121 193.042 C 271.085 192.698,271.056 192.979,271.056 193.667 M165.375 193.417 C 165.377 193.783,165.411 193.914,165.451 193.706 C 165.491 193.499,165.490 193.199,165.448 193.040 C 165.406 192.880,165.374 193.050,165.375 193.417 M234.539 193.500 C 234.539 193.821,234.573 193.952,234.615 193.792 C 234.657 193.631,234.657 193.369,234.615 193.208 C 234.573 193.048,234.539 193.179,234.539 193.500 M123.890 195.250 C 123.891 195.983,123.920 196.263,123.956 195.871 C 123.991 195.479,123.990 194.879,123.954 194.537 C 123.919 194.196,123.890 194.517,123.890 195.250 M276.056 195.500 C 276.056 196.188,276.085 196.469,276.121 196.125 C 276.157 195.781,276.157 195.219,276.121 194.875 C 276.085 194.531,276.056 194.813,276.056 195.500 M204.824 196.125 L 204.250 196.750 204.875 196.176 C 205.219 195.860,205.500 195.578,205.500 195.551 C 205.500 195.423,205.359 195.543,204.824 196.125 M267.220 196.667 C 267.220 197.262,267.250 197.506,267.287 197.208 C 267.324 196.910,267.324 196.423,267.287 196.125 C 267.250 195.827,267.220 196.071,267.220 196.667 M270.709 197.917 C 270.711 198.283,270.745 198.414,270.785 198.206 C 270.824 197.999,270.823 197.699,270.781 197.540 C 270.739 197.380,270.707 197.550,270.709 197.917 M199.542 198.119 C 199.794 198.158,200.206 198.158,200.458 198.119 C 200.710 198.081,200.504 198.050,200.000 198.050 C 199.496 198.050,199.290 198.081,199.542 198.119 M124.372 201.000 C 124.372 201.321,124.406 201.452,124.448 201.292 C 124.490 201.131,124.490 200.869,124.448 200.708 C 124.406 200.548,124.372 200.679,124.372 201.000 M275.539 201.000 C 275.539 201.321,275.573 201.452,275.615 201.292 C 275.657 201.131,275.657 200.869,275.615 200.708 C 275.573 200.548,275.539 200.679,275.539 201.000 M217.000 203.000 C 216.804 203.275,216.681 203.500,216.727 203.500 C 216.773 203.500,216.971 203.275,217.167 203.000 C 217.362 202.725,217.485 202.500,217.439 202.500 C 217.394 202.500,217.196 202.725,217.000 203.000 M184.583 205.167 C 184.941 205.533,185.272 205.833,185.318 205.833 C 185.363 205.833,185.108 205.533,184.750 205.167 C 184.392 204.800,184.062 204.500,184.016 204.500 C 183.970 204.500,184.225 204.800,184.583 205.167 M215.324 205.125 L 214.750 205.750 215.375 205.176 C 215.719 204.860,216.000 204.578,216.000 204.551 C 216.000 204.423,215.859 204.543,215.324 205.125 M186.000 206.583 C 186.311 206.904,186.603 207.167,186.649 207.167 C 186.695 207.167,186.478 206.904,186.167 206.583 C 185.856 206.262,185.564 206.000,185.518 206.000 C 185.472 206.000,185.689 206.262,186.000 206.583 M213.824 206.625 L 213.250 207.250 213.875 206.676 C 214.457 206.141,214.577 206.000,214.449 206.000 C 214.422 206.000,214.140 206.281,213.824 206.625 M227.833 211.708 C 227.587 212.044,227.547 212.160,227.727 212.014 C 228.001 211.792,228.414 211.167,228.287 211.167 C 228.255 211.167,228.051 211.410,227.833 211.708 M199.125 211.956 C 199.606 211.990,200.394 211.990,200.875 211.956 C 201.356 211.923,200.963 211.895,200.000 211.895 C 199.037 211.895,198.644 211.923,199.125 211.956 M175.417 215.667 C 176.238 216.492,176.947 217.167,176.993 217.167 C 177.039 217.167,176.405 216.492,175.583 215.667 C 174.762 214.842,174.053 214.167,174.007 214.167 C 173.961 214.167,174.595 214.842,175.417 215.667 M224.413 215.708 L 222.917 217.250 224.458 215.753 C 225.890 214.364,226.076 214.167,225.955 214.167 C 225.930 214.167,225.236 214.860,224.413 215.708 M183.667 221.748 C 183.667 221.862,184.687 222.368,184.763 222.292 C 184.800 222.256,184.568 222.102,184.248 221.949 C 183.928 221.797,183.667 221.706,183.667 221.748 M197.460 225.785 C 197.668 225.824,197.968 225.823,198.127 225.781 C 198.286 225.739,198.117 225.707,197.750 225.709 C 197.383 225.711,197.253 225.745,197.460 225.785 M201.960 225.785 C 202.168 225.824,202.468 225.823,202.627 225.781 C 202.786 225.739,202.617 225.707,202.250 225.709 C 201.883 225.711,201.753 225.745,201.960 225.785 M133.750 229.000 C 133.892 229.275,134.046 229.500,134.092 229.500 C 134.138 229.500,134.059 229.275,133.917 229.000 C 133.774 228.725,133.621 228.500,133.575 228.500 C 133.529 228.500,133.608 228.725,133.750 229.000 M255.073 234.042 L 254.583 234.583 255.125 234.094 C 255.630 233.638,255.743 233.500,255.615 233.500 C 255.586 233.500,255.342 233.744,255.073 234.042 M168.813 234.785 C 168.352 235.216,167.898 235.723,167.803 235.910 C 167.709 236.097,167.868 235.972,168.156 235.632 C 168.444 235.292,168.957 234.785,169.295 234.507 C 169.633 234.228,169.851 234.000,169.781 234.000 C 169.710 234.000,169.275 234.353,168.813 234.785 M231.250 235.000 C 231.701 235.458,232.108 235.833,232.154 235.833 C 232.200 235.833,231.868 235.458,231.417 235.000 C 230.965 234.542,230.558 234.167,230.513 234.167 C 230.467 234.167,230.799 234.542,231.250 235.000 M178.000 234.552 C 178.000 234.581,178.244 234.825,178.542 235.094 L 179.083 235.583 178.594 235.042 C 178.138 234.537,178.000 234.423,178.000 234.552 M252.247 237.042 L 250.417 238.917 252.292 237.086 C 254.033 235.386,254.242 235.167,254.122 235.167 C 254.098 235.167,253.254 236.010,252.247 237.042 M249.798 239.129 C 249.662 239.287,249.496 239.529,249.429 239.667 C 249.363 239.804,249.460 239.745,249.645 239.534 C 249.830 239.324,250.030 239.162,250.088 239.173 C 250.277 239.211,250.360 239.036,250.200 238.937 C 250.115 238.884,249.933 238.971,249.798 239.129 M195.000 241.750 C 194.595 242.162,194.301 242.500,194.347 242.500 C 194.393 242.500,194.762 242.162,195.167 241.750 C 195.572 241.338,195.865 241.000,195.819 241.000 C 195.774 241.000,195.405 241.338,195.000 241.750 M204.826 241.708 C 205.517 242.444,205.667 242.577,205.667 242.451 C 205.667 242.425,205.310 242.068,204.875 241.660 L 204.083 240.917 204.826 241.708 M143.660 242.542 C 144.350 243.278,144.500 243.410,144.500 243.285 C 144.500 243.258,144.144 242.902,143.708 242.493 L 142.917 241.750 143.660 242.542 M256.242 242.542 L 255.583 243.250 256.292 242.591 C 256.950 241.978,257.077 241.833,256.950 241.833 C 256.923 241.833,256.605 242.152,256.242 242.542 M220.167 242.954 C 220.167 243.051,220.321 243.307,220.510 243.523 L 220.853 243.917 220.560 243.417 C 220.175 242.759,220.167 242.749,220.167 242.954 M253.828 245.125 L 252.917 246.083 253.875 245.172 C 254.402 244.671,254.833 244.240,254.833 244.214 C 254.833 244.090,254.674 244.235,253.828 245.125 M145.333 244.385 C 145.333 244.414,145.577 244.658,145.875 244.927 L 146.417 245.417 145.927 244.875 C 145.471 244.370,145.333 244.257,145.333 244.385 M193.050 246.667 C 193.050 247.171,193.081 247.377,193.119 247.125 C 193.158 246.873,193.158 246.460,193.119 246.208 C 193.081 245.956,193.050 246.162,193.050 246.667 M206.883 246.667 C 206.883 247.171,206.915 247.377,206.953 247.125 C 206.991 246.873,206.991 246.460,206.953 246.208 C 206.915 245.956,206.883 246.162,206.883 246.667 M148.583 247.500 C 148.941 247.867,149.272 248.167,149.318 248.167 C 149.363 248.167,149.108 247.867,148.750 247.500 C 148.392 247.133,148.062 246.833,148.016 246.833 C 147.970 246.833,148.225 247.133,148.583 247.500 M251.242 247.542 L 250.583 248.250 251.292 247.591 C 251.950 246.978,252.077 246.833,251.950 246.833 C 251.923 246.833,251.605 247.152,251.242 247.542 M154.833 252.561 C 154.833 252.606,155.058 252.804,155.333 253.000 C 155.608 253.196,155.833 253.319,155.833 253.273 C 155.833 253.227,155.608 253.029,155.333 252.833 C 155.058 252.638,154.833 252.515,154.833 252.561 M199.625 253.618 C 199.831 253.657,200.169 253.657,200.375 253.618 C 200.581 253.578,200.412 253.545,200.000 253.545 C 199.588 253.545,199.419 253.578,199.625 253.618 M161.667 257.075 C 161.667 257.121,161.892 257.274,162.167 257.417 C 162.442 257.559,162.667 257.638,162.667 257.592 C 162.667 257.546,162.442 257.392,162.167 257.250 C 161.892 257.108,161.667 257.029,161.667 257.075 M237.792 257.262 C 237.169 257.600,237.207 257.741,237.833 257.417 C 238.108 257.274,238.333 257.123,238.333 257.079 C 238.333 256.972,238.315 256.978,237.792 257.262 M236.625 257.929 C 236.002 258.267,236.040 258.407,236.667 258.083 C 236.942 257.941,237.167 257.789,237.167 257.746 C 237.167 257.638,237.149 257.645,236.625 257.929 M189.875 266.782 C 190.035 266.823,190.298 266.823,190.458 266.782 C 190.619 266.740,190.487 266.705,190.167 266.705 C 189.846 266.705,189.715 266.740,189.875 266.782 M209.542 266.782 C 209.702 266.823,209.965 266.823,210.125 266.782 C 210.285 266.740,210.154 266.705,209.833 266.705 C 209.512 266.705,209.381 266.740,209.542 266.782 M195.208 267.288 C 195.552 267.324,196.115 267.324,196.458 267.288 C 196.802 267.252,196.521 267.223,195.833 267.223 C 195.146 267.223,194.865 267.252,195.208 267.288 M203.542 267.288 C 203.885 267.324,204.448 267.324,204.792 267.288 C 205.135 267.252,204.854 267.223,204.167 267.223 C 203.479 267.223,203.198 267.252,203.542 267.288 " stroke="none" fill="#cf6048" fill-rule="evenodd"></path></g></svg>