<?xml version="1.0" ?><svg style="enable-background:new 0 0 48 48;" version="1.1" viewBox="0 0 48 48" xml:space="preserve" xmlns="http://www.w3.org/2000/svg" xmlns:xlink="http://www.w3.org/1999/xlink"><g id="Padding__x26__Artboard"/><g id="Icons"><g><g><path d="M40.46766,12.22563v19.06995c0,0.64001-0.52002,1.16004-1.16003,1.16004H27.50764     l-0.03998,0.04999l-0.80005,1.08002l-2.37,3.23999c-0.09998,0.14001-0.44,0.15002-0.53998,0.02002l-0.46002-0.64001     l-2.69-3.71002l-0.02997-0.03998H8.74763c-0.64001,0-1.15997-0.52002-1.15997-1.16004V12.22563     c0-0.64001,0.51996-1.16003,1.15997-1.16003h30.56C39.94764,11.0656,40.46766,11.58562,40.46766,12.22563z" style="fill:#FFFFFF;"/><path d="M39.96766,32.24559c-0.19,0.13-0.42004,0.21002-0.66003,0.21002H27.50764l-0.03998,0.04999     l-0.80005,1.08002l-2.37,3.23999c-0.09998,0.14001-0.44,0.15002-0.53998,0.02002l-0.46002-0.64001l-2.69-3.71002     l-0.02997-0.03998H8.74763c-0.64001,0-1.15997-0.52002-1.15997-1.16004c0,0,0-19.06995,0-19.07015     c0.00005-0.25999,0.06905-0.55599,0.29303-0.71557c2.26751,0.82597,4.7175,0.97521,7.10696,1.12575     c3.3398,0.21058,6.70488,0.26906,10.0462,0.29997c3.30794,0.0306,7.37695-0.05922,10.40552,1.46311     c2.28122,1.14677,2.60021,4.41195,3.08807,6.61946c0.57697,2.61074,1.08115,5.32072,1.21018,7.99747     C39.81764,30.67559,40.13765,31.34563,39.96766,32.24559z" style="fill:#B9D4F8;"/><path d="M38.54761,32.45683c-2.14219-0.0078-4.2844-0.00859-6.42659-0.00236     c-1.61039,0.00469-4.11716-0.58165-5.18157,0.76395c-0.92018,1.16327-1.79794,2.38822-2.64184,3.60719     c-0.09998,0.14001-0.44,0.15002-0.53998,0.02002l-0.46002-0.64001l-2.69-3.71002l-0.02997-0.03998H8.74763     c-0.64001,0-1.15997-0.52002-1.15997-1.16004c0-5.26437,0.01036-10.52884,0.00011-15.7932     c-0.002-1.02715,0.00356-2.05431,0.00834-3.08169c0.00158-0.33997-0.20446-0.7434,0.11587-0.91083     c0.15666,0.97765,0.23847,2.03154,0.32203,3.03089c0.09078,1.08583,0.245,2.16635,0.46114,3.23431     c0.39753,1.96431,1.05334,3.80565,1.78716,5.66345c0.65625,1.66144,1.40741,3.2914,2.76543,4.5122     c2.97827,2.67733,7.17708,1.80024,10.78647,2.11088c4.95723,0.42665,9.81785,0.78372,14.58353,2.35228     C38.46106,32.42805,38.50436,32.44238,38.54761,32.45683z" style="fill:#659BDB;"/></g><path d="M22.68779,25.10484c-0.71456,0.42315-1.54888,0.66666-2.43909,0.66666    c-2.64667,0-4.79435-2.14768-4.79435-4.79435s2.14768-4.79435,4.79435-4.79435s4.79435,2.14767,4.79435,4.79435    c0,0.994-0.30339,1.91614-0.81835,2.67861l0.19561,1.72852L22.68779,25.10484" style="fill:#B9D4F8;"/><path d="M22.05593,25.41773c-0.62201,0.36834-1.65326,0.35376-2.42818,0.35376    c-1.18785,0-4.1734-1.86952-4.1734-4.1734s1.86952-4.1734,4.1734-4.1734c1.20753,0,2.42668,0.45526,3.34119,1.24339    c0.68785,0.5928,1.11132,1.44196,1.29701,2.32132C24.4438,21.83169,24.50439,22.95562,24,23.70245l0.42031,1.68183    l-2.66936-0.1931" style="fill:#659BDB;"/><path d="    M16.90841,20.21288c0-1.49817,1.56483-2.78819,3.063-2.78819" style="fill:none;stroke:#1B4A9A;stroke-width:0.7;stroke-linecap:round;stroke-linejoin:round;stroke-miterlimit:10;"/><path d="    M22.68779,25.10484c-0.71456,0.42315-1.54888,0.66666-2.43909,0.66666c-2.64667,0-4.79435-2.14768-4.79435-4.79435    s2.14768-4.79435,4.79435-4.79435s4.79435,2.14767,4.79435,4.79435c0,0.994-0.30339,1.91614-0.81835,2.67861l0.19561,1.72852    L22.68779,25.10484" style="fill:none;stroke:#1B4A9A;stroke-width:0.7;stroke-linecap:round;stroke-linejoin:round;stroke-miterlimit:10;"/><path d="M31.52612,18.06309h-0.02393l-1.35547,0.73145l-0.20361-0.80371l1.70264-0.91162h0.8999v7.7959    h-1.01953C31.52612,24.87511,31.52612,18.06309,31.52612,18.06309z" style="fill:#1B4A9A;"/><path d="    M20.55,32.45225l0.03,0.04l3.15001,4.35001c0.10272,0.13467,0.44284,0.12592,0.54001-0.02002L27.44,32.50225l0.04-0.05h11.8    c0.64,0,1.16-0.52,1.16-1.16v-19.07c0-0.64-0.52-1.16-1.16-1.16H8.72c-0.64,0-1.16,0.52-1.16,1.16v19.07    c0,0.64,0.52,1.16,1.16,1.16H20.55z" style="fill:none;stroke:#1B4A9A;stroke-width:0.7;stroke-linecap:round;stroke-linejoin:round;stroke-miterlimit:10;"/></g></g></svg>