<svg height="512pt" viewBox="0 0 512 512" width="512pt" xmlns="http://www.w3.org/2000/svg"><path d="m426.667969 128c0-11.78125-9.550781-21.332031-21.335938-21.332031h-298.664062c-11.785157 0-21.335938 9.550781-21.335938 21.332031v42.667969h341.335938zm0 0" fill="#64a6f0"/><path d="m85.332031 170.667969v245.332031c0 11.78125 9.550781 21.332031 21.335938 21.332031h298.664062c11.785157 0 21.335938-9.550781 21.335938-21.332031v-245.332031zm0 0" fill="#f8fafd"/><path d="m234.667969 224h42.664062v42.667969h-42.664062zm0 0" fill="#ffca6b"/><path d="m138.667969 224h42.664062v42.667969h-42.664062zm0 0" fill="#ffca6b"/><path d="m330.667969 224h42.664062v42.667969h-42.664062zm0 0" fill="#ffca6b"/><path d="m234.667969 330.667969h42.664062v42.664062h-42.664062zm0 0" fill="#ffca6b"/><path d="m138.667969 330.667969h42.664062v42.664062h-42.664062zm0 0" fill="#ffca6b"/><path d="m501.332031 330.667969v149.332031c-.035156 11.765625-9.566406 21.296875-21.332031 21.332031h-128c-11.765625-.035156-21.296875-9.566406-21.332031-21.332031v-149.332031c.035156-11.769531 9.566406-21.300781 21.332031-21.335938h21.332031v-42.664062l42.667969 42.664062h64c11.765625.035157 21.296875 9.566407 21.332031 21.335938zm0 0" fill="#5ce0bf"/><path d="m181.332031 32v149.332031c-.035156 11.769531-9.566406 21.300781-21.332031 21.335938h-21.332031v42.664062l-42.667969-42.664062h-64c-11.765625-.035157-21.296875-9.566407-21.332031-21.335938v-149.332031c.035156-11.765625 9.566406-21.296875 21.332031-21.332031h128c11.765625.035156 21.296875 9.566406 21.332031 21.332031zm0 0" fill="#5ce0bf"/><g fill="#474c54"><path d="m96 416v-181.332031h-21.332031v181.332031c0 17.671875 14.324219 32 32 32h181.332031v-21.332031h-181.332031c-5.890625 0-10.667969-4.777344-10.667969-10.667969zm0 0"/><path d="m416 277.332031h21.332031v-149.332031c0-17.671875-14.324219-32-32-32h-32v-21.332031h-21.332031v21.332031h-85.332031v-21.332031h-21.335938v21.332031h-32v21.332031h32v21.335938h21.335938v-21.335938h85.332031v21.335938h21.332031v-21.335938h32c5.890625 0 10.667969 4.777344 10.667969 10.667969v32h-202.667969v21.332031h202.667969zm0 0"/><path d="m192 234.667969h-21.332031v21.332031h-10.667969v21.332031h21.332031c5.890625 0 10.667969-4.773437 10.667969-10.664062zm0 0"/><path d="m277.332031 213.332031h-42.664062c-5.890625 0-10.667969 4.777344-10.667969 10.667969v42.667969c0 5.890625 4.777344 10.664062 10.667969 10.664062h42.664062c5.890625 0 10.667969-4.773437 10.667969-10.664062v-42.667969c0-5.890625-4.777344-10.667969-10.667969-10.667969zm-10.664062 42.667969h-21.335938v-21.332031h21.335938zm0 0"/><path d="m330.667969 213.332031c-5.890625 0-10.667969 4.777344-10.667969 10.667969v42.667969c0 5.890625 4.777344 10.664062 10.667969 10.664062h10.664062v-42.664062h42.667969v-10.667969c0-5.890625-4.777344-10.667969-10.667969-10.667969zm0 0"/><path d="m181.332031 320h-42.664062c-5.890625 0-10.667969 4.777344-10.667969 10.667969v42.664062c0 5.890625 4.777344 10.667969 10.667969 10.667969h42.664062c5.890625 0 10.667969-4.777344 10.667969-10.667969v-42.664062c0-5.890625-4.777344-10.667969-10.667969-10.667969zm-10.664062 42.667969h-21.335938v-21.335938h21.335938zm0 0"/><path d="m277.332031 320h-42.664062c-5.890625 0-10.667969 4.777344-10.667969 10.667969v42.664062c0 5.890625 4.777344 10.667969 10.667969 10.667969h42.664062c5.890625 0 10.667969-4.777344 10.667969-10.667969v-42.664062c0-5.890625-4.777344-10.667969-10.667969-10.667969zm-10.664062 42.667969h-21.335938v-21.335938h21.335938zm0 0"/><path d="m131.125 252.875c2 2 4.714844 3.125 7.542969 3.125 1.402343.003906 2.789062-.269531 4.085937-.8125 3.984375-1.652344 6.582032-5.539062 6.578125-9.855469v-32h10.667969c17.671875 0 32-14.324219 32-32v-149.332031c0-17.671875-14.328125-32-32-32h-128c-17.671875 0-32 14.328125-32 32v149.332031c0 17.675781 14.328125 32 32 32h59.585938zm-109.792969-71.542969v-149.332031c0-5.890625 4.777344-10.667969 10.667969-10.667969h128c5.890625 0 10.667969 4.777344 10.667969 10.667969v149.332031c0 5.890625-4.777344 10.667969-10.667969 10.667969h-21.332031c-5.890625 0-10.667969 4.777344-10.667969 10.667969v16.917969l-24.457031-24.460938c-2-2-4.714844-3.125-7.542969-3.125h-64c-5.890625 0-10.667969-4.777344-10.667969-10.667969zm0 0"/><path d="m42.667969 53.332031h106.664062v21.335938h-106.664062zm0 0"/><path d="m42.667969 96h106.664062v21.332031h-106.664062zm0 0"/><path d="m42.667969 138.667969h106.664062v21.332031h-106.664062zm0 0"/><path d="m480 298.667969h-59.585938l-39.539062-39.542969c-3.050781-3.050781-7.636719-3.960938-11.625-2.3125-3.984375 1.652344-6.582031 5.539062-6.582031 9.855469v32h-10.667969c-17.671875 0-32 14.324219-32 32v149.332031c0 17.671875 14.328125 32 32 32h128c17.671875 0 32-14.328125 32-32v-149.332031c0-17.675781-14.328125-32-32-32zm10.667969 181.332031c0 5.890625-4.777344 10.667969-10.667969 10.667969h-128c-5.890625 0-10.667969-4.777344-10.667969-10.667969v-149.332031c0-5.890625 4.777344-10.667969 10.667969-10.667969h21.332031c5.890625 0 10.667969-4.777344 10.667969-10.667969v-16.917969l24.457031 24.460938c2 2 4.714844 3.125 7.542969 3.125h64c5.890625 0 10.667969 4.777344 10.667969 10.667969zm0 0"/><path d="m362.667969 437.332031h106.664062v21.335938h-106.664062zm0 0"/><path d="m362.667969 394.667969h106.664062v21.332031h-106.664062zm0 0"/><path d="m362.667969 352h106.664062v21.332031h-106.664062zm0 0"/></g></svg>