<?xml version="1.0" encoding="iso-8859-1"?>
<!-- Generator: Adobe Illustrator 19.0.0, SVG Export Plug-In . SVG Version: 6.00 Build 0)  -->
<svg version="1.1" id="Capa_1" xmlns="http://www.w3.org/2000/svg" xmlns:xlink="http://www.w3.org/1999/xlink" x="0px" y="0px"
	 viewBox="0 0 512 512" style="enable-background:new 0 0 512 512;" xml:space="preserve">
<g>
	<path style="fill:#95ADC0;" d="M362.453,232.747c9.763-5.743,20.887-8.764,32.213-8.747c35.346,0,64,28.654,64,64v32
		c-0.002,27.104-17.103,51.259-42.667,60.267v14.4c17.304,8.243,35.118,15.369,53.333,21.333c32,10.667,32,32,32,32v64H288v-64
		c0,0,0-21.333,32-32c18.215-5.964,36.03-13.09,53.333-21.333v-14.4c-25.564-9.008-42.664-33.162-42.667-60.267v-32
		C330.684,265.241,342.787,244.202,362.453,232.747L362.453,232.747z"/>
	<path style="fill:#95ADC0;" d="M224,501.333V512H10.667v-64c0,0,0-21.333,32-32c18.215-5.964,36.03-13.09,53.333-21.333v-14.4
		C70.436,371.259,53.336,347.105,53.333,320v-32c0-35.346,28.654-64,64-64c35.319,0.065,63.935,28.681,64,64v32
		c-0.002,27.104-17.103,51.259-42.667,60.267v14.4C155.97,402.91,173.785,410.036,192,416c32,10.667,32,32,32,32V501.333z"/>
</g>
<path style="fill:#D9EEF7;" d="M373.333,380.267v14.4C356.03,402.91,338.215,410.036,320,416c-32,10.667-32,32-32,32v53.333h-64V448
	c0,0,0-21.333-32-32c-18.215-5.964-36.03-13.09-53.333-21.333v-14.4c25.564-9.008,42.664-33.162,42.667-60.267v-32
	c-0.017-22.76-12.12-43.798-31.787-55.253c0.853-5.44,5.547-21.333,31.787-30.08c18.215-5.964,36.03-13.09,53.333-21.333v-14.4
	c-25.564-9.008-42.664-33.162-42.667-60.267v-32c0-35.346,28.654-64,64-64s64,28.654,64,64v32
	c-0.002,27.104-17.103,51.259-42.667,60.267v14.4c17.304,8.243,35.118,15.369,53.333,21.333c26.24,8.747,30.933,24.64,31.787,30.08
	c-19.666,11.456-31.769,32.494-31.787,55.253v32C330.669,347.105,347.77,371.259,373.333,380.267z"/>
<g>
	<path style="fill:#4C5B66;" d="M472.704,405.877c-15.647-5.19-31.013-11.189-46.037-17.973v-0.512
		c26.035-12.349,42.64-38.577,42.667-67.392v-32c0.178-41.06-32.964-74.49-74.024-74.668c-9.179-0.04-18.287,1.621-26.862,4.897
		c-7.759-12.651-20.075-21.845-34.411-25.685c-15.647-5.19-31.013-11.189-46.037-17.973v-0.512
		c26.035-12.349,42.64-38.577,42.667-67.392v-32C330.667,33.429,297.237,0,256,0s-74.667,33.429-74.667,74.667v32
		c0.027,28.815,16.632,55.043,42.667,67.392v0.512c-15.024,6.785-30.391,12.784-46.037,17.973
		c-14.338,3.841-26.657,13.034-34.421,25.685c-38.349-14.657-81.319,4.549-95.976,42.898c-3.279,8.578-4.939,17.69-4.898,26.873v32
		c0.027,28.815,16.632,55.043,42.667,67.392v0.512c-15.024,6.785-30.391,12.784-46.037,17.973C0.448,418.827,0,446.816,0,448v64
		h21.333v-63.712c0-0.576,1.067-14.293,24.715-22.165c18.692-6.098,36.97-13.398,54.72-21.856c3.634-1.816,5.921-5.538,5.899-9.6
		v-14.4c-0.001-4.525-2.857-8.556-7.125-10.059C78.264,362.679,64.03,342.571,64,320v-32c0.035-29.441,23.893-53.298,53.333-53.333
		c9.433-0.017,18.698,2.499,26.827,7.285c16.363,9.576,26.444,27.089,26.507,46.048v32c-0.03,22.57-14.264,42.678-35.541,50.208
		c-4.268,1.502-7.124,5.534-7.125,10.059v14.4c-0.022,4.062,2.265,7.784,5.899,9.6c17.752,8.476,36.034,15.795,54.731,21.909
		c23.637,7.819,24.704,21.536,24.704,21.824v64h21.333v-64c0-1.184-0.448-29.173-39.296-42.123
		c-15.647-5.19-31.013-11.189-46.037-17.973v-0.512C175.368,375.043,191.973,348.815,192,320v-32
		c-0.078-23.37-11.061-45.364-29.696-59.467c5.236-7.864,13.228-13.481,22.4-15.744c18.696-6.097,36.978-13.398,54.731-21.856
		c3.634-1.816,5.921-5.538,5.899-9.6v-14.4c-0.001-4.525-2.857-8.556-7.125-10.059c-21.278-7.53-35.512-27.638-35.541-50.208v-32
		c0-29.455,23.878-53.333,53.333-53.333c29.455,0,53.333,23.878,53.333,53.333v32c-0.03,22.57-14.264,42.678-35.541,50.208
		c-4.268,1.502-7.124,5.534-7.125,10.059v14.4c-0.002,4.043,2.282,7.739,5.899,9.547c17.752,8.476,36.034,15.795,54.731,21.909
		c9.188,2.248,17.189,7.882,22.4,15.776C331.073,242.664,320.091,264.642,320,288v32c0.027,28.815,16.632,55.043,42.667,67.392
		v0.512c-15.024,6.785-30.391,12.784-46.037,17.973c-38.848,12.949-39.296,40.939-39.296,42.123v64h21.333v-63.712
		c0-0.576,1.067-14.293,24.715-22.165c18.692-6.098,36.97-13.398,54.72-21.856c3.634-1.816,5.921-5.538,5.899-9.6v-14.4
		c-0.001-4.525-2.857-8.556-7.125-10.059c-21.278-7.529-35.512-27.638-35.541-50.208v-32c0.066-18.975,10.165-36.499,26.549-46.069
		c8.117-4.775,17.367-7.284,26.784-7.264C424.107,234.702,447.965,258.56,448,288v32c-0.03,22.57-14.264,42.679-35.541,50.208
		c-4.268,1.502-7.124,5.534-7.125,10.059v14.4c-0.022,4.062,2.265,7.784,5.899,9.6c17.752,8.476,36.034,15.795,54.731,21.909
		c23.637,7.819,24.704,21.536,24.704,21.824v64H512v-64C512,446.816,511.552,418.827,472.704,405.877L472.704,405.877z"/>
	<path style="fill:#4C5B66;" d="M245.333,288h21.333v21.333h-21.333V288z"/>
	<path style="fill:#4C5B66;" d="M245.333,245.333h21.333v21.333h-21.333V245.333z"/>
	<path style="fill:#4C5B66;" d="M245.333,330.667h21.333V352h-21.333V330.667z"/>
	<path style="fill:#4C5B66;" d="M160,458.667h21.333V512H160V458.667z"/>
	<path style="fill:#4C5B66;" d="M53.333,458.667h21.333V512H53.333V458.667z"/>
	<path style="fill:#4C5B66;" d="M330.667,458.667H352V512h-21.333V458.667z"/>
	<path style="fill:#4C5B66;" d="M437.333,458.667h21.333V512h-21.333V458.667z"/>
</g>
<g>
</g>
<g>
</g>
<g>
</g>
<g>
</g>
<g>
</g>
<g>
</g>
<g>
</g>
<g>
</g>
<g>
</g>
<g>
</g>
<g>
</g>
<g>
</g>
<g>
</g>
<g>
</g>
<g>
</g>
</svg>
