<?xml version="1.0" encoding="iso-8859-1"?>
<!-- Generator: Adobe Illustrator 21.0.0, SVG Export Plug-In . SVG Version: 6.00 Build 0)  -->
<svg xmlns="http://www.w3.org/2000/svg" xmlns:xlink="http://www.w3.org/1999/xlink" version="1.1" id="Capa_1" x="0px" y="0px" viewBox="0 0 512 512" style="enable-background:new 0 0 512 512;" xml:space="preserve" width="512" height="512">
<g>
	<path style="fill:#EBEEF2;" d="M368.128,31.11v449.78c0,13.039-10.571,23.61-23.61,23.61H33.515   c-13.039,0-23.61-10.571-23.61-23.61V122.334L124.738,7.5h219.78C357.558,7.5,368.128,18.071,368.128,31.11z"/>
	<path style="fill:#C9CDD3;" d="M344.519,7.5h-25.211c13.039,0,23.61,10.571,23.61,23.61v449.78c0,13.039-10.57,23.61-23.61,23.61   h25.211c13.039,0,23.61-10.571,23.61-23.61V31.11C368.128,18.071,357.558,7.5,344.519,7.5z"/>
	<path style="fill:#C9CDD3;" d="M124.738,7.5L9.905,122.333h94.129c11.434,0,20.704-9.269,20.704-20.704V7.5z"/>
	<path style="fill:#6FBC89;" d="M433.908,187.424c-1.817-5.511-6.443-9.655-12.176-10.555c-17.469-2.741-35.37-4.179-53.609-4.179   c-18.24,0-36.14,1.438-53.609,4.179c-5.732,0.899-10.359,5.044-12.176,10.555c-9.51,28.852-31.115,52.202-58.828,64.027   c-6.187,2.64-9.978,8.986-9.273,15.675c8.197,77.739,58.842,148.771,128.124,177.035c3.689,1.505,7.834,1.505,11.523,0   c69.282-28.264,119.928-99.296,128.124-177.035c0.705-6.689-3.086-13.036-9.273-15.675   C465.023,239.626,443.418,216.275,433.908,187.424z"/>
	<path style="fill:#40904B;" d="M492.736,251.45c-27.713-11.824-49.318-35.175-58.828-64.027   c-1.817-5.511-6.443-9.655-12.176-10.555c-17.469-2.741-35.37-4.179-53.609-4.179c-4.928,0-9.829,0.114-14.706,0.321   c13.173,0.56,26.154,1.858,38.903,3.858c5.732,0.899,10.359,5.044,12.176,10.555c9.51,28.852,31.115,52.202,58.828,64.027   c6.187,2.64,9.978,8.986,9.273,15.675c-7.839,74.353-54.513,142.564-119.18,173.096c2.946,1.391,5.926,2.708,8.944,3.939   c3.689,1.505,7.834,1.505,11.523,0c69.282-28.264,119.928-99.296,128.124-177.035C502.714,260.437,498.923,254.09,492.736,251.45z"/>
	<path style="fill:#F6BB93;" d="M338.711,247.45v10.694c0,16.244,13.168,29.412,29.412,29.412h0   c16.244,0,29.412-13.168,29.412-29.412V247.45c0-16.244-13.168-29.412-29.412-29.412h0   C351.879,218.039,338.711,231.207,338.711,247.45z"/>
	<path style="fill:#52668D;" d="M412.69,306.264c-3.479-5.48-10.754-7.172-16.22-3.67c-8.191,5.248-17.918,8.296-28.347,8.296   c-10.43,0-20.156-3.049-28.348-8.296c-5.466-3.502-12.74-1.811-16.22,3.67c-5.178,8.156-8.18,17.828-8.18,28.205v22.786   c0,6.852,5.555,12.407,12.407,12.407h80.679c6.852,0,12.407-5.555,12.407-12.407v-22.786   C420.87,324.092,417.868,314.42,412.69,306.264z"/>
	<path style="fill:#EBEEF2;" d="M368.123,310.891c-9.081,0-17.627-2.315-25.092-6.376l20.041,33.014c2.301,3.79,7.801,3.79,10.102,0   l20.041-33.014C385.75,308.576,377.204,310.891,368.123,310.891z"/>
	<g>
		<path d="M137.002,135.66c-4.142,0-7.5,3.357-7.5,7.5s3.358,7.5,7.5,7.5h104.029c4.142,0,7.5-3.357,7.5-7.5s-3.358-7.5-7.5-7.5    H137.002z"/>
		<path d="M368.123,295.056c20.353,0,36.912-16.559,36.912-36.912V247.45c0-20.354-16.559-36.912-36.912-36.912    s-36.912,16.559-36.912,36.912v10.693C331.211,278.497,347.77,295.056,368.123,295.056z M346.211,247.45    c0-12.082,9.83-21.912,21.912-21.912s21.912,9.83,21.912,21.912v10.693c0,12.082-9.83,21.912-21.912,21.912    s-21.912-9.83-21.912-21.912V247.45z"/>
		<path d="M317.223,302.244c-6.115,9.633-9.347,20.775-9.347,32.225v22.786c0,10.977,8.93,19.907,19.907,19.907h80.68    c10.977,0,19.907-8.931,19.907-19.907v-22.786c0-11.449-3.232-22.592-9.347-32.225h0c-5.719-9.008-17.639-11.705-26.597-5.966    c-14.822,9.5-33.83,9.465-48.604,0C334.894,290.559,322.96,293.208,317.223,302.244z M376.361,317.826l-8.238,13.57l-8.238-13.57    C365.158,318.553,370.708,318.605,376.361,317.826z M333.533,308.267c1.518,0,2.056,0.608,4.103,1.815l19.025,31.339    c2.452,4.039,6.737,6.451,11.462,6.451s9.01-2.412,11.462-6.451l19.025-31.339c1.935-1.141,2.965-2.177,5.019-1.715    c1.135,0.251,2.104,0.932,2.73,1.917h0c10.311,16.243,5.994,30.295,7.011,46.972c0,2.706-2.201,4.907-4.907,4.907h-80.68    c-2.706,0-4.907-2.201-4.907-4.907v-22.786c0-8.597,2.424-16.96,7.011-24.186C330.711,308.985,332.104,308.267,333.533,308.267z"/>
		<path d="M495.679,244.552c-25.916-11.058-45.834-32.735-54.648-59.476c-2.737-8.307-9.687-14.291-18.136-15.616    c-18.058-2.834-36.485-4.271-54.771-4.271s-36.714,1.437-54.771,4.271c-8.449,1.325-15.399,7.31-18.136,15.616    c-3.607,10.943-9.074,21.038-16.051,29.904H62.659c-4.142,0-7.5,3.357-7.5,7.5s3.358,7.5,7.5,7.5h201.853    c-7.172,5.92-15.218,10.848-23.945,14.571c-9.302,3.969-14.843,13.356-13.788,23.36c0.298,2.827,0.65,5.646,1.055,8.458H62.659    c-4.142,0-7.5,3.357-7.5,7.5s3.358,7.5,7.5,7.5h167.854c3.399,15.919,8.509,31.48,15.222,46.399H62.659    c-4.142,0-7.5,3.357-7.5,7.5s3.358,7.5,7.5,7.5h190.484c4.802,8.906,10.199,17.533,16.165,25.812    c5.228,7.254,10.809,14.124,16.707,20.579H62.659c-4.142,0-7.5,3.357-7.5,7.5s3.358,7.5,7.5,7.5h238.453    c17.545,15.803,37.262,28.315,58.416,36.945c0.365,0.149,0.732,0.287,1.101,0.417v29.368c0,8.883-7.227,16.11-16.11,16.11h-311    c-8.883,0-16.11-7.228-16.11-16.11V129.833h86.625c15.552,0,28.204-12.652,28.204-28.204V15h212.28    c8.883,0,16.11,7.228,16.11,16.11v111.58c0,4.143,3.358,7.5,7.5,7.5s7.5-3.357,7.5-7.5V31.111c0-17.154-13.956-31.11-31.11-31.11    H124.801c-0.391-0.003-0.78,0.024-1.165,0.082c-0.005,0-0.009,0.001-0.014,0.002c-0.055,0.008-0.111,0.017-0.166,0.027    c-0.004,0.001-0.007,0.001-0.011,0.002c-0.117,0.021-0.233,0.044-0.348,0.07c-0.007,0.001-0.013,0.003-0.02,0.004    c-0.053,0.012-0.105,0.025-0.158,0.038c-0.004,0.001-0.009,0.002-0.013,0.003c-0.115,0.029-0.229,0.061-0.343,0.095    c-0.004,0.001-0.009,0.003-0.013,0.004c-0.171,0.052-0.341,0.111-0.509,0.175c-0.002,0.001-0.005,0.002-0.007,0.003    c-0.957,0.369-1.845,0.938-2.6,1.692L4.602,117.03c-1.493,1.493-2.258,3.51-2.193,5.544V480.89c0,17.154,13.956,31.11,31.11,31.11    h311c17.154,0,31.11-13.956,31.11-31.11v-29.372c0.365-0.128,0.728-0.265,1.089-0.413c42.943-17.52,80.068-51.26,104.537-95.005    c2.022-3.615,0.731-8.185-2.884-10.207c-3.614-2.021-8.185-0.73-10.207,2.885c-22.816,40.79-57.305,72.198-97.112,88.438    c-1.861,0.76-3.996,0.76-5.857,0c-20.148-8.22-38.912-20.277-55.552-35.575c-0.305-0.338-0.64-0.648-1.001-0.926    c-9.868-9.197-18.975-19.54-27.165-30.904c-6.303-8.746-11.926-17.904-16.836-27.385c-0.164-0.399-0.36-0.78-0.587-1.141    c-9.423-18.459-16.15-38.121-19.93-58.331c-0.037-0.308-0.094-0.609-0.167-0.904c-0.95-5.205-1.705-10.445-2.26-15.71    c-0.359-3.412,1.552-6.624,4.758-7.991c29.879-12.748,52.844-37.744,63.008-68.577c0.969-2.938,3.35-5.043,6.215-5.493    c17.291-2.713,34.936-4.089,52.446-4.089s35.155,1.376,52.446,4.089c2.865,0.45,5.247,2.555,6.215,5.493    c10.164,30.833,33.129,55.829,63.008,68.577c3.206,1.367,5.117,4.579,4.758,7.991c-2.014,19.102-6.701,38.026-13.931,56.248    c-1.528,3.85,0.355,8.209,4.205,9.737c3.849,1.522,8.209-0.355,9.737-4.205c7.734-19.491,12.749-39.748,14.906-60.208    C510.522,257.908,504.981,248.521,495.679,244.552z M104.034,114.833H28.012l89.226-89.226v76.022    C117.239,108.91,111.315,114.833,104.034,114.833z"/>
	</g>
</g>















</svg>
