<svg height="512pt" viewBox="0 0 512 512" width="512pt" xmlns="http://www.w3.org/2000/svg"><path d="m160 10.667969v85.332031h-85.332031zm0 0" fill="#2ebc70"/><path d="m437.332031 106.667969v32l-21.332031 53.332031v309.332031h-85.332031c11.765625-.035156 21.296875-9.566406 21.332031-21.332031v-213.332031h-277.332031v-170.667969h85.332031v-85.332031h234.667969c23.5625 0 42.664062 19.101562 42.664062 42.664062zm0 0" fill="#35dc86"/><path d="m437.332031 138.667969 21.335938 53.332031h-42.667969zm0 0" fill="#a4b0c0"/><path d="m458.667969 480v21.332031h-42.667969v-117.332031h42.667969zm0 0" fill="#a4b0c0"/><path d="m416 192h42.667969v192h-42.667969zm0 0" fill="#f1f2f2"/><path d="m352 266.667969-51.519531 51.519531c-8.007813 8-18.867188 12.488281-30.1875 12.480469h-177.917969c-11.320312.007812-22.179688-4.480469-30.1875-12.480469l-51.519531-51.519531zm0 0" fill="#f6b445"/><path d="m10.667969 480v-213.332031l51.519531 51.519531c8.007812 8 18.867188 12.488281 30.1875 12.480469h177.917969c11.320312.007812 22.179687-4.480469 30.1875-12.480469l51.519531-51.519531v213.332031c-.035156 11.765625-9.566406 21.296875-21.332031 21.332031h-298.667969c-11.765625-.035156-21.296875-9.566406-21.332031-21.332031zm0 0" fill="#fc934e"/><g fill="#474c54"><path d="m352 256h-341.332031c-5.890625 0-10.667969 4.777344-10.667969 10.667969v213.332031c0 17.671875 14.328125 32 32 32h298.667969c17.671875 0 32-14.328125 32-32v-213.332031c0-5.890625-4.777344-10.667969-10.667969-10.667969zm-25.75 21.332031-33.3125 33.3125c-6.023438 5.976563-14.160156 9.335938-22.644531 9.355469h-177.917969c-8.488281-.019531-16.621094-3.378906-22.648438-9.355469l-33.3125-33.3125zm4.417969 213.335938h-298.667969c-5.890625 0-10.667969-4.777344-10.667969-10.667969v-187.585938l33.3125 33.3125c10.03125 9.96875 23.589844 15.574219 37.730469 15.605469h177.917969c14.140625-.03125 27.695312-5.636719 37.726562-15.605469l33.3125-33.3125v187.585938c0 5.890625-4.773437 10.667969-10.664062 10.667969zm0 0"/><path d="m42.667969 448h64v21.332031h-64zm0 0"/><path d="m128 448h21.332031v21.332031h-21.332031zm0 0"/><path d="m426.667969 53.332031v53.335938h21.332031v-53.335938c-.035156-29.4375-23.894531-53.2968748-53.332031-53.332031h-234.667969c-2.828125 0-5.542969 1.125-7.542969 3.125l-85.332031 85.332031c-2 2-3.125 4.714844-3.125 7.542969v138.667969h21.332031v-128h74.667969c5.890625 0 10.667969-4.777344 10.667969-10.667969v-74.667969h224c17.671875 0 32 14.328125 32 32zm-326.253907 32 48.917969-48.917969v48.917969zm0 0"/><path d="m490.667969 373.332031v85.335938c0 5.890625-4.777344 10.664062-10.667969 10.664062h-10.667969v-277.332031c-.011719-1.355469-.28125-2.695312-.796875-3.945312l-21.335937-53.335938c-1.617188-4.054688-5.542969-6.71875-9.910157-6.71875-4.367187 0-8.292968 2.664062-9.90625 6.71875l-21.335937 53.335938c-.484375 1.257812-.730469 2.597656-.714844 3.945312v309.332031c0 5.890625 4.777344 10.667969 10.667969 10.667969h42.667969c5.890625 0 10.664062-4.777344 10.664062-10.667969v-10.664062h10.667969c17.671875 0 32-14.328125 32-32v-85.335938zm-42.667969 0h-21.332031v-170.664062h21.332031zm-5.089844-192h-11.15625l5.578125-13.949219zm-16.242187 309.335938v-96h21.332031v96zm0 0"/><path d="m181.332031 138.667969h192v21.332031h-192zm0 0"/><path d="m117.332031 192h256v21.332031h-256zm0 0"/><path d="m138.667969 138.667969h21.332031v21.332031h-21.332031zm0 0"/></g></svg>