<svg id="Layer_5" enable-background="new 0 0 64 64" height="512" viewBox="0 0 64 64" width="512" xmlns="http://www.w3.org/2000/svg"><g><path d="m21 35c7.72 0 14-6.28 14-14s-6.28-14-14-14-14 6.28-14 14 6.28 14 14 14zm-3-19c0-1.654 1.346-3 3-3s3 1.346 3 3-1.346 3-3 3-3-1.346-3-3zm4.957 5.284-1.957 2.516-1.957-2.516c.622-.182 1.277-.284 1.957-.284s1.335.102 1.957.284zm-5.779.859 2.555 3.286-1.733 2.228v4.948c-1.46-.378-2.81-1.02-4-1.878v-2.727c0-2.45 1.267-4.606 3.178-5.857zm2.822 10.806v-4.606l4.822-6.2c1.911 1.251 3.178 3.407 3.178 5.857v2.727c-1.973 1.424-4.387 2.273-7 2.273-.338 0-.669-.023-1-.051zm1-23.949c6.617 0 12 5.383 12 12 0 3.032-1.139 5.796-3 7.911v-.911c0-3.768-2.33-6.998-5.623-8.337.991-.914 1.623-2.212 1.623-3.663 0-2.757-2.243-5-5-5s-5 2.243-5 5c0 1.451.632 2.749 1.623 3.663-3.293 1.339-5.623 4.569-5.623 8.337v.911c-1.861-2.115-3-4.879-3-7.911 0-6.617 5.383-12 12-12z"/><path d="m59 7.101v-6.101h-34.279-4.721-2.721l-.869 2.606c-1.561.411-3.057 1.032-4.46 1.851l-2.461-1.23-5.262 5.262 1.23 2.461c-.819 1.403-1.44 2.899-1.851 4.46l-2.606.869v7.441l2.606.869c.411 1.561 1.032 3.057 1.851 4.46l-1.23 2.461 4.773 4.774v25.716h50v-6.221c.582-.263 1.056-.745 1.288-1.364l2.712-7.234v-36.181c0-2.414-1.721-4.434-4-4.899zm2 4.899v3h-6v-3c0-1.654 1.346-3 3-3s3 1.346 3 3zm-2 35v-26h2v26zm-4-26h2v26h-2zm0-2v-2h6v2zm-47.554 10.473c-.949-1.514-1.63-3.156-2.026-4.881l-.125-.547-2.295-.766v-4.559l2.294-.765.125-.547c.396-1.725 1.078-3.367 2.026-4.881l.298-.476-1.082-2.167 3.223-3.223 2.168 1.083.476-.298c1.514-.949 3.156-1.63 4.881-2.026l.547-.125.765-2.295h1.279 3.279l.765 2.294.547.125c1.725.396 3.367 1.078 4.881 2.026l.476.298 2.168-1.083 3.223 3.223-1.083 2.168.298.476c.949 1.514 1.63 3.156 2.026 4.881l.125.547 2.295.766v4.559l-2.294.765-.125.547c-.396 1.725-1.078 3.367-2.026 4.881l-.298.476 1.083 2.168-3.223 3.223-2.168-1.083-.476.298c-1.514.949-3.156 1.63-4.881 2.026l-.547.125-.766 2.294h-4.559l-.765-2.294-.547-.125c-1.725-.396-3.367-1.078-4.881-2.026l-.476-.298-2.168 1.083-3.223-3.223 1.083-2.168zm3.554 31.527v-23.982l.951-.475c1.403.819 2.899 1.44 4.46 1.851l.868 2.606h7.441l.869-2.606c1.561-.411 3.057-1.032 4.46-1.852l2.462 1.231 5.261-5.262-1.23-2.461c.819-1.403 1.44-2.899 1.851-4.46l2.607-.869v-7.441l-2.606-.869c-.411-1.561-1.032-3.057-1.851-4.46l1.23-2.461-5.261-5.262-2.462 1.231c-1.403-.82-2.899-1.44-4.46-1.852l-.203-.607h31.613v4.101c-2.279.465-4 2.485-4 4.899v36.181l2.712 7.233c.232.619.706 1.101 1.288 1.365v4.221zm47.415-6.287c-.129.344-.7.344-.829 0l-2.143-5.713h5.114z"/><path d="m31.496 56.341c-.436.498-.609.659-.999.659s-.563-.161-.999-.659c-.468-.534-1.175-1.341-2.504-1.341s-2.035.808-2.502 1.342c-.434.497-.608.658-.995.658s-.561-.161-.996-.658c-.467-.534-1.173-1.342-2.501-1.342v-1.5c0-1.93-1.57-3.5-3.5-3.5s-3.5 1.57-3.5 3.5v3.5h2v-3.5c0-.827.673-1.5 1.5-1.5s1.5.673 1.5 1.5v3.5h2c.387 0 .561.161.995.658.467.534 1.173 1.342 2.502 1.342 1.328 0 2.034-.808 2.501-1.342.435-.497.608-.658.996-.658.39 0 .563.161.999.659.468.534 1.175 1.341 2.504 1.341s2.036-.807 2.504-1.341c.436-.498.609-.659.999-.659h1v-2h-1c-1.329 0-2.036.807-2.504 1.341z"/><path d="m39 5h12v2h-12z"/><path d="m41 9h10v2h-10z"/><path d="m41 13h10v2h-10z"/><path d="m43 17h8v2h-8z"/><path d="m43 21h8v2h-8z"/><path d="m43 25h8v2h-8z"/><path d="m43 29h8v2h-8z"/><path d="m39 33h12v2h-12z"/><path d="m39 37h12v2h-12z"/><path d="m39 59h12v-18h-12zm2-16h8v14h-8z"/></g></svg>