<svg height="512pt" viewBox="0 0 512.0097 512" width="512pt" xmlns="http://www.w3.org/2000/svg"><path d="m74.667969 448.003906c0 35.308594-28.695313 53.335938-64 53.335938h330.664062v-53.335938zm0 0" fill="#f8fafd"/><path d="m74.667969 85.339844h266.664062v362.664062h-266.664062zm0 0" fill="#ffca6b"/><path d="m170.667969 341.339844h64v64h-64zm0 0" fill="#64a6f0"/><path d="m192 277.339844c0 17.671875-14.328125 32-32 32s-32-14.328125-32-32c0-17.675782 14.328125-32 32-32s32 14.324218 32 32zm0 0" fill="#5597e6"/><path d="m256 213.339844h-85.332031l42.664062-42.667969zm0 0" fill="#64a6f0"/><path d="m74.667969 437.339844v10.664062c0 35.308594-28.695313 53.335938-64 53.335938v-352c.050781-35.324219 28.675781-63.949219 64-64zm0 0" fill="#f3b55e"/><path d="m501.332031 245.339844-10.664062 256h-192l-10.667969-256zm0 0" fill="#f8fafd"/><path d="m320 64.003906h42.667969v181.335938h-42.667969zm0 0" fill="#f3b55e"/><path d="m341.332031 10.671875 21.335938 53.332031h-42.667969zm0 0" fill="#7c8691"/><path d="m480 213.339844v32h-85.332031v-234.667969h85.332031zm0 0" fill="#c1cad4"/><g fill="#373c43"><path d="m509.035156 237.957031c-2.011718-2.097656-4.792968-3.285156-7.703125-3.285156h-10.664062v-224c0-5.890625-4.777344-10.66796875-10.667969-10.66796875h-85.332031c-5.890625 0-10.667969 4.77734375-10.667969 10.66796875v224h-10.667969v-170.667969c-.007812-1.355468-.28125-2.695312-.796875-3.945312l-21.335937-53.332032c-1.617188-4.050781-5.539063-6.7070308-9.902344-6.7070308s-8.285156 2.6562498-9.902344 6.7070308l-21.335937 53.332032c-.492188 1.257812-.738282 2.597656-.726563 3.945312v170.667969h-21.332031c-2.90625-.003906-5.691406 1.183594-7.703125 3.28125-2.015625 2.097656-3.085937 4.925781-2.964844 7.832031l10.667969 256c.242188 5.714844 4.945312 10.226563 10.667969 10.21875h192c5.71875.007813 10.425781-4.503906 10.664062-10.21875l10.667969-256c.121094-2.902344-.949219-5.730468-2.964844-7.828125zm-103.703125-216.617187h64v53.332031h-32v21.332031h32v21.335938h-32v21.332031h32v21.332031h-32v21.335938h32v21.332031h-32v21.332031h32v10.667969h-64zm-74.664062 53.332031h21.332031v160h-21.332031zm16.246093-21.332031h-11.160156l5.578125-13.953125zm133.523438 437.332031h-171.539062l-9.773438-234.667969h191.082031zm0 0"/><path d="m21.929688 96.527344c-14.105469 13.941406-22.0117192 32.976562-21.929688 52.8125v352c0 5.890625 4.777344 10.664062 10.667969 10.664062h256v-21.332031h-198.046875c8.5-8.742187 14.03125-19.9375 15.816406-32h182.230469v-21.332031h-181.335938v-341.335938h192v-21.332031h-202.664062c-19.800781-.09375-38.804688 7.785156-52.738281 21.855469zm-.597657 52.8125c.070313-25.324219 17.875-47.132813 42.667969-52.269532v350.933594c0 27.136719-20.488281 39.199219-42.667969 42.007813zm0 0"/><path d="m202.667969 277.339844c0-23.566406-19.101563-42.667969-42.667969-42.667969-23.5625 0-42.667969 19.101563-42.667969 42.667969 0 23.5625 19.105469 42.664062 42.667969 42.664062 23.566406 0 42.667969-19.101562 42.667969-42.664062zm-64 0c0-11.785156 9.550781-21.335938 21.332031-21.335938s21.332031 9.550782 21.332031 21.335938c0 11.78125-9.550781 21.332031-21.332031 21.332031s-21.332031-9.550781-21.332031-21.332031zm0 0"/><path d="m170.667969 416.003906h64c5.890625 0 10.664062-4.773437 10.664062-10.664062v-64c0-5.894532-4.773437-10.667969-10.664062-10.667969h-64c-5.890625 0-10.667969 4.773437-10.667969 10.667969v64c0 5.890625 4.777344 10.664062 10.667969 10.664062zm10.664062-64h42.667969v42.667969h-42.667969zm0 0"/><path d="m265.855469 217.421875c1.652343-3.984375.738281-8.574219-2.3125-11.625l-42.667969-42.667969c-4.164062-4.164062-10.917969-4.164062-15.082031 0l-42.667969 42.667969c-3.046875 3.050781-3.960938 7.636719-2.308594 11.621094 1.648438 3.988281 5.539063 6.585937 9.851563 6.585937h85.332031c4.316406.003906 8.203125-2.59375 9.855469-6.582031zm-69.4375-14.75 16.914062-16.917969 16.917969 16.917969zm0 0"/></g></svg>