<svg xmlns="http://www.w3.org/2000/svg" xmlns:xlink="http://www.w3.org/1999/xlink" id="svg" version="1.1" height="176.12193056731584" viewBox="0, 0, 400,176.12193056731584" width="400" style="height: 176px;width: 400px;background-color:white;overflow: hidden;"><g id="svgg" style="background-color:white;"><path id="path0" d="M2.333 45.208 L 2.333 55.083 20.836 55.083 L 39.338 55.083 39.331 45.208 L 39.323 35.333 20.828 35.333 L 2.333 35.333 2.333 45.208 M56.000 35.466 C 56.000 35.536,56.206 35.683,56.458 35.793 C 56.710 35.903,57.217 36.184,57.583 36.419 C 57.950 36.653,58.489 36.954,58.780 37.087 C 59.072 37.220,59.352 37.396,59.403 37.478 C 59.454 37.561,59.815 37.793,60.206 37.994 C 61.158 38.484,61.777 38.840,62.622 39.381 C 63.009 39.630,63.403 39.833,63.497 39.833 C 63.590 39.833,63.667 39.900,63.667 39.981 C 63.667 40.062,63.835 40.183,64.042 40.250 C 64.248 40.317,64.454 40.384,64.500 40.400 C 64.546 40.415,64.883 40.620,65.250 40.854 C 65.917 41.281,66.905 41.849,68.000 42.437 C 68.321 42.609,68.608 42.806,68.639 42.875 C 68.669 42.944,68.838 43.000,69.014 43.000 C 69.190 43.000,69.333 43.066,69.333 43.146 C 69.333 43.227,69.577 43.393,69.875 43.515 C 70.173 43.638,70.545 43.856,70.702 44.000 C 70.859 44.145,71.496 44.515,72.119 44.824 C 72.741 45.133,73.475 45.552,73.750 45.755 C 74.025 45.959,74.550 46.262,74.917 46.429 C 75.283 46.596,75.621 46.776,75.667 46.830 C 75.818 47.006,77.854 48.167,78.012 48.167 C 78.097 48.167,78.167 48.242,78.167 48.333 C 78.167 48.425,78.250 48.500,78.352 48.500 C 78.454 48.500,79.147 48.863,79.894 49.307 C 80.640 49.751,81.775 50.401,82.417 50.751 C 83.058 51.101,83.621 51.438,83.667 51.499 C 83.712 51.560,83.994 51.716,84.292 51.846 C 84.590 51.975,84.833 52.142,84.833 52.217 C 84.833 52.292,84.903 52.310,84.988 52.257 C 85.074 52.204,85.192 52.239,85.250 52.334 C 85.309 52.429,85.745 52.701,86.220 52.939 C 86.695 53.177,87.196 53.465,87.333 53.579 C 87.471 53.693,88.033 54.041,88.583 54.352 L 89.583 54.917 113.625 55.000 C 126.848 55.046,137.667 55.028,137.667 54.961 C 137.667 54.894,137.310 54.651,136.875 54.421 C 136.440 54.191,135.808 53.833,135.472 53.626 C 134.143 52.808,132.116 51.667,131.992 51.667 C 131.920 51.667,131.836 51.610,131.806 51.542 C 131.775 51.473,131.337 51.200,130.833 50.936 C 130.329 50.671,129.529 50.202,129.055 49.894 C 128.581 49.586,128.118 49.333,128.025 49.333 C 127.933 49.333,127.758 49.239,127.637 49.123 C 127.432 48.927,126.472 48.446,126.372 48.488 C 126.347 48.498,126.169 48.360,125.976 48.180 C 125.782 48.000,125.127 47.585,124.520 47.258 C 123.913 46.931,123.079 46.464,122.667 46.220 C 121.305 45.415,120.589 45.007,120.167 44.797 C 119.938 44.683,119.704 44.526,119.648 44.447 C 119.592 44.369,119.517 44.324,119.481 44.347 C 119.446 44.371,119.099 44.190,118.712 43.945 C 118.324 43.700,117.893 43.500,117.753 43.500 C 117.614 43.500,117.500 43.442,117.500 43.371 C 117.500 43.300,117.219 43.095,116.875 42.914 C 116.531 42.734,116.212 42.543,116.167 42.489 C 116.121 42.435,115.483 42.070,114.750 41.677 C 114.017 41.285,113.304 40.871,113.167 40.757 C 113.029 40.644,112.504 40.328,112.000 40.055 C 111.496 39.782,110.821 39.405,110.500 39.217 C 109.483 38.620,107.958 37.738,106.667 37.001 C 105.979 36.609,105.218 36.148,104.974 35.977 C 104.731 35.806,104.412 35.667,104.266 35.667 C 104.120 35.667,104.000 35.591,104.000 35.499 C 104.000 35.387,95.995 35.332,80.000 35.334 C 66.800 35.336,56.000 35.395,56.000 35.466 M180.167 45.208 L 180.167 55.083 198.669 55.083 L 217.172 55.083 217.164 45.208 L 217.157 35.333 198.662 35.333 L 180.167 35.333 180.167 45.208 M322.512 47.402 C 322.393 47.545,322.337 48.080,322.367 48.777 L 322.417 49.917 338.583 50.003 C 347.475 50.051,354.966 50.148,355.231 50.219 C 356.845 50.653,358.581 52.729,358.716 54.386 L 358.759 54.917 377.004 54.959 L 395.250 55.002 395.202 51.084 L 395.155 47.167 358.931 47.167 C 327.963 47.167,322.679 47.201,322.512 47.402 " stroke="none" fill="#2c7cbb" fill-rule="evenodd"/><path id="path1" d="M11.335 0.241 C 11.107 0.368,10.860 0.433,10.786 0.388 C 10.712 0.342,10.470 0.424,10.249 0.569 C 10.027 0.714,9.723 0.833,9.573 0.833 C 9.424 0.833,9.102 0.973,8.859 1.145 C 8.616 1.316,8.248 1.509,8.042 1.573 C 7.835 1.637,7.667 1.772,7.667 1.872 C 7.667 1.973,7.618 2.007,7.558 1.947 C 7.499 1.888,7.274 2.029,7.058 2.261 C 6.843 2.494,6.667 2.628,6.667 2.561 C 6.667 2.294,4.472 4.739,4.163 5.350 C 3.357 6.941,3.201 7.272,3.092 7.626 L 2.977 8.002 29.488 7.999 C 44.070 7.997,56.000 7.941,55.999 7.873 C 55.998 7.763,55.039 7.122,54.833 7.094 C 54.788 7.088,54.525 6.931,54.250 6.746 C 53.975 6.560,53.357 6.223,52.878 5.996 C 52.398 5.769,52.004 5.527,52.003 5.458 C 52.001 5.390,51.887 5.333,51.750 5.333 C 51.612 5.333,51.500 5.272,51.500 5.198 C 51.500 5.055,50.420 4.475,50.012 4.399 C 49.882 4.374,49.709 4.237,49.629 4.094 C 49.549 3.951,49.367 3.833,49.226 3.833 C 49.084 3.833,48.736 3.668,48.451 3.465 C 48.167 3.263,47.706 2.974,47.426 2.824 C 46.396 2.271,46.067 2.075,45.539 1.697 C 45.243 1.484,45.000 1.365,45.000 1.431 C 45.000 1.497,44.869 1.439,44.708 1.301 C 44.548 1.163,44.304 0.998,44.167 0.934 C 44.029 0.870,43.579 0.639,43.167 0.421 L 42.417 0.025 27.083 0.019 C 14.372 0.013,11.679 0.051,11.335 0.241 M200.111 0.111 C 200.009 0.213,199.785 0.260,198.667 0.411 C 198.438 0.442,198.250 0.481,198.250 0.497 C 198.250 0.514,198.025 0.563,197.750 0.607 C 197.089 0.711,195.808 1.147,195.563 1.350 C 195.456 1.439,195.304 1.497,195.226 1.479 C 195.147 1.461,194.872 1.533,194.614 1.640 C 194.356 1.746,194.081 1.833,194.003 1.833 C 193.925 1.833,193.835 1.912,193.803 2.009 C 193.770 2.106,193.633 2.211,193.497 2.242 C 192.923 2.375,192.500 2.546,192.500 2.645 C 192.500 2.704,192.256 2.858,191.958 2.987 C 191.660 3.116,191.257 3.340,191.061 3.486 C 190.865 3.631,190.538 3.862,190.333 4.000 C 188.921 4.948,187.182 6.396,187.174 6.630 C 187.170 6.748,187.035 6.894,186.875 6.955 C 186.570 7.072,186.015 7.659,186.006 7.875 C 186.002 7.944,233.100 8.000,290.667 8.000 L 395.333 8.000 395.333 4.000 L 395.333 -0.001 297.777 0.000 C 244.121 0.001,200.171 0.051,200.111 0.111 M2.333 23.625 L 2.333 31.583 21.708 31.540 C 40.039 31.499,41.833 31.467,41.833 31.174 C 41.833 31.064,42.510 30.682,42.917 30.562 C 43.008 30.535,43.383 30.426,43.750 30.319 C 44.544 30.087,45.858 30.105,46.667 30.359 C 47.600 30.652,48.632 31.147,48.694 31.332 C 48.732 31.447,56.624 31.515,72.854 31.543 C 92.082 31.575,96.941 31.541,96.878 31.375 C 96.803 31.180,96.590 31.099,96.287 31.148 C 96.216 31.160,96.114 31.057,96.061 30.919 C 96.008 30.781,95.898 30.710,95.816 30.761 C 95.734 30.812,95.667 30.774,95.667 30.677 C 95.667 30.579,95.517 30.500,95.333 30.500 C 95.150 30.500,95.000 30.423,95.000 30.330 C 95.000 30.236,94.794 30.071,94.542 29.962 C 94.290 29.853,93.690 29.518,93.208 29.218 C 92.727 28.917,92.333 28.711,92.333 28.761 C 92.333 28.810,92.090 28.669,91.792 28.448 C 91.494 28.226,90.725 27.758,90.083 27.407 C 89.442 27.057,88.862 26.690,88.794 26.593 C 88.727 26.496,88.671 26.478,88.669 26.553 C 88.668 26.628,88.449 26.534,88.183 26.345 C 87.916 26.155,87.649 26.000,87.588 26.000 C 87.527 26.000,87.239 25.818,86.947 25.595 C 86.655 25.373,86.342 25.175,86.250 25.156 C 85.851 25.073,85.333 24.766,85.333 24.612 C 85.333 24.520,85.286 24.491,85.229 24.549 C 85.171 24.606,84.806 24.434,84.417 24.167 C 84.027 23.899,83.662 23.727,83.605 23.784 C 83.547 23.842,83.500 23.801,83.500 23.694 C 83.500 23.588,83.387 23.500,83.250 23.500 C 83.112 23.500,83.000 23.437,83.000 23.360 C 83.000 23.217,82.262 22.812,81.857 22.734 C 81.732 22.710,81.451 22.522,81.232 22.316 C 81.013 22.110,80.833 21.994,80.833 22.058 C 80.833 22.165,80.147 21.778,79.750 21.447 C 79.567 21.295,78.066 20.490,77.208 20.085 C 76.910 19.944,76.667 19.750,76.667 19.655 C 76.667 19.559,76.592 19.527,76.500 19.583 C 76.408 19.640,76.333 19.626,76.333 19.551 C 76.333 19.477,75.977 19.233,75.542 19.010 C 75.106 18.787,74.637 18.511,74.500 18.397 C 74.263 18.201,74.170 18.167,73.875 18.166 C 73.806 18.166,73.534 17.980,73.270 17.753 C 73.006 17.526,72.736 17.374,72.670 17.415 C 72.604 17.455,72.392 17.341,72.199 17.161 C 72.005 16.981,71.814 16.833,71.773 16.833 C 71.732 16.833,71.234 16.571,70.667 16.250 L 69.635 15.667 35.984 15.667 L 2.333 15.667 2.333 23.625 M181.333 15.990 C 181.333 16.168,181.268 16.354,181.189 16.403 C 181.109 16.452,180.986 16.813,180.915 17.205 C 180.844 17.596,180.757 18.029,180.721 18.167 C 180.685 18.304,180.629 18.567,180.597 18.750 C 180.565 18.933,180.461 19.407,180.367 19.803 C 180.272 20.206,180.187 22.936,180.175 26.010 L 180.153 31.497 198.977 31.540 C 209.331 31.564,217.770 31.532,217.731 31.470 C 217.693 31.407,217.737 31.309,217.831 31.252 C 217.924 31.194,218.000 31.001,218.000 30.823 C 218.000 30.646,218.067 30.500,218.149 30.500 C 218.230 30.500,218.342 30.323,218.396 30.107 C 218.596 29.309,220.871 26.626,221.825 26.062 C 222.105 25.897,222.333 25.703,222.333 25.631 C 222.333 25.559,222.446 25.500,222.583 25.500 C 222.721 25.500,222.833 25.425,222.833 25.333 C 222.833 25.242,222.902 25.167,222.986 25.167 C 223.070 25.167,223.501 25.004,223.945 24.805 C 224.388 24.607,224.787 24.431,224.833 24.416 C 224.879 24.400,225.029 24.344,225.167 24.290 C 225.424 24.190,226.765 23.886,227.500 23.762 C 227.729 23.723,265.585 23.686,311.625 23.679 L 395.333 23.667 395.333 19.667 L 395.333 15.667 288.333 15.667 C 182.529 15.667,181.333 15.670,181.333 15.990 M2.333 82.375 L 2.333 107.167 20.833 107.167 L 39.333 107.167 39.333 82.418 L 39.333 57.670 20.833 57.626 L 2.333 57.583 2.333 82.375 M94.731 57.824 C 94.925 57.956,95.121 58.115,95.167 58.176 C 95.212 58.238,95.418 58.341,95.624 58.405 C 95.830 58.469,96.092 58.614,96.207 58.726 C 96.322 58.838,96.754 59.096,97.167 59.299 C 97.922 59.671,98.513 60.013,98.667 60.167 C 98.803 60.303,99.346 60.613,100.583 61.262 C 101.225 61.598,101.862 61.963,102.000 62.072 C 102.138 62.181,102.737 62.521,103.333 62.827 C 103.929 63.134,104.616 63.523,104.859 63.692 C 105.102 63.862,105.377 64.000,105.470 64.000 C 105.563 64.000,105.664 64.067,105.694 64.149 C 105.772 64.357,107.420 65.307,107.922 65.433 C 108.151 65.490,108.400 65.648,108.475 65.784 C 108.551 65.919,108.644 66.016,108.682 66.000 C 108.820 65.938,109.667 66.391,109.667 66.527 C 109.667 66.604,109.743 66.667,109.836 66.667 C 109.982 66.667,111.001 67.235,112.917 68.385 C 113.192 68.550,113.671 68.799,113.983 68.938 C 114.294 69.077,114.656 69.298,114.786 69.429 C 114.917 69.560,115.131 69.667,115.262 69.667 C 115.393 69.667,115.500 69.742,115.500 69.833 C 115.500 69.925,115.582 70.000,115.683 70.000 C 115.783 70.000,116.099 70.167,116.386 70.371 C 116.672 70.574,117.020 70.758,117.158 70.778 C 117.297 70.799,117.437 70.894,117.469 70.991 C 117.501 71.088,117.623 71.167,117.738 71.167 C 117.854 71.167,118.122 71.317,118.333 71.500 C 118.545 71.683,118.810 71.833,118.922 71.833 C 119.034 71.833,119.219 71.945,119.332 72.081 C 119.445 72.218,119.605 72.288,119.687 72.238 C 119.769 72.187,119.881 72.262,119.935 72.405 C 119.990 72.548,120.094 72.629,120.165 72.584 C 120.237 72.540,120.388 72.615,120.500 72.750 C 120.612 72.885,120.766 72.958,120.842 72.911 C 120.918 72.865,121.040 72.922,121.115 73.038 C 121.189 73.155,121.550 73.396,121.917 73.574 C 122.283 73.752,122.822 74.071,123.114 74.282 C 123.406 74.494,123.709 74.667,123.788 74.667 C 123.867 74.667,124.472 75.000,125.133 75.407 C 125.793 75.814,126.336 76.095,126.339 76.032 C 126.342 75.969,126.435 76.036,126.547 76.182 C 126.659 76.329,127.350 76.768,128.083 77.158 C 130.513 78.451,130.749 78.583,130.833 78.683 C 130.992 78.874,132.333 79.670,132.333 79.574 C 132.333 79.521,132.551 79.632,132.817 79.822 C 133.084 80.012,133.358 80.167,133.427 80.167 C 133.496 80.167,133.798 80.354,134.098 80.583 C 134.399 80.813,134.762 81.000,134.906 81.000 C 135.049 81.000,135.167 81.063,135.167 81.140 C 135.167 81.218,135.523 81.461,135.958 81.681 C 136.394 81.901,136.849 82.176,136.970 82.291 C 137.091 82.406,137.291 82.500,137.415 82.500 C 137.538 82.500,137.664 82.562,137.694 82.639 C 137.725 82.715,138.162 83.005,138.667 83.284 C 139.712 83.861,141.563 84.917,142.667 85.566 C 143.079 85.809,143.679 86.137,144.000 86.295 C 144.321 86.454,144.658 86.641,144.750 86.711 C 145.274 87.111,146.167 87.642,146.167 87.552 C 146.167 87.495,146.303 87.572,146.469 87.722 C 146.636 87.873,147.011 88.079,147.302 88.181 C 147.594 88.283,147.833 88.434,147.833 88.516 C 147.833 88.599,147.946 88.667,148.083 88.667 C 148.221 88.667,148.333 88.746,148.333 88.843 C 148.333 88.940,148.403 88.977,148.488 88.924 C 148.574 88.871,148.691 88.905,148.750 89.000 C 148.808 89.094,149.130 89.286,149.464 89.426 C 149.798 89.565,150.112 89.733,150.161 89.798 C 150.291 89.972,150.872 90.328,151.208 90.441 C 151.369 90.495,151.500 90.599,151.500 90.673 C 151.500 90.747,151.762 90.894,152.083 91.000 C 152.404 91.106,152.667 91.262,152.667 91.346 C 152.667 91.431,152.817 91.500,153.000 91.500 C 153.183 91.500,153.333 91.560,153.333 91.633 C 153.333 91.707,153.652 91.931,154.042 92.133 C 154.431 92.334,154.900 92.591,155.083 92.704 C 156.012 93.276,156.260 93.404,156.375 93.370 C 156.444 93.350,156.500 93.408,156.500 93.500 C 156.500 93.592,156.612 93.667,156.750 93.667 C 156.887 93.667,157.000 93.754,157.000 93.861 C 157.000 93.968,157.048 94.008,157.106 93.950 C 157.164 93.892,157.399 93.992,157.628 94.172 C 157.857 94.352,158.113 94.500,158.197 94.500 C 158.281 94.500,158.760 94.763,159.261 95.083 C 159.763 95.404,160.247 95.667,160.337 95.667 C 160.426 95.667,160.501 95.723,160.501 95.792 C 160.502 95.860,160.671 96.000,160.876 96.103 C 161.243 96.285,162.365 96.895,163.173 97.352 C 163.399 97.479,163.621 97.621,163.667 97.667 C 163.775 97.775,164.594 98.243,165.333 98.620 C 165.654 98.783,165.954 98.961,166.000 99.015 C 166.046 99.069,166.683 99.436,167.417 99.829 C 168.150 100.223,168.862 100.635,169.000 100.745 C 169.137 100.855,169.488 101.039,169.780 101.154 C 170.071 101.270,170.439 101.507,170.597 101.682 C 170.755 101.857,171.023 102.000,171.192 102.000 C 171.362 102.000,171.500 102.075,171.500 102.167 C 171.500 102.258,171.582 102.333,171.683 102.333 C 171.783 102.333,172.073 102.481,172.326 102.662 C 172.580 102.842,172.835 102.942,172.894 102.884 C 172.952 102.826,173.000 102.862,173.000 102.964 C 173.000 103.067,173.281 103.282,173.625 103.442 C 174.194 103.707,176.055 104.768,176.667 105.176 C 176.804 105.268,177.048 105.387,177.208 105.441 C 177.369 105.495,177.500 105.596,177.500 105.667 C 177.500 105.780,177.668 105.851,178.250 105.985 C 178.342 106.006,178.529 106.118,178.667 106.234 C 178.804 106.350,179.217 106.588,179.583 106.764 C 180.308 107.111,373.776 107.368,374.697 107.022 C 374.910 106.943,375.513 106.831,376.037 106.775 C 376.562 106.719,377.425 106.531,377.954 106.358 C 378.483 106.184,379.142 106.000,379.417 105.949 C 379.692 105.897,380.292 105.685,380.750 105.476 C 381.208 105.268,381.621 105.093,381.667 105.087 C 381.950 105.053,383.333 104.277,383.333 104.152 C 383.333 104.068,383.427 104.000,383.542 104.000 C 383.800 103.999,385.968 102.572,386.960 101.750 C 387.763 101.084,389.856 98.953,390.129 98.523 C 390.283 98.281,390.504 98.023,390.621 97.950 C 390.738 97.877,390.833 97.742,390.833 97.651 C 390.833 97.560,391.021 97.283,391.250 97.036 C 391.479 96.789,391.667 96.524,391.667 96.448 C 391.667 96.372,391.879 95.997,392.139 95.613 C 392.556 94.998,392.885 94.335,392.839 94.205 C 392.830 94.181,393.020 93.824,393.261 93.414 C 393.501 93.003,393.645 92.667,393.580 92.667 C 393.515 92.667,393.585 92.479,393.735 92.250 C 393.885 92.021,393.967 91.833,393.918 91.833 C 393.869 91.833,393.939 91.571,394.073 91.250 C 394.207 90.929,394.281 90.667,394.237 90.667 C 394.194 90.667,394.263 90.460,394.390 90.208 C 394.518 89.956,394.670 89.487,394.728 89.167 C 394.787 88.846,394.880 88.396,394.936 88.167 C 395.191 87.112,395.228 85.366,395.283 71.917 L 395.340 57.583 377.045 57.583 L 358.750 57.583 358.780 65.083 C 358.796 69.208,358.744 72.883,358.663 73.250 C 358.582 73.617,358.440 74.271,358.347 74.705 C 358.152 75.613,357.581 76.949,357.206 77.375 C 357.064 77.535,357.003 77.667,357.069 77.667 C 357.136 77.667,357.091 77.777,356.970 77.911 C 356.471 78.465,356.333 78.661,356.333 78.820 C 356.333 78.913,356.183 79.069,356.000 79.167 C 355.817 79.265,355.667 79.443,355.667 79.562 C 355.667 79.682,355.475 79.867,355.241 79.974 C 354.986 80.090,354.862 80.245,354.933 80.360 C 355.005 80.476,354.978 80.506,354.866 80.437 C 354.764 80.374,354.558 80.510,354.406 80.743 C 354.254 80.975,354.063 81.123,353.982 81.072 C 353.900 81.022,353.832 81.041,353.831 81.115 C 353.829 81.189,353.211 81.550,352.456 81.917 C 351.701 82.283,351.046 82.621,351.000 82.667 C 350.909 82.757,350.887 82.763,349.417 83.086 C 348.179 83.357,228.748 83.424,227.123 83.154 C 225.564 82.895,222.865 81.864,222.694 81.463 C 222.663 81.390,222.569 81.374,222.483 81.427 C 222.336 81.518,219.500 78.808,219.500 78.576 C 219.500 78.515,219.289 78.191,219.030 77.857 C 218.495 77.166,218.000 76.160,218.000 75.766 C 218.000 75.620,217.940 75.500,217.868 75.500 C 217.735 75.500,217.364 74.023,217.260 73.083 C 217.230 72.808,217.196 69.208,217.186 65.083 L 217.167 57.583 198.667 57.583 L 180.167 57.583 180.146 63.958 C 180.123 70.972,180.133 70.589,179.958 70.764 C 179.890 70.833,179.833 71.027,179.833 71.197 C 179.833 71.474,179.548 72.121,179.332 72.333 C 179.285 72.379,179.060 72.697,178.832 73.041 C 178.603 73.384,178.371 73.665,178.316 73.666 C 178.261 73.666,178.017 73.851,177.774 74.075 C 177.532 74.300,177.333 74.452,177.333 74.413 C 177.333 74.375,177.007 74.516,176.609 74.728 C 175.775 75.171,173.465 75.280,172.686 74.914 C 172.446 74.801,172.006 74.606,171.708 74.480 C 171.410 74.355,171.167 74.191,171.167 74.116 C 171.167 74.041,171.100 74.021,171.019 74.072 C 170.938 74.122,170.778 74.051,170.665 73.915 C 170.552 73.778,170.314 73.667,170.136 73.667 C 169.959 73.667,169.855 73.600,169.905 73.519 C 169.989 73.382,169.410 73.107,169.125 73.149 C 169.056 73.159,169.000 73.092,169.000 73.000 C 169.000 72.908,168.913 72.833,168.807 72.833 C 168.701 72.833,168.373 72.649,168.078 72.424 C 167.783 72.199,167.505 72.050,167.461 72.095 C 167.417 72.139,167.286 72.060,167.170 71.921 C 167.054 71.781,166.886 71.667,166.796 71.667 C 166.630 71.667,164.650 70.503,164.500 70.316 C 164.410 70.205,163.305 69.603,163.167 69.589 C 163.121 69.585,162.812 69.413,162.480 69.207 C 162.149 69.002,161.828 68.833,161.767 68.833 C 161.706 68.833,161.153 68.496,160.538 68.083 C 159.923 67.671,159.326 67.333,159.210 67.333 C 159.095 67.333,159.000 67.246,159.000 67.139 C 159.000 67.032,158.951 66.994,158.890 67.054 C 158.830 67.114,158.699 67.097,158.599 67.016 C 158.499 66.935,158.042 66.661,157.583 66.409 C 157.125 66.156,156.712 65.905,156.667 65.850 C 156.585 65.752,156.429 65.659,155.185 64.967 C 154.854 64.782,154.490 64.555,154.375 64.462 C 154.260 64.369,154.167 64.338,154.167 64.395 C 154.167 64.451,154.014 64.366,153.828 64.207 C 153.642 64.047,153.435 63.915,153.370 63.912 C 153.304 63.910,153.038 63.767,152.780 63.594 C 152.164 63.182,151.424 62.768,150.500 62.318 C 150.087 62.117,149.712 61.900,149.667 61.835 C 149.621 61.770,149.246 61.529,148.833 61.299 C 148.421 61.069,147.690 60.647,147.208 60.361 C 146.727 60.076,146.333 59.884,146.333 59.935 C 146.333 59.986,146.041 59.797,145.684 59.514 C 145.327 59.231,144.915 59.000,144.768 59.000 C 144.620 59.000,144.500 58.944,144.500 58.875 C 144.500 58.806,144.144 58.564,143.708 58.337 C 143.273 58.110,142.875 57.866,142.823 57.795 C 142.772 57.724,131.851 57.647,118.554 57.624 C 97.453 57.589,94.423 57.614,94.731 57.824 M222.699 127.779 C 222.183 128.033,221.545 128.590,221.028 129.237 C 220.766 129.566,220.508 131.190,220.503 132.547 L 220.500 133.511 222.292 133.464 L 224.083 133.417 224.177 132.604 C 224.323 131.332,224.320 131.333,228.782 131.333 L 232.667 131.333 232.667 129.417 L 232.667 127.500 227.958 127.504 C 223.948 127.507,223.168 127.548,222.699 127.779 M43.333 132.412 L 43.333 134.833 45.671 134.833 L 48.009 134.833 47.963 132.458 L 47.917 130.083 45.625 130.037 L 43.333 129.991 43.333 132.412 M133.644 131.209 C 133.342 131.598,132.943 132.072,132.756 132.263 C 132.569 132.453,132.267 132.821,132.083 133.080 C 131.785 133.502,130.943 134.468,129.875 135.613 C 129.669 135.834,129.500 136.091,129.500 136.184 C 129.500 136.277,129.425 136.307,129.333 136.250 C 129.242 136.193,129.167 136.226,129.167 136.323 C 129.167 136.421,129.035 136.639,128.875 136.808 C 128.715 136.978,128.283 137.469,127.917 137.899 C 127.025 138.947,126.414 139.639,125.808 140.292 C 125.532 140.590,125.346 140.833,125.397 140.833 C 125.447 140.833,125.285 141.048,125.036 141.311 C 124.229 142.163,123.667 142.864,123.667 143.017 C 123.667 143.099,123.554 143.167,123.417 143.167 C 123.279 143.167,123.167 143.279,123.167 143.417 C 123.167 143.554,123.110 143.667,123.040 143.667 C 122.970 143.667,122.814 143.826,122.693 144.020 C 122.487 144.349,122.583 144.479,124.109 145.937 L 125.745 147.500 135.905 147.500 L 146.065 147.500 146.533 147.948 C 147.206 148.593,147.257 152.117,146.604 152.877 L 146.208 153.337 131.728 153.332 L 117.247 153.326 116.707 152.821 L 116.167 152.316 116.167 148.334 L 116.167 144.351 113.921 144.301 L 111.676 144.250 111.616 151.583 C 111.558 158.801,111.493 160.029,111.165 160.139 C 111.074 160.169,111.000 160.269,111.000 160.359 C 111.000 160.450,110.906 160.626,110.792 160.751 C 110.677 160.877,110.359 161.246,110.085 161.573 C 109.811 161.899,109.492 162.167,109.377 162.167 C 109.261 162.167,109.167 162.242,109.167 162.333 C 109.167 162.425,109.110 162.488,109.042 162.473 C 108.854 162.432,107.962 162.688,107.583 162.892 C 107.400 162.991,107.212 163.074,107.167 163.078 C 107.020 163.089,105.595 163.533,105.250 163.675 C 105.067 163.750,104.378 163.976,103.720 164.175 C 102.690 164.489,101.974 165.167,102.674 165.167 C 102.731 165.167,102.786 165.260,102.796 165.375 C 102.831 165.788,102.937 166.159,103.051 166.273 C 103.114 166.337,103.167 166.559,103.167 166.768 C 103.167 166.976,103.232 167.187,103.312 167.237 C 103.441 167.317,103.676 168.161,103.648 168.444 C 103.606 168.861,104.753 168.693,106.333 168.051 C 106.471 167.995,106.658 167.937,106.750 167.923 C 106.842 167.909,107.067 167.839,107.250 167.767 C 108.304 167.352,108.597 167.258,108.719 167.297 C 109.082 167.413,112.406 165.585,113.147 164.863 C 115.059 162.998,115.890 161.281,116.145 158.669 L 116.250 157.588 116.625 158.066 C 116.831 158.330,117.000 158.508,117.000 158.463 C 117.000 158.418,117.368 158.464,117.818 158.566 C 118.942 158.819,146.603 158.664,147.083 158.401 C 147.267 158.301,147.773 158.047,148.208 157.836 C 148.644 157.626,149.000 157.389,149.000 157.310 C 149.000 157.231,149.071 157.167,149.158 157.167 C 149.345 157.167,150.167 156.430,150.167 156.263 C 150.167 156.199,150.383 155.870,150.648 155.532 C 151.583 154.339,152.064 148.560,151.353 147.067 C 150.904 146.124,150.440 145.249,150.346 145.167 C 150.293 145.121,150.168 144.933,150.067 144.750 C 149.966 144.567,149.723 144.335,149.526 144.235 C 149.330 144.135,149.037 143.938,148.876 143.797 C 148.597 143.552,147.595 142.997,147.421 142.990 C 147.375 142.988,147.027 142.877,146.648 142.743 C 146.080 142.543,144.560 142.500,138.062 142.500 C 133.720 142.500,130.167 142.463,130.167 142.419 C 130.167 142.281,131.545 140.644,132.042 140.192 C 132.202 140.045,132.333 139.826,132.333 139.703 C 132.333 139.581,132.408 139.527,132.500 139.583 C 132.592 139.640,132.667 139.618,132.667 139.534 C 132.667 139.450,132.835 139.186,133.042 138.947 C 133.248 138.708,133.621 138.264,133.870 137.961 C 134.120 137.657,134.570 137.134,134.870 136.798 C 135.171 136.461,135.655 135.901,135.947 135.552 C 136.239 135.202,136.708 134.644,136.989 134.311 C 137.643 133.537,137.715 133.715,136.125 132.158 C 134.268 130.339,134.308 130.354,133.644 131.209 M380.165 130.987 C 379.935 131.224,379.188 132.092,378.506 132.917 C 377.823 133.742,377.222 134.454,377.170 134.500 C 377.118 134.546,376.703 135.030,376.246 135.576 C 375.790 136.122,375.304 136.691,375.167 136.841 C 375.029 136.991,374.729 137.354,374.500 137.648 C 374.271 137.943,373.783 138.512,373.417 138.913 C 372.394 140.031,371.534 141.041,371.220 141.490 C 371.065 141.713,370.670 142.178,370.343 142.523 C 368.493 144.476,368.482 144.059,370.432 145.952 L 372.030 147.505 382.203 147.497 C 394.553 147.489,393.284 147.135,393.370 150.613 C 393.416 152.460,393.413 152.480,392.955 152.905 L 392.494 153.333 378.841 153.333 C 370.375 153.333,365.026 153.272,364.761 153.171 C 363.641 152.745,363.668 153.030,363.667 141.625 L 363.667 131.333 361.417 131.333 L 359.167 131.333 359.154 141.625 C 359.147 147.285,359.112 152.067,359.077 152.250 C 358.853 153.417,361.151 157.317,362.193 157.541 C 362.303 157.564,362.532 157.696,362.702 157.833 C 362.872 157.971,363.047 158.063,363.090 158.038 C 363.134 158.014,363.381 158.102,363.639 158.236 C 364.539 158.701,366.340 158.749,379.667 158.667 C 390.828 158.597,393.167 158.543,393.583 158.345 C 394.285 158.011,396.333 156.632,396.333 156.493 C 396.333 156.431,396.565 156.088,396.848 155.731 C 397.848 154.473,397.902 154.220,397.909 150.667 L 397.917 147.417 397.358 146.292 C 397.050 145.673,396.731 145.167,396.649 145.167 C 396.567 145.167,396.500 145.076,396.500 144.966 C 396.500 144.650,395.334 143.704,394.417 143.275 C 392.760 142.500,392.766 142.500,384.322 142.495 C 377.950 142.491,376.303 142.447,376.500 142.286 C 376.637 142.175,377.022 141.746,377.355 141.333 C 377.688 140.921,378.195 140.340,378.482 140.042 C 378.768 139.744,378.946 139.498,378.876 139.495 C 378.807 139.492,378.883 139.413,379.045 139.318 C 379.208 139.224,379.297 139.076,379.244 138.990 C 379.190 138.904,379.245 138.833,379.365 138.832 C 379.485 138.832,379.750 138.588,379.954 138.291 C 380.158 137.993,380.646 137.397,381.038 136.967 C 381.429 136.536,381.991 135.898,382.286 135.550 C 382.581 135.202,383.049 134.656,383.328 134.338 C 383.990 133.580,384.036 133.694,382.458 132.151 C 380.746 130.477,380.690 130.448,380.165 130.987 M22.669 142.125 C 22.676 153.146,22.760 154.667,23.364 154.667 C 23.439 154.667,23.500 154.817,23.500 155.000 C 23.500 155.183,23.575 155.333,23.667 155.333 C 23.758 155.333,23.833 155.446,23.833 155.583 C 23.833 155.721,23.890 155.834,23.958 155.834 C 24.027 155.834,24.233 156.060,24.417 156.337 C 24.694 156.756,25.876 157.711,26.167 157.752 C 26.212 157.759,26.501 157.898,26.808 158.061 C 28.436 158.929,33.080 158.918,34.990 158.042 C 35.366 157.870,35.629 157.684,35.574 157.630 C 35.520 157.575,35.629 157.482,35.816 157.422 C 36.004 157.362,36.302 157.130,36.479 156.906 C 36.776 156.527,37.470 156.477,37.239 156.851 C 37.188 156.933,37.226 157.000,37.323 157.000 C 37.421 157.000,37.663 157.163,37.862 157.362 C 39.793 159.293,43.885 159.091,46.010 156.958 C 46.458 156.509,46.705 156.376,46.628 156.625 C 46.481 157.100,48.137 158.193,49.469 158.501 C 50.936 158.839,53.458 158.514,54.180 157.893 C 54.325 157.769,54.508 157.667,54.587 157.667 C 54.666 157.667,55.016 157.360,55.365 156.986 C 55.714 156.612,56.000 156.386,56.000 156.485 C 56.000 157.157,58.117 158.400,59.564 158.576 C 60.940 158.745,68.954 158.702,69.299 158.524 C 69.455 158.444,69.670 158.410,69.776 158.448 C 69.883 158.486,70.018 158.439,70.078 158.342 C 70.138 158.246,70.332 158.167,70.510 158.167 C 70.688 158.167,70.833 158.092,70.833 158.000 C 70.833 157.908,70.971 157.833,71.139 157.833 C 71.307 157.833,71.663 157.610,71.931 157.338 C 72.198 157.066,72.478 156.841,72.554 156.838 C 72.911 156.826,73.890 155.422,74.427 154.153 C 74.877 153.088,74.880 153.061,74.959 148.125 L 75.039 143.167 72.686 143.167 L 70.333 143.167 70.333 147.696 L 70.333 152.226 69.729 152.780 L 69.125 153.333 64.415 153.333 C 60.651 153.333,59.592 153.284,59.144 153.090 C 58.836 152.956,58.654 152.843,58.740 152.840 C 58.826 152.836,58.766 152.738,58.606 152.620 C 58.199 152.323,58.194 152.256,58.179 147.451 L 58.167 143.153 55.875 143.176 L 53.583 143.198 53.631 147.468 C 53.682 152.083,53.631 152.432,52.827 153.004 C 52.312 153.372,50.000 153.496,50.000 153.157 C 50.000 153.060,49.931 153.023,49.846 153.075 C 49.319 153.401,48.858 151.794,49.156 150.667 C 49.241 150.346,49.351 149.821,49.402 149.500 C 49.453 149.179,49.567 148.542,49.656 148.083 C 49.865 147.012,50.164 145.282,50.166 145.141 C 50.166 145.081,49.810 144.998,49.375 144.955 C 48.940 144.913,48.396 144.826,48.167 144.761 C 46.511 144.295,45.635 144.320,45.558 144.833 C 45.479 145.368,44.673 149.621,44.405 150.917 C 44.348 151.192,44.262 151.625,44.214 151.881 C 43.917 153.463,40.484 153.908,39.380 152.508 C 39.234 152.322,39.176 151.135,39.172 148.250 L 39.167 144.250 36.875 144.250 L 34.583 144.250 34.577 148.000 C 34.574 150.063,34.523 151.900,34.465 152.083 C 34.407 152.267,34.353 152.467,34.346 152.528 C 34.235 153.498,28.696 153.703,27.778 152.770 C 27.155 152.138,27.191 152.817,27.178 141.375 L 27.167 131.333 24.914 131.333 L 22.662 131.333 22.669 142.125 M79.167 141.856 C 79.167 152.187,79.199 152.923,79.707 154.167 C 81.011 157.358,83.299 158.696,87.444 158.690 C 89.879 158.687,91.026 158.366,92.113 157.381 C 92.916 156.654,93.167 156.527,93.167 156.844 C 93.167 157.259,94.763 158.321,95.767 158.573 C 97.212 158.935,103.731 158.596,104.018 158.144 C 104.097 158.019,104.163 157.972,104.164 158.040 C 104.166 158.108,104.327 158.033,104.522 157.873 C 106.468 156.286,106.667 155.691,106.666 151.454 C 106.665 147.342,106.367 146.084,105.048 144.615 C 104.405 143.898,102.500 142.624,102.500 142.910 C 102.500 142.964,102.279 142.894,102.008 142.754 C 100.824 142.142,95.175 142.502,94.861 143.209 C 94.830 143.279,94.736 143.293,94.652 143.241 C 94.569 143.189,94.500 143.226,94.500 143.323 C 94.500 143.421,94.399 143.500,94.275 143.500 C 93.556 143.500,91.830 146.029,91.589 147.436 C 91.491 148.004,91.306 149.030,91.110 150.083 C 90.831 151.587,90.615 152.333,90.460 152.333 C 90.360 152.333,90.324 152.380,90.381 152.437 C 90.499 152.555,90.236 152.823,89.704 153.125 C 89.115 153.460,85.259 153.407,84.665 153.056 C 83.827 152.561,83.833 152.650,83.833 141.659 L 83.833 131.333 81.500 131.333 L 79.167 131.333 79.167 141.856 M311.169 142.076 C 311.173 148.845,311.236 152.856,311.338 152.920 C 311.427 152.975,311.500 153.155,311.500 153.321 C 311.500 153.692,312.188 155.396,312.369 155.472 C 312.441 155.503,312.500 155.598,312.500 155.683 C 312.500 155.921,314.038 157.496,314.183 157.407 C 314.253 157.363,314.353 157.396,314.404 157.480 C 314.564 157.738,315.708 158.268,316.565 158.481 C 317.983 158.833,328.284 158.731,328.917 158.358 C 329.008 158.304,329.228 158.237,329.405 158.210 C 330.136 158.096,331.716 157.459,332.000 157.163 C 332.046 157.116,332.271 156.993,332.500 156.891 C 333.026 156.657,334.482 155.337,337.226 152.605 C 339.831 150.012,340.339 149.726,341.676 150.100 C 343.602 150.639,343.671 150.623,343.921 149.583 C 343.943 149.492,343.974 149.379,343.989 149.333 C 344.004 149.287,344.228 148.612,344.486 147.833 C 345.033 146.183,345.046 146.243,344.137 146.098 C 343.750 146.036,343.354 145.926,343.258 145.854 C 343.037 145.687,340.888 145.037,340.333 144.968 C 340.104 144.940,339.818 144.823,339.696 144.708 C 339.575 144.594,339.350 144.501,339.196 144.502 C 338.962 144.504,337.217 144.016,336.333 143.701 C 336.196 143.652,336.046 143.605,336.000 143.597 C 335.914 143.582,335.600 143.486,333.167 142.739 C 332.387 142.500,331.570 142.270,331.349 142.227 C 331.129 142.185,330.810 142.077,330.641 141.986 C 330.472 141.896,330.333 141.861,330.333 141.909 C 330.333 141.958,330.026 141.875,329.651 141.724 C 328.751 141.364,325.172 141.314,325.165 141.661 C 325.164 141.710,324.845 141.900,324.456 142.083 C 322.909 142.813,321.671 144.736,321.271 147.027 C 321.229 147.271,321.120 147.609,321.030 147.777 C 320.733 148.332,320.683 149.139,320.932 149.346 C 321.061 149.453,321.167 149.497,321.167 149.444 C 321.167 149.391,321.461 149.452,321.820 149.579 C 322.179 149.705,322.685 149.848,322.945 149.895 C 323.615 150.016,324.044 150.123,324.337 150.239 C 324.570 150.332,324.655 150.210,325.080 149.167 C 325.098 149.121,325.246 148.785,325.408 148.421 C 325.570 148.057,325.735 147.578,325.775 147.357 C 326.013 146.043,326.638 145.473,327.538 145.748 C 327.930 145.868,328.362 145.992,328.500 146.024 C 328.637 146.057,328.787 146.126,328.833 146.178 C 328.911 146.266,330.518 146.763,331.237 146.921 C 331.413 146.960,332.313 147.223,333.237 147.506 C 334.161 147.789,335.036 148.054,335.181 148.096 C 335.375 148.152,335.105 148.514,334.181 149.441 C 333.486 150.139,332.932 150.764,332.950 150.831 C 332.969 150.898,332.794 151.054,332.562 151.178 C 332.331 151.302,332.069 151.538,331.981 151.702 C 331.893 151.866,331.721 152.000,331.598 152.000 C 331.475 152.000,331.281 152.112,331.168 152.248 C 331.055 152.385,330.902 152.459,330.829 152.414 C 330.755 152.368,330.670 152.403,330.639 152.491 C 330.445 153.045,328.620 153.233,322.816 153.293 L 317.049 153.353 316.529 152.916 C 315.684 152.205,315.669 151.991,315.668 141.292 L 315.667 131.333 313.414 131.333 L 311.162 131.333 311.169 142.076 M325.611 133.111 C 325.550 133.172,325.500 134.260,325.500 135.528 L 325.500 137.833 327.924 137.833 L 330.347 137.833 330.324 135.417 L 330.301 133.000 328.012 133.000 C 326.752 133.000,325.672 133.050,325.611 133.111 M226.116 134.440 C 226.052 134.503,226.000 139.976,226.000 146.602 L 226.000 158.649 228.258 158.699 C 230.399 158.747,230.519 158.733,230.595 158.417 C 230.639 158.233,230.655 152.758,230.629 146.250 L 230.583 134.417 228.407 134.370 C 227.211 134.345,226.179 134.376,226.116 134.440 M70.250 137.208 L 70.250 139.583 72.632 139.533 L 75.014 139.483 74.991 137.158 L 74.967 134.833 72.609 134.833 L 70.250 134.833 70.250 137.208 M262.000 137.208 L 262.000 139.583 264.417 139.583 L 266.833 139.583 266.833 137.208 L 266.833 134.833 264.417 134.833 L 262.000 134.833 262.000 137.208 M302.167 137.208 L 302.167 139.583 304.542 139.583 L 306.917 139.583 306.917 137.208 L 306.917 134.833 304.542 134.833 L 302.167 134.833 302.167 137.208 M40.000 138.542 L 39.999 140.917 42.375 140.867 L 44.750 140.818 44.700 138.492 L 44.649 136.167 42.325 136.167 L 40.000 136.167 40.000 138.542 M46.667 138.495 L 46.667 140.833 48.820 140.833 C 50.004 140.833,51.093 140.880,51.241 140.936 C 51.481 141.028,51.505 140.789,51.463 138.645 L 51.417 136.250 49.042 136.204 L 46.667 136.158 46.667 138.495 M285.631 138.190 L 285.583 139.714 284.913 139.911 C 284.545 140.020,284.158 140.080,284.054 140.046 C 283.949 140.011,283.815 140.061,283.755 140.158 C 283.696 140.254,283.404 140.333,283.107 140.333 C 282.810 140.333,282.495 140.404,282.408 140.490 C 282.321 140.576,281.931 140.684,281.541 140.731 C 281.150 140.777,280.746 140.867,280.643 140.931 C 280.539 140.995,280.334 141.060,280.186 141.074 C 278.976 141.194,276.167 143.415,276.167 144.251 C 276.167 144.388,276.100 144.500,276.019 144.500 C 275.938 144.500,275.817 144.669,275.750 144.875 C 275.573 145.418,275.545 145.495,275.508 145.542 C 275.474 145.584,275.374 145.968,275.283 146.412 C 275.255 146.547,275.198 146.690,275.158 146.731 C 274.964 146.924,275.148 151.628,275.375 152.275 C 275.651 153.065,276.813 154.649,277.125 154.660 C 277.240 154.663,277.333 154.724,277.333 154.795 C 277.333 155.608,284.650 156.056,286.083 155.330 C 286.569 155.084,287.333 155.551,287.333 156.094 C 287.333 156.312,288.785 157.629,289.154 157.746 C 289.344 157.806,289.500 157.911,289.500 157.978 C 289.500 158.680,300.927 159.056,302.083 158.392 C 302.267 158.286,302.773 158.024,303.208 157.809 C 303.644 157.593,304.000 157.361,304.000 157.292 C 304.000 157.223,304.072 157.167,304.159 157.167 C 304.547 157.167,305.772 155.629,306.352 154.416 C 306.741 153.601,306.751 153.472,306.798 148.375 L 306.847 143.167 304.632 143.167 L 302.417 143.167 302.417 147.625 C 302.417 153.846,302.847 153.455,296.141 153.333 L 291.532 153.250 290.974 152.667 L 290.417 152.083 290.369 144.375 L 290.321 136.667 288.000 136.667 L 285.679 136.667 285.631 138.190 M5.452 139.440 C 5.112 139.957,4.833 140.444,4.833 140.523 C 4.833 140.602,4.773 140.667,4.699 140.667 C 4.518 140.667,3.622 142.344,3.740 142.462 C 3.791 142.513,3.833 142.500,3.833 142.433 C 3.833 142.365,3.943 142.409,4.078 142.530 C 4.621 143.020,4.826 143.167,4.967 143.167 C 5.048 143.167,5.251 143.317,5.417 143.500 C 5.583 143.683,5.819 143.833,5.942 143.833 C 6.328 143.833,6.189 144.082,5.625 144.403 C 4.501 145.042,2.910 146.997,2.767 147.917 C 2.752 148.008,2.668 148.196,2.580 148.333 C 1.805 149.542,2.649 154.795,3.848 156.228 C 3.935 156.332,4.136 156.571,4.295 156.761 C 6.200 159.031,11.267 159.942,13.961 158.498 C 14.300 158.316,14.635 158.167,14.704 158.167 C 14.997 158.167,17.000 156.272,17.000 155.994 C 17.000 155.919,17.094 155.758,17.208 155.637 C 17.405 155.429,17.631 154.990,17.988 154.125 C 18.612 152.612,18.556 148.609,17.897 147.583 C 17.779 147.400,17.670 147.175,17.654 147.083 C 17.574 146.629,17.375 146.352,16.596 145.613 C 15.292 144.373,15.240 144.333,14.944 144.333 C 14.792 144.333,14.667 144.216,14.667 144.073 C 14.667 143.931,14.601 143.854,14.521 143.904 C 14.441 143.953,14.193 143.826,13.970 143.622 C 13.490 143.180,11.877 142.167,11.656 142.167 C 11.570 142.167,11.500 142.092,11.500 142.000 C 11.500 141.908,11.395 141.833,11.267 141.833 C 11.140 141.833,10.858 141.647,10.642 141.420 C 10.427 141.192,10.156 141.004,10.042 141.003 C 9.927 141.001,9.833 140.941,9.833 140.869 C 9.833 140.758,9.314 140.420,7.340 139.249 C 7.185 139.157,6.927 138.950,6.767 138.791 C 6.312 138.336,6.116 138.433,5.452 139.440 M181.288 140.434 C 181.220 140.502,180.315 140.631,179.083 140.749 C 178.717 140.784,178.154 140.850,177.833 140.894 C 177.512 140.939,176.912 141.019,176.500 141.072 C 176.088 141.124,175.487 141.268,175.167 141.392 C 174.846 141.515,174.340 141.710,174.042 141.825 C 173.744 141.939,173.500 142.095,173.500 142.172 C 173.500 142.248,173.342 142.361,173.149 142.422 C 172.153 142.738,169.924 145.533,170.129 146.208 C 170.150 146.277,170.092 146.333,170.000 146.333 C 169.908 146.333,169.847 146.390,169.863 146.458 C 169.879 146.527,169.795 146.921,169.676 147.333 C 169.411 148.257,169.331 154.099,169.583 154.134 C 169.903 154.178,171.419 154.485,171.750 154.574 C 171.933 154.622,172.473 154.770,172.950 154.903 C 173.426 155.035,174.064 155.185,174.366 155.235 C 174.669 155.286,175.104 155.372,175.333 155.428 C 175.563 155.483,176.070 155.594,176.461 155.676 C 176.852 155.757,177.326 155.907,177.515 156.008 C 177.705 156.109,177.957 156.155,178.076 156.109 C 178.195 156.063,178.364 156.097,178.450 156.184 C 178.537 156.270,178.930 156.375,179.324 156.416 C 180.709 156.560,180.704 156.554,180.597 157.850 C 180.465 159.441,179.692 160.343,178.064 160.805 C 176.712 161.189,168.769 161.045,167.560 160.614 C 164.857 159.652,164.500 158.724,164.500 152.657 L 164.500 147.990 162.292 148.037 L 160.083 148.083 160.039 153.417 C 159.995 158.782,160.111 160.087,160.693 160.742 C 160.770 160.829,160.833 161.019,160.833 161.165 C 160.833 161.650,162.564 163.805,163.417 164.382 C 166.116 166.208,165.867 166.161,173.000 166.162 C 178.542 166.163,178.906 166.150,179.106 165.949 C 179.170 165.886,179.393 165.833,179.601 165.833 C 179.810 165.833,180.027 165.758,180.083 165.667 C 180.140 165.575,180.332 165.500,180.510 165.500 C 180.688 165.500,180.833 165.433,180.833 165.351 C 180.833 165.270,181.019 165.156,181.245 165.099 C 182.232 164.852,184.865 161.541,184.687 160.772 C 184.669 160.693,184.761 160.463,184.893 160.262 C 185.178 159.827,185.199 154.904,184.917 154.702 C 184.825 154.637,184.730 154.484,184.705 154.364 C 184.577 153.746,182.970 152.404,182.217 152.287 C 182.052 152.261,181.825 152.183,181.714 152.114 C 181.602 152.044,181.206 151.955,180.833 151.917 C 180.461 151.878,180.078 151.798,179.984 151.740 C 179.890 151.682,179.574 151.596,179.281 151.548 C 178.553 151.431,178.250 151.365,178.250 151.325 C 178.250 151.306,178.092 151.274,177.898 151.253 C 177.705 151.232,177.330 151.154,177.065 151.080 C 176.800 151.006,176.490 150.961,176.377 150.980 C 176.263 150.998,176.030 150.939,175.858 150.847 C 175.686 150.755,175.292 150.636,174.981 150.584 C 173.806 150.385,173.807 150.385,173.903 149.444 C 174.026 148.237,174.051 148.154,174.490 147.500 C 174.980 146.771,176.137 146.187,177.333 146.067 C 178.377 145.962,178.553 145.941,180.500 145.681 C 181.279 145.577,182.067 145.462,182.250 145.425 C 182.433 145.389,182.716 145.353,182.878 145.346 C 183.097 145.337,183.150 145.237,183.085 144.958 C 183.036 144.752,182.965 144.283,182.927 143.917 C 182.859 143.256,182.680 141.892,182.578 141.250 C 182.549 141.067,182.519 140.793,182.512 140.642 C 182.501 140.390,181.501 140.221,181.288 140.434 M208.750 142.667 C 208.693 142.758,208.500 142.833,208.321 142.833 C 208.012 142.833,207.539 143.049,207.041 143.417 C 206.541 143.786,205.454 144.833,205.570 144.833 C 205.639 144.833,205.475 145.115,205.207 145.458 C 204.680 146.133,204.521 146.547,204.392 147.581 C 204.346 147.946,204.244 148.324,204.164 148.419 C 204.085 148.515,204.019 148.816,204.018 149.088 C 204.016 149.637,203.953 149.998,203.817 150.250 C 203.639 150.581,203.555 152.341,203.659 153.583 C 203.707 154.163,204.496 156.000,204.697 156.000 C 204.772 156.000,204.833 156.085,204.833 156.189 C 204.833 156.293,205.021 156.552,205.250 156.765 C 205.479 156.977,205.667 157.113,205.667 157.067 C 205.667 157.021,205.843 157.174,206.059 157.407 C 206.396 157.770,207.367 158.305,207.917 158.430 C 208.821 158.637,209.392 158.676,211.389 158.668 C 213.021 158.662,213.866 158.588,214.279 158.415 L 214.864 158.171 214.747 159.044 C 214.683 159.524,214.526 160.035,214.399 160.180 C 214.271 160.325,214.167 160.524,214.167 160.624 C 214.167 161.099,212.205 162.627,211.417 162.766 C 211.325 162.782,211.213 162.807,211.167 162.822 C 205.771 164.604,205.622 164.682,206.026 165.500 C 206.093 165.637,206.271 166.162,206.421 166.667 C 206.570 167.171,206.736 167.696,206.788 167.833 C 206.841 167.971,206.892 168.158,206.901 168.250 C 206.977 169.037,207.188 169.044,209.261 168.328 C 210.355 167.949,211.344 167.633,211.458 167.625 C 211.573 167.618,211.667 167.549,211.667 167.472 C 211.667 167.396,211.854 167.333,212.083 167.333 C 212.313 167.333,212.500 167.246,212.500 167.139 C 212.500 167.032,212.547 166.991,212.604 167.049 C 212.662 167.106,212.915 167.047,213.167 166.917 C 213.418 166.786,213.671 166.727,213.729 166.784 C 213.786 166.842,213.833 166.801,213.833 166.694 C 213.833 166.587,213.983 166.500,214.167 166.500 C 214.350 166.500,214.500 166.425,214.500 166.333 C 214.500 166.242,214.594 166.165,214.708 166.164 C 214.934 166.160,215.673 165.591,216.653 164.667 C 217.546 163.823,218.446 162.440,218.599 161.674 C 218.625 161.540,218.721 161.278,218.812 161.090 C 219.292 160.099,219.346 159.336,219.346 153.592 C 219.347 147.583,219.279 146.800,218.708 146.196 C 218.594 146.075,218.500 145.883,218.500 145.770 C 218.500 145.656,218.369 145.413,218.208 145.231 C 218.048 145.048,217.835 144.754,217.734 144.578 C 217.427 144.038,215.744 143.002,214.755 142.744 C 213.658 142.458,208.917 142.397,208.750 142.667 M239.669 142.840 C 239.350 143.019,238.994 143.167,238.878 143.167 C 238.762 143.167,238.667 143.242,238.667 143.333 C 238.667 143.425,238.610 143.484,238.542 143.465 C 238.323 143.403,237.667 143.905,237.667 144.133 C 237.667 144.254,237.592 144.307,237.500 144.250 C 237.408 144.193,237.333 144.212,237.333 144.292 C 237.333 144.372,237.188 144.593,237.011 144.784 C 236.411 145.427,235.871 146.742,235.586 148.250 C 235.431 149.075,235.230 150.125,235.141 150.583 C 234.873 151.957,234.852 152.875,235.070 153.667 C 235.356 154.702,235.540 155.178,235.883 155.764 C 236.121 156.170,237.833 157.894,237.833 157.728 C 237.833 157.666,237.965 157.730,238.125 157.871 C 238.922 158.572,243.702 158.994,245.332 158.507 C 246.180 158.254,246.196 158.266,246.114 159.054 C 245.980 160.342,244.595 162.165,243.542 162.439 C 243.335 162.492,243.167 162.607,243.167 162.695 C 243.167 162.782,243.092 162.807,243.000 162.750 C 242.908 162.693,242.740 162.706,242.625 162.778 C 242.381 162.931,239.407 163.979,238.908 164.087 C 237.388 164.417,236.844 165.062,237.511 165.742 C 237.597 165.829,237.667 166.068,237.667 166.273 C 237.667 166.479,237.743 166.694,237.836 166.752 C 237.929 166.809,237.965 166.921,237.917 167.000 C 237.868 167.079,237.905 167.191,238.000 167.250 C 238.095 167.309,238.130 167.424,238.079 167.507 C 238.028 167.589,238.099 167.875,238.237 168.141 C 238.374 168.407,238.441 168.670,238.386 168.725 C 238.107 169.004,238.874 168.967,239.755 168.660 C 240.302 168.469,240.844 168.305,240.958 168.295 C 241.073 168.286,241.167 168.231,241.167 168.174 C 241.167 168.117,241.329 168.059,241.527 168.044 C 241.867 168.018,243.444 167.465,244.005 167.175 C 244.146 167.102,244.497 166.991,244.786 166.927 C 245.074 166.864,245.401 166.703,245.511 166.570 C 245.622 166.436,245.955 166.212,246.250 166.072 C 246.546 165.932,246.965 165.652,247.182 165.450 C 247.398 165.248,247.638 165.083,247.715 165.083 C 247.890 165.083,248.820 164.025,249.204 163.391 C 249.361 163.130,249.561 162.804,249.647 162.667 C 250.018 162.073,250.345 161.164,250.619 159.960 L 250.913 158.670 255.833 158.679 C 258.863 158.685,260.929 158.622,261.210 158.515 C 261.461 158.420,261.667 158.385,261.667 158.437 C 261.667 158.490,261.933 158.376,262.260 158.183 C 262.586 157.991,262.961 157.833,263.093 157.833 C 263.225 157.833,263.333 157.758,263.333 157.667 C 263.333 157.575,263.421 157.500,263.528 157.500 C 263.634 157.500,264.165 157.050,264.706 156.500 C 265.248 155.950,265.643 155.500,265.584 155.500 C 265.525 155.500,265.620 155.294,265.795 155.042 C 266.609 153.870,266.726 153.037,266.799 147.958 L 266.867 143.167 264.517 143.167 L 262.167 143.167 262.167 147.575 C 262.167 152.142,262.091 152.729,261.475 152.925 C 261.305 152.978,261.167 153.092,261.167 153.178 C 261.167 153.271,259.084 153.333,256.000 153.333 L 250.833 153.333 250.821 150.875 C 250.806 148.158,250.805 148.141,250.413 146.934 C 249.949 145.505,248.101 143.148,247.659 143.421 C 247.572 143.475,247.500 143.440,247.500 143.343 C 247.500 143.246,247.387 143.167,247.250 143.167 C 247.112 143.167,247.000 143.110,247.000 143.041 C 247.000 142.443,240.681 142.270,239.669 142.840 M197.125 144.291 L 194.833 144.343 194.829 151.296 C 194.827 155.409,194.756 158.556,194.655 159.000 C 194.446 159.922,194.131 160.667,193.949 160.667 C 193.875 160.667,193.855 160.734,193.906 160.816 C 193.957 160.898,193.886 161.008,193.749 161.061 C 193.612 161.113,193.500 161.271,193.500 161.411 C 193.500 161.552,193.397 161.667,193.270 161.667 C 193.144 161.667,192.944 161.783,192.825 161.926 C 192.644 162.145,191.803 162.581,191.372 162.680 C 191.305 162.696,190.537 162.967,189.667 163.282 C 188.796 163.598,187.933 163.895,187.750 163.943 C 185.692 164.473,185.409 164.737,185.993 165.583 C 186.056 165.675,186.247 166.237,186.416 166.833 C 186.585 167.429,186.785 167.988,186.862 168.075 C 186.938 168.162,187.000 168.373,187.000 168.545 C 187.000 168.759,187.091 168.832,187.292 168.779 C 187.452 168.737,187.958 168.608,188.417 168.493 C 188.875 168.378,189.321 168.220,189.408 168.142 C 189.495 168.064,189.659 168.000,189.772 168.000 C 189.886 168.000,190.189 167.913,190.447 167.806 C 190.706 167.699,190.954 167.599,191.000 167.583 C 191.046 167.568,191.280 167.473,191.521 167.373 C 191.762 167.273,192.249 167.112,192.604 167.016 C 194.146 166.600,197.333 164.386,197.333 163.732 C 197.333 163.604,197.408 163.500,197.500 163.500 C 197.592 163.500,197.667 163.387,197.667 163.250 C 197.667 163.112,197.732 163.000,197.813 163.000 C 197.941 163.000,198.725 161.385,198.703 161.167 C 198.699 161.121,198.763 161.001,198.847 160.900 C 199.327 160.322,199.934 143.819,199.462 144.203 C 199.437 144.223,198.385 144.263,197.125 144.291 M352.125 144.291 L 349.833 144.343 349.820 151.546 C 349.812 155.508,349.772 158.956,349.731 159.209 C 349.542 160.356,347.782 162.387,346.792 162.598 C 346.723 162.613,346.648 162.640,346.625 162.659 C 346.602 162.677,346.471 162.716,346.333 162.744 C 345.899 162.835,343.931 163.504,343.576 163.682 C 343.389 163.776,343.110 163.871,342.956 163.894 C 342.802 163.916,342.624 163.987,342.560 164.051 C 342.497 164.114,342.316 164.167,342.158 164.167 C 342.000 164.167,341.662 164.275,341.406 164.408 C 341.150 164.541,340.882 164.614,340.811 164.570 C 340.654 164.473,341.093 166.043,341.427 166.775 C 341.559 167.064,341.667 167.458,341.667 167.650 C 341.667 167.843,341.750 168.000,341.851 168.000 C 341.953 168.000,341.997 168.101,341.950 168.223 C 341.798 168.619,342.099 168.886,342.565 168.770 C 342.803 168.710,343.018 168.667,343.041 168.675 C 343.064 168.684,343.303 168.576,343.571 168.437 C 343.840 168.298,344.121 168.222,344.196 168.268 C 344.272 168.315,344.333 168.282,344.333 168.195 C 344.333 168.108,344.615 167.985,344.958 167.920 C 345.302 167.856,345.658 167.743,345.750 167.669 C 345.842 167.595,346.410 167.383,347.013 167.198 C 348.241 166.821,349.721 166.168,349.806 165.966 C 349.836 165.893,349.959 165.833,350.079 165.833 C 350.342 165.833,352.902 163.346,352.772 163.217 C 352.722 163.167,352.856 162.891,353.069 162.604 C 354.229 161.049,354.345 160.048,354.385 151.270 C 354.402 147.363,354.417 144.183,354.417 144.203 C 354.417 144.223,353.385 144.263,352.125 144.291 M285.667 147.417 L 285.667 150.333 282.561 150.333 L 279.456 150.333 279.542 149.125 C 279.590 148.460,279.764 147.617,279.929 147.250 C 280.094 146.883,280.215 146.527,280.198 146.458 C 280.181 146.390,280.292 146.333,280.444 146.333 C 280.597 146.333,280.671 146.282,280.608 146.219 C 280.515 146.126,281.213 145.718,281.708 145.577 C 281.777 145.558,281.852 145.527,281.875 145.508 C 281.940 145.456,282.527 145.332,283.143 145.242 C 283.451 145.196,283.845 145.083,284.018 144.990 C 284.191 144.898,284.333 144.853,284.333 144.891 C 284.333 144.929,284.615 144.860,284.958 144.738 C 285.302 144.615,285.602 144.511,285.625 144.507 C 285.648 144.503,285.667 145.813,285.667 147.417 M10.868 147.163 C 11.038 147.322,11.474 147.594,11.837 147.768 C 12.200 147.941,12.497 148.140,12.498 148.208 C 12.499 148.277,12.596 148.333,12.713 148.333 C 13.548 148.333,14.189 150.876,13.687 152.197 C 13.606 152.410,13.536 152.645,13.531 152.721 C 13.467 153.698,9.741 154.498,8.457 153.810 C 8.088 153.613,7.546 153.112,7.195 152.644 C 6.937 152.300,6.759 150.534,6.904 149.761 C 7.012 149.184,8.510 147.500,8.916 147.500 C 9.012 147.500,9.276 147.318,9.504 147.095 C 9.952 146.656,10.344 146.675,10.868 147.163 M101.983 148.508 C 102.084 148.846,102.167 150.070,102.167 151.228 L 102.167 153.333 99.125 153.331 C 95.135 153.327,95.149 153.341,95.755 150.344 C 96.312 147.589,96.189 147.689,99.083 147.624 C 101.345 147.574,101.739 147.694,101.983 148.508 M214.458 148.155 C 214.809 148.556,214.833 148.734,214.833 150.958 L 214.833 153.333 211.840 153.333 C 207.854 153.333,207.788 153.271,208.515 150.215 C 208.706 149.409,208.879 148.660,208.898 148.550 C 209.097 147.430,213.547 147.114,214.458 148.155 M245.820 147.915 C 246.032 148.127,246.094 148.679,246.137 150.755 L 246.190 153.333 243.353 153.333 C 239.601 153.333,239.302 153.170,239.683 151.333 C 239.769 150.921,239.903 150.208,239.980 149.750 C 240.145 148.780,240.555 147.777,240.719 147.942 C 240.782 148.004,240.833 147.974,240.833 147.873 C 240.833 147.456,245.399 147.494,245.820 147.915 " stroke="none" fill="#14143c" fill-rule="evenodd" style="background-color:red;"/><path id="path2" d="M217.734 31.333 C 217.626 31.440,210.986 31.514,198.826 31.542 L 180.083 31.585 198.855 31.626 C 215.370 31.662,217.651 31.637,217.833 31.417 C 218.065 31.137,217.992 31.075,217.734 31.333 M73.083 31.500 L 49.250 31.585 73.032 31.626 C 88.751 31.653,96.849 31.610,96.917 31.500 C 96.973 31.408,96.996 31.352,96.968 31.374 C 96.940 31.397,86.192 31.453,73.083 31.500 M12.138 31.625 C 17.485 31.649,26.185 31.649,31.471 31.625 C 36.758 31.601,32.383 31.581,21.750 31.581 C 11.117 31.581,6.791 31.601,12.138 31.625 M11.721 57.625 C 16.839 57.649,25.164 57.649,30.221 57.625 C 35.279 57.600,31.092 57.580,20.917 57.580 C 10.742 57.580,6.604 57.601,11.721 57.625 M94.590 57.655 C 94.538 57.740,94.582 57.865,94.690 57.931 C 94.811 58.006,94.840 57.979,94.766 57.860 C 94.677 57.715,100.551 57.657,118.449 57.625 L 142.250 57.582 118.468 57.541 C 103.922 57.516,94.649 57.560,94.590 57.655 M189.458 57.625 C 194.523 57.649,202.810 57.649,207.875 57.625 C 212.940 57.600,208.796 57.580,198.667 57.580 C 188.537 57.580,184.394 57.600,189.458 57.625 M368.054 57.625 C 373.080 57.649,381.255 57.649,386.221 57.625 C 391.187 57.600,387.075 57.580,377.083 57.580 C 367.092 57.580,363.029 57.600,368.054 57.625 M358.743 64.750 C 358.743 68.692,358.765 70.280,358.792 68.280 C 358.818 66.280,358.818 63.055,358.791 61.114 C 358.765 59.172,358.743 60.808,358.743 64.750 M221.393 80.629 C 221.525 80.842,222.500 81.564,222.500 81.448 C 222.500 81.407,222.225 81.163,221.888 80.906 C 221.552 80.650,221.329 80.525,221.393 80.629 M27.245 141.417 C 27.245 147.008,27.266 149.272,27.292 146.446 C 27.317 143.621,27.317 139.046,27.292 136.280 C 27.266 133.513,27.245 135.825,27.245 141.417 M226.801 131.458 C 227.929 131.487,229.729 131.487,230.801 131.458 C 231.873 131.429,230.950 131.405,228.750 131.405 C 226.550 131.405,225.673 131.429,226.801 131.458 M315.745 141.417 C 315.745 147.008,315.766 149.272,315.792 146.446 C 315.817 143.621,315.817 139.046,315.792 136.280 C 315.766 133.513,315.745 135.825,315.745 141.417 M359.078 141.667 C 359.078 147.396,359.099 149.740,359.125 146.875 C 359.150 144.010,359.150 139.323,359.125 136.458 C 359.099 133.594,359.078 135.938,359.078 141.667 M70.242 137.375 L 70.250 139.583 72.583 139.590 L 74.917 139.597 72.630 139.544 L 70.343 139.491 70.289 137.329 L 70.235 135.166 70.242 137.375 M306.869 137.287 L 306.833 139.491 304.542 139.542 L 302.250 139.594 304.547 139.630 C 307.255 139.673,307.028 139.907,306.958 137.157 L 306.905 135.083 306.869 137.287 M44.732 138.417 C 44.733 139.700,44.759 140.203,44.791 139.534 C 44.822 138.866,44.822 137.816,44.790 137.201 C 44.758 136.586,44.732 137.133,44.732 138.417 M263.201 139.623 C 263.816 139.655,264.866 139.656,265.534 139.624 C 266.203 139.592,265.700 139.566,264.417 139.566 C 263.133 139.565,262.586 139.591,263.201 139.623 M41.292 140.957 C 41.956 140.989,43.044 140.989,43.708 140.957 C 44.373 140.925,43.829 140.900,42.500 140.900 C 41.171 140.900,40.627 140.925,41.292 140.957 M47.701 140.957 C 48.316 140.989,49.366 140.989,50.034 140.957 C 50.703 140.926,50.200 140.899,48.917 140.899 C 47.633 140.899,47.086 140.925,47.701 140.957 M53.575 143.378 C 53.531 143.494,53.514 145.500,53.539 147.836 L 53.584 152.083 53.667 147.625 C 53.713 145.173,53.729 143.166,53.703 143.167 C 53.677 143.167,53.620 143.262,53.575 143.378 M306.906 147.583 C 306.906 150.058,306.929 151.094,306.958 149.885 C 306.986 148.676,306.986 146.651,306.958 145.385 C 306.930 144.119,306.906 145.108,306.906 147.583 M302.406 147.417 C 302.405 149.708,302.429 150.669,302.458 149.551 C 302.487 148.434,302.487 146.559,302.458 145.385 C 302.429 144.211,302.406 145.125,302.406 147.417 M35.708 144.290 C 36.327 144.322,37.340 144.322,37.958 144.290 C 38.577 144.258,38.071 144.232,36.833 144.232 C 35.596 144.232,35.090 144.258,35.708 144.290 M112.875 144.290 C 113.494 144.322,114.506 144.322,115.125 144.290 C 115.744 144.258,115.237 144.232,114.000 144.232 C 112.763 144.232,112.256 144.258,112.875 144.290 M195.868 144.290 C 196.482 144.322,197.532 144.322,198.201 144.291 C 198.870 144.259,198.367 144.233,197.083 144.232 C 195.800 144.232,195.253 144.258,195.868 144.290 M352.081 144.289 L 354.330 144.343 354.376 151.046 L 354.422 157.750 354.419 151.000 L 354.417 144.250 352.125 144.243 L 349.833 144.235 352.081 144.289 M34.571 148.083 C 34.571 150.100,34.595 150.902,34.625 149.866 C 34.654 148.829,34.654 147.179,34.624 146.199 C 34.595 145.219,34.571 146.067,34.571 148.083 M275.058 149.333 C 275.058 150.112,275.087 150.431,275.122 150.042 C 275.157 149.652,275.157 149.015,275.122 148.625 C 275.087 148.235,275.058 148.554,275.058 149.333 M219.408 153.500 C 219.408 156.387,219.430 157.569,219.458 156.125 C 219.486 154.681,219.486 152.319,219.458 150.875 C 219.430 149.431,219.408 150.612,219.408 153.500 M279.553 149.333 C 279.553 149.929,279.584 150.173,279.621 149.875 C 279.658 149.577,279.658 149.090,279.621 148.792 C 279.584 148.494,279.553 148.737,279.553 149.333 M169.364 151.615 C 169.347 152.916,169.390 154.015,169.458 154.058 C 169.527 154.101,169.563 153.412,169.539 152.526 C 169.457 149.556,169.395 149.232,169.364 151.615 M173.872 149.833 C 173.872 150.154,173.906 150.285,173.948 150.125 C 173.990 149.965,173.990 149.702,173.948 149.542 C 173.906 149.381,173.872 149.512,173.872 149.833 M6.885 150.583 C 6.886 151.133,6.917 151.338,6.954 151.039 C 6.991 150.739,6.990 150.289,6.952 150.039 C 6.914 149.788,6.884 150.033,6.885 150.583 M81.000 156.385 C 81.000 156.414,81.244 156.658,81.542 156.927 L 82.083 157.417 81.594 156.875 C 81.138 156.370,81.000 156.257,81.000 156.385 M30.121 158.787 C 30.417 158.824,30.942 158.824,31.288 158.788 C 31.634 158.752,31.392 158.722,30.750 158.721 C 30.108 158.721,29.825 158.750,30.121 158.787 M63.200 158.791 C 63.997 158.821,65.347 158.821,66.200 158.791 C 67.052 158.761,66.400 158.736,64.750 158.736 C 63.100 158.735,62.402 158.760,63.200 158.791 M86.792 158.787 C 87.090 158.824,87.577 158.824,87.875 158.787 C 88.173 158.750,87.929 158.720,87.333 158.720 C 86.737 158.720,86.494 158.750,86.792 158.787 M98.292 158.790 C 98.956 158.822,100.044 158.822,100.708 158.790 C 101.373 158.759,100.829 158.733,99.500 158.733 C 98.171 158.733,97.627 158.759,98.292 158.790 M125.292 158.792 C 128.890 158.817,134.777 158.817,138.375 158.792 C 141.973 158.767,139.029 158.746,131.833 158.746 C 124.638 158.746,121.694 158.767,125.292 158.792 M210.625 158.789 C 211.015 158.824,211.652 158.824,212.042 158.789 C 212.431 158.754,212.112 158.725,211.333 158.725 C 210.554 158.725,210.235 158.754,210.625 158.789 M227.042 158.790 C 227.660 158.822,228.673 158.822,229.292 158.790 C 229.910 158.758,229.404 158.732,228.167 158.732 C 226.929 158.732,226.423 158.758,227.042 158.790 M241.792 158.789 C 242.181 158.824,242.819 158.824,243.208 158.789 C 243.598 158.754,243.279 158.725,242.500 158.725 C 241.721 158.725,241.402 158.754,241.792 158.789 M251.458 158.789 C 251.848 158.824,252.485 158.824,252.875 158.789 C 253.265 158.754,252.946 158.725,252.167 158.725 C 251.387 158.725,251.069 158.754,251.458 158.789 M255.042 158.791 C 255.844 158.821,257.156 158.821,257.958 158.791 C 258.760 158.760,258.104 158.735,256.500 158.735 C 254.896 158.735,254.240 158.760,255.042 158.791 M294.366 158.791 C 295.346 158.820,296.996 158.820,298.032 158.791 C 299.069 158.762,298.267 158.738,296.250 158.738 C 294.233 158.738,293.385 158.762,294.366 158.791 M320.208 158.791 C 321.194 158.821,322.806 158.821,323.792 158.791 C 324.777 158.762,323.971 158.737,322.000 158.737 C 320.029 158.737,319.223 158.762,320.208 158.791 M372.554 158.792 C 376.021 158.817,381.646 158.817,385.054 158.792 C 388.462 158.766,385.625 158.746,378.750 158.746 C 371.875 158.746,369.087 158.766,372.554 158.792 M170.968 166.291 C 172.096 166.320,173.896 166.320,174.968 166.291 C 176.040 166.262,175.117 166.238,172.917 166.239 C 170.717 166.239,169.840 166.262,170.968 166.291 " stroke="none" fill="#141444" fill-rule="evenodd"/><path id="path3" d="M395.238 51.000 C 395.238 53.154,395.262 54.035,395.291 52.958 C 395.320 51.881,395.320 50.119,395.291 49.042 C 395.262 47.965,395.238 48.846,395.238 51.000 M358.809 55.042 C 358.878 55.112,367.143 55.149,377.176 55.126 L 395.417 55.083 377.050 55.000 C 366.948 54.954,358.740 54.973,358.809 55.042 M11.625 55.125 C 16.690 55.149,24.977 55.149,30.042 55.125 C 35.106 55.100,30.962 55.080,20.833 55.080 C 10.704 55.080,6.560 55.100,11.625 55.125 M101.708 55.125 C 108.285 55.149,119.048 55.149,125.625 55.125 C 132.202 55.101,126.821 55.081,113.667 55.081 C 100.513 55.081,95.131 55.101,101.708 55.125 M189.458 55.125 C 194.523 55.149,202.810 55.149,207.875 55.125 C 212.940 55.100,208.796 55.080,198.667 55.080 C 188.537 55.080,184.394 55.100,189.458 55.125 " stroke="none" fill="#2c84bc" fill-rule="evenodd"/><path id="path4" d="" stroke="none" fill="#20505c" fill-rule="evenodd"/></g></svg>
