<?xml version="1.0" encoding="UTF-8"?>
<!DOCTYPE svg PUBLIC "-//W3C//DTD SVG 1.1//EN" "http://www.w3.org/Graphics/SVG/1.1/DTD/svg11.dtd">
<svg xmlns="http://www.w3.org/2000/svg" version="1.1" width="3543px" height="1560px" style="shape-rendering:geometricPrecision; text-rendering:geometricPrecision; image-rendering:optimizeQuality; fill-rule:evenodd; clip-rule:evenodd" xmlns:xlink="http://www.w3.org/1999/xlink">
<g><path style="opacity:0.992" fill="#15143f" d="M 109.5,-0.5 C 196.833,-0.5 284.167,-0.5 371.5,-0.5C 376.175,1.00876 380.841,2.84209 385.5,5C 422.167,26.3333 458.833,47.6667 495.5,69C 339.167,69.5 182.834,69.6667 26.5,69.5C 40.9404,30.4513 68.6071,7.11792 109.5,-0.5 Z"/></g>
<g><path style="opacity:0.998" fill="#15143f" d="M 1781.5,-0.5 C 2354.5,-0.5 2927.5,-0.5 3500.5,-0.5C 3500.5,22.8333 3500.5,46.1667 3500.5,69.5C 2882.83,69.8333 2265.17,69.5 1647.5,68.5C 1683.64,29.0957 1728.31,6.09569 1781.5,-0.5 Z"/></g>
<g><path style="opacity:0.989" fill="#15143f" d="M 20.5,138.5 C 219.5,138.333 418.5,138.5 617.5,139C 698.167,185.667 778.833,232.333 859.5,279C 717.833,279.667 576.167,279.667 434.5,279C 426.603,273.386 417.937,269.386 408.5,267C 392.217,264.321 377.883,268.321 365.5,279C 250.5,279.5 135.5,279.667 20.5,279.5C 20.5,232.5 20.5,185.5 20.5,138.5 Z"/></g>
<g><path style="opacity:0.987" fill="#15143f" d="M 1606.5,138.5 C 2237.83,138.5 2869.17,138.5 3500.5,138.5C 3500.5,162.167 3500.5,185.833 3500.5,209.5C 3005.83,209.333 2511.17,209.5 2016.5,210C 1973.1,215.582 1943.77,238.749 1928.5,279.5C 1817.5,279.5 1706.5,279.5 1595.5,279.5C 1595.33,249.498 1595.5,219.498 1596,189.5C 1597.26,172.017 1600.76,155.017 1606.5,138.5 Z"/></g>
<g><path style="opacity:0.991" fill="#2b7fb8" d="M 20.5,313.5 C 129.5,313.5 238.5,313.5 347.5,313.5C 347.5,371.5 347.5,429.5 347.5,487.5C 238.5,487.5 129.5,487.5 20.5,487.5C 20.5,429.5 20.5,371.5 20.5,313.5 Z"/></g>
<g><path style="opacity:0.988" fill="#2b7fb8" d="M 495.5,314.5 C 636.999,313.334 778.666,313.167 920.5,314C 1020.33,371.414 1120,429.081 1219.5,487C 1077.83,487.667 936.167,487.667 794.5,487C 694.945,429.273 595.279,371.773 495.5,314.5 Z"/></g>
<g><path style="opacity:0.991" fill="#2b7fb8" d="M 1595.5,313.5 C 1704.5,313.5 1813.5,313.5 1922.5,313.5C 1922.5,371.5 1922.5,429.5 1922.5,487.5C 1813.5,487.5 1704.5,487.5 1595.5,487.5C 1595.5,429.5 1595.5,371.5 1595.5,313.5 Z"/></g>
<g><path style="opacity:0.982" fill="#2b7fb8" d="M 2855.5,418.5 C 3070.5,418.5 3285.5,418.5 3500.5,418.5C 3500.5,441.5 3500.5,464.5 3500.5,487.5C 3392.83,487.5 3285.17,487.5 3177.5,487.5C 3175.81,463.309 3163.14,448.476 3139.5,443C 3044.83,442.5 2950.17,442.333 2855.5,442.5C 2855.5,434.5 2855.5,426.5 2855.5,418.5 Z"/></g>
<g><path style="opacity:0.994" fill="#15143f" d="M 20.5,509.5 C 129.5,509.5 238.5,509.5 347.5,509.5C 347.5,656.167 347.5,802.833 347.5,949.5C 238.5,949.5 129.5,949.5 20.5,949.5C 20.5,802.833 20.5,656.167 20.5,509.5 Z"/></g>
<g><path style="opacity:0.995" fill="#15143f" d="M 835.5,510.5 C 976.999,509.334 1118.67,509.167 1260.5,510C 1346.67,560.253 1433,610.253 1519.5,660C 1546.27,671.848 1568.77,666.348 1587,643.5C 1591.25,636.741 1593.92,629.407 1595,621.5C 1595.5,584.168 1595.67,546.835 1595.5,509.5C 1704.5,509.5 1813.5,509.5 1922.5,509.5C 1922.33,554.501 1922.5,599.501 1923,644.5C 1930.81,693.284 1958.64,723.784 2006.5,736C 2012.79,737.023 2019.13,737.689 2025.5,738C 2375.5,738.667 2725.5,738.667 3075.5,738C 3123.66,734.828 3156.16,710.661 3173,665.5C 3174.85,658.935 3176.18,652.269 3177,645.5C 3177.5,600.168 3177.67,554.835 3177.5,509.5C 3285.17,509.5 3392.83,509.5 3500.5,509.5C 3500.67,593.167 3500.5,676.834 3500,760.5C 3490.01,841.366 3448.18,898.866 3374.5,933C 3351.48,942.671 3327.48,948.005 3302.5,949C 3019.67,949.167 2736.83,949.333 2454,949.5C 2171.17,949.333 1888.33,949.167 1605.5,949C 1597.34,948.28 1589.67,945.946 1582.5,942C 1333.47,798.155 1084.47,654.322 835.5,510.5 Z"/></g>
<g><path style="opacity:0.971" fill="#15143f" d="M 1978.5,1129.5 C 2005.83,1129.5 2033.17,1129.5 2060.5,1129.5C 2060.5,1141.17 2060.5,1152.83 2060.5,1164.5C 2036.16,1164.33 2011.83,1164.5 1987.5,1165C 1986.3,1165.9 1985.47,1167.07 1985,1168.5C 1984.5,1173.15 1984.33,1177.82 1984.5,1182.5C 1974.17,1182.5 1963.83,1182.5 1953.5,1182.5C 1953.33,1173.49 1953.5,1164.49 1954,1155.5C 1957.24,1142.09 1965.41,1133.43 1978.5,1129.5 Z"/></g>
<g><path style="opacity:0.965" fill="#15143f" d="M 383.5,1152.5 C 397.167,1152.5 410.833,1152.5 424.5,1152.5C 424.5,1166.5 424.5,1180.5 424.5,1194.5C 410.833,1194.5 397.167,1194.5 383.5,1194.5C 383.5,1180.5 383.5,1166.5 383.5,1152.5 Z"/></g>
<g><path style="opacity:0.974" fill="#15143f" d="M 1188.5,1156.5 C 1198.47,1165.14 1208.14,1174.14 1217.5,1183.5C 1195.35,1210.15 1173.02,1236.65 1150.5,1263C 1198.83,1263.33 1247.17,1263.67 1295.5,1264C 1319.16,1269.66 1334.33,1284.16 1341,1307.5C 1342.57,1323.46 1342.9,1339.46 1342,1355.5C 1337.71,1380.79 1323.21,1396.96 1298.5,1404C 1293.55,1405 1288.55,1405.66 1283.5,1406C 1205.83,1406.67 1128.17,1406.67 1050.5,1406C 1042.01,1406.26 1034.85,1403.43 1029,1397.5C 1027.36,1433.65 1010.53,1459.81 978.5,1476C 959.532,1482.6 940.532,1489.1 921.5,1495.5C 920.353,1495.18 919.519,1494.52 919,1493.5C 915.158,1481.97 911.324,1470.47 907.5,1459C 925.363,1452.6 943.363,1446.6 961.5,1441C 974.525,1435.14 983.025,1425.31 987,1411.5C 988.463,1367.2 988.963,1322.86 988.5,1278.5C 1001.83,1278.5 1015.17,1278.5 1028.5,1278.5C 1028.33,1302.17 1028.5,1325.84 1029,1349.5C 1031.32,1353.82 1034.82,1356.65 1039.5,1358C 1122.47,1359.65 1205.47,1359.98 1288.5,1359C 1295.04,1358.65 1299.54,1355.49 1302,1349.5C 1302.67,1338.5 1302.67,1327.5 1302,1316.5C 1300.17,1312 1297,1308.83 1292.5,1307C 1232.5,1306.67 1172.5,1306.33 1112.5,1306C 1103.03,1297.53 1093.86,1288.7 1085,1279.5C 1084.33,1278.83 1084.33,1278.17 1085,1277.5C 1119.98,1237.51 1154.48,1197.17 1188.5,1156.5 Z"/></g>
<g><path style="opacity:0.974" fill="#15143f" d="M 3370.5,1156.5 C 3380.47,1165.14 3390.14,1174.14 3399.5,1183.5C 3377.35,1210.15 3355.02,1236.65 3332.5,1263C 3380.83,1263.33 3429.17,1263.67 3477.5,1264C 3503.69,1270.52 3519.19,1287.02 3524,1313.5C 3524.67,1327.5 3524.67,1341.5 3524,1355.5C 3519.71,1380.79 3505.21,1396.96 3480.5,1404C 3475.55,1405 3470.55,1405.66 3465.5,1406C 3391.17,1406.67 3316.83,1406.67 3242.5,1406C 3208.93,1403.8 3188.43,1386.3 3181,1353.5C 3180.5,1290.17 3180.33,1226.83 3180.5,1163.5C 3193.83,1163.5 3207.17,1163.5 3220.5,1163.5C 3220.33,1224.83 3220.5,1286.17 3221,1347.5C 3224.03,1354.87 3229.53,1358.7 3237.5,1359C 3315.17,1359.67 3392.83,1359.67 3470.5,1359C 3477.04,1358.65 3481.54,1355.49 3484,1349.5C 3484.67,1338.5 3484.67,1327.5 3484,1316.5C 3482.17,1312 3479,1308.83 3474.5,1307C 3414.5,1306.67 3354.5,1306.33 3294.5,1306C 3284.68,1297.35 3275.35,1288.18 3266.5,1278.5C 3301.56,1238.11 3336.23,1197.44 3370.5,1156.5 Z"/></g>
<g><path style="opacity:0.975" fill="#15143f" d="M 200.5,1163.5 C 213.833,1163.5 227.167,1163.5 240.5,1163.5C 240.333,1224.83 240.5,1286.17 241,1347.5C 243.167,1352.33 246.667,1355.83 251.5,1358C 265.833,1360 280.167,1360 294.5,1358C 299.333,1355.83 302.833,1352.33 305,1347.5C 305.5,1324.5 305.667,1301.5 305.5,1278.5C 318.833,1278.5 332.167,1278.5 345.5,1278.5C 345.333,1301.17 345.5,1323.84 346,1346.5C 349.868,1356.03 357.034,1360.36 367.5,1359.5C 378.368,1360.49 386.201,1356.15 391,1346.5C 395.415,1323.76 400.082,1301.09 405,1278.5C 417.697,1281.42 430.531,1283.76 443.5,1285.5C 440.428,1305.1 436.761,1324.6 432.5,1344C 435.071,1354.97 442.071,1360.14 453.5,1359.5C 463.343,1360.41 470.176,1356.41 474,1347.5C 474.5,1321.5 474.667,1295.5 474.5,1269.5C 487.833,1269.5 501.167,1269.5 514.5,1269.5C 514.333,1294.84 514.5,1320.17 515,1345.5C 517.205,1354.04 522.705,1358.54 531.5,1359C 556.5,1359.67 581.5,1359.67 606.5,1359C 616.216,1358.28 621.716,1353.12 623,1343.5C 623.5,1318.5 623.667,1293.5 623.5,1268.5C 636.833,1268.5 650.167,1268.5 663.5,1268.5C 663.667,1294.5 663.5,1320.5 663,1346.5C 660.176,1374.31 645.676,1393.15 619.5,1403C 612.972,1404.88 606.305,1405.88 599.5,1406C 575.144,1406.88 550.81,1406.55 526.5,1405C 513.567,1402.7 502.9,1396.54 494.5,1386.5C 476.178,1405.47 454.511,1410.63 429.5,1402C 421.836,1398.51 415.503,1393.34 410.5,1386.5C 399.778,1399.44 385.945,1406.11 369,1406.5C 351.903,1405.87 337.736,1399.2 326.5,1386.5C 312.086,1401.91 294.252,1408.58 273,1406.5C 240.422,1408.53 217.422,1394.86 204,1365.5C 202.687,1361.58 201.687,1357.58 201,1353.5C 200.5,1290.17 200.333,1226.83 200.5,1163.5 Z"/></g>
<g><path style="opacity:0.975" fill="#15143f" d="M 701.5,1163.5 C 714.833,1163.5 728.167,1163.5 741.5,1163.5C 741.333,1224.83 741.5,1286.17 742,1347.5C 745.035,1354.87 750.535,1358.7 758.5,1359C 769.544,1359.85 780.544,1359.52 791.5,1358C 796.91,1356.26 800.744,1352.76 803,1347.5C 806.334,1331.5 809.667,1315.5 813,1299.5C 820.275,1279.89 834.108,1267.73 854.5,1263C 870.213,1262.08 885.879,1262.41 901.5,1264C 926.206,1272.38 940.372,1289.55 944,1315.5C 944.667,1332.5 944.667,1349.5 944,1366.5C 940.13,1390.69 925.963,1403.86 901.5,1406C 887.5,1406.67 873.5,1406.67 859.5,1406C 843.472,1406.11 830.972,1399.61 822,1386.5C 816.261,1395.12 808.428,1400.96 798.5,1404C 783.227,1406.86 767.894,1407.2 752.5,1405C 724.579,1398.75 707.746,1381.58 702,1353.5C 701.5,1290.17 701.333,1226.83 701.5,1163.5 Z M 857.5,1307.5 C 870.504,1307.33 883.504,1307.5 896.5,1308C 900.49,1309.99 902.99,1313.16 904,1317.5C 904.5,1331.5 904.667,1345.5 904.5,1359.5C 888.163,1359.67 871.83,1359.5 855.5,1359C 848.462,1358.63 844.796,1354.96 844.5,1348C 846.065,1335.5 848.898,1323.34 853,1311.5C 854.667,1310.27 856.167,1308.93 857.5,1307.5 Z"/></g>
<g><path style="opacity:0.972" fill="#15143f" d="M 2756.5,1163.5 C 2769.83,1163.5 2783.17,1163.5 2796.5,1163.5C 2796.33,1224.83 2796.5,1286.17 2797,1347.5C 2800.03,1354.87 2805.53,1358.7 2813.5,1359C 2839.83,1359.67 2866.17,1359.67 2892.5,1359C 2912.14,1359.34 2929.47,1353.34 2944.5,1341C 2953.17,1331.67 2961.83,1322.33 2970.5,1313C 2947.9,1305.8 2925.24,1298.8 2902.5,1292C 2896.07,1288.81 2891.24,1290.31 2888,1296.5C 2883.53,1308.09 2879.36,1319.75 2875.5,1331.5C 2863.43,1328.65 2851.43,1325.48 2839.5,1322C 2843.19,1309.92 2846.69,1297.75 2850,1285.5C 2859.07,1264.21 2875.23,1253.21 2898.5,1252.5C 2904.65,1252.27 2910.65,1253.11 2916.5,1255C 2962.17,1268.67 3007.83,1282.33 3053.5,1296C 3053.96,1296.41 3054.29,1296.91 3054.5,1297.5C 3050.42,1309.4 3046.76,1321.4 3043.5,1333.5C 3035.41,1331.44 3027.25,1329.77 3019,1328.5C 3015.21,1328.22 3011.71,1329.06 3008.5,1331C 2990.17,1348.67 2971.83,1366.33 2953.5,1384C 2932.96,1398.73 2909.96,1406.07 2884.5,1406C 2862.5,1406.67 2840.5,1406.67 2818.5,1406C 2784.93,1403.8 2764.43,1386.3 2757,1353.5C 2756.5,1290.17 2756.33,1226.83 2756.5,1163.5 Z"/></g>
<g><path style="opacity:0.965" fill="#15143f" d="M 2882.5,1179.5 C 2896.5,1179.5 2910.5,1179.5 2924.5,1179.5C 2924.5,1193.17 2924.5,1206.83 2924.5,1220.5C 2910.5,1220.5 2896.5,1220.5 2882.5,1220.5C 2882.5,1206.83 2882.5,1193.17 2882.5,1179.5 Z"/></g>
<g><path style="opacity:0.97" fill="#15143f" d="M 2001.5,1190.5 C 2014.83,1190.5 2028.17,1190.5 2041.5,1190.5C 2041.5,1262.5 2041.5,1334.5 2041.5,1406.5C 2028.17,1406.5 2014.83,1406.5 2001.5,1406.5C 2001.5,1334.5 2001.5,1262.5 2001.5,1190.5 Z"/></g>
<g><path style="opacity:0.941" fill="#15143f" d="M 621.5,1195.5 C 635.5,1195.5 649.5,1195.5 663.5,1195.5C 663.5,1209.5 663.5,1223.5 663.5,1237.5C 649.5,1237.5 635.5,1237.5 621.5,1237.5C 621.5,1223.5 621.5,1209.5 621.5,1195.5 Z"/></g>
<g><path style="opacity:0.941" fill="#15143f" d="M 2320.5,1195.5 C 2334.5,1195.5 2348.5,1195.5 2362.5,1195.5C 2362.5,1209.5 2362.5,1223.5 2362.5,1237.5C 2348.5,1237.5 2334.5,1237.5 2320.5,1237.5C 2320.5,1223.5 2320.5,1209.5 2320.5,1195.5 Z"/></g>
<g><path style="opacity:0.941" fill="#15143f" d="M 2676.5,1195.5 C 2690.5,1195.5 2704.5,1195.5 2718.5,1195.5C 2718.5,1209.5 2718.5,1223.5 2718.5,1237.5C 2704.5,1237.5 2690.5,1237.5 2676.5,1237.5C 2676.5,1223.5 2676.5,1209.5 2676.5,1195.5 Z"/></g>
<g><path style="opacity:0.966" fill="#15143f" d="M 354.5,1206.5 C 368.167,1206.5 381.833,1206.5 395.5,1206.5C 395.5,1220.5 395.5,1234.5 395.5,1248.5C 381.833,1248.5 368.167,1248.5 354.5,1248.5C 354.5,1234.5 354.5,1220.5 354.5,1206.5 Z"/></g>
<g><path style="opacity:0.965" fill="#15143f" d="M 413.5,1206.5 C 427.167,1206.5 440.833,1206.5 454.5,1206.5C 454.5,1220.5 454.5,1234.5 454.5,1248.5C 440.833,1248.5 427.167,1248.5 413.5,1248.5C 413.5,1234.5 413.5,1220.5 413.5,1206.5 Z"/></g>
<g><path style="opacity:0.977" fill="#15143f" d="M 2530.5,1211.5 C 2543.83,1211.5 2557.17,1211.5 2570.5,1211.5C 2570.33,1255.5 2570.5,1299.5 2571,1343.5C 2574.08,1353.58 2580.92,1358.74 2591.5,1359C 2614.83,1359.67 2638.17,1359.67 2661.5,1359C 2671.22,1358.28 2676.72,1353.12 2678,1343.5C 2678.5,1318.5 2678.67,1293.5 2678.5,1268.5C 2691.83,1268.5 2705.17,1268.5 2718.5,1268.5C 2718.93,1297.2 2718.43,1325.86 2717,1354.5C 2710.17,1381.33 2693.33,1398.17 2666.5,1405C 2637.17,1407 2607.83,1407 2578.5,1405C 2560.64,1400.32 2547.31,1389.82 2538.5,1373.5C 2531.65,1377.21 2524.32,1379.05 2516.5,1379C 2504.5,1379.67 2492.5,1379.67 2480.5,1379C 2459.37,1377.86 2445.2,1367.36 2438,1347.5C 2436.4,1332.22 2436.06,1316.89 2437,1301.5C 2441.28,1278.23 2454.11,1261.73 2475.5,1252C 2493.65,1246.71 2511.99,1242.21 2530.5,1238.5C 2530.5,1229.5 2530.5,1220.5 2530.5,1211.5 Z M 2528.5,1280.5 C 2530.49,1297.47 2531.15,1314.8 2530.5,1332.5C 2512.5,1332.5 2494.5,1332.5 2476.5,1332.5C 2476.33,1324.16 2476.5,1315.83 2477,1307.5C 2479.34,1299.16 2484.51,1293.33 2492.5,1290C 2504.7,1287.12 2516.7,1283.95 2528.5,1280.5 Z"/></g>
<g><path style="opacity:0.972" fill="#15143f" d="M 53.5,1227.5 C 54.552,1227.35 55.552,1227.52 56.5,1228C 84.5,1246.67 112.5,1265.33 140.5,1284C 156.453,1297.75 163.786,1315.25 162.5,1336.5C 163.496,1369.37 149.163,1392.54 119.5,1406C 99.7123,1412.23 80.0456,1411.9 60.5,1405C 38.5014,1394.18 25.3347,1376.68 21,1352.5C 15.7587,1325.57 22.9253,1302.73 42.5,1284C 46.6682,1281.75 50.6682,1279.25 54.5,1276.5C 47.4703,1270.81 40.137,1265.48 32.5,1260.5C 39.261,1249.3 46.261,1238.3 53.5,1227.5 Z M 87.5,1299.5 C 97.162,1304.3 106.495,1309.8 115.5,1316C 121.122,1321.63 123.456,1328.47 122.5,1336.5C 122.143,1357.02 111.643,1366.69 91,1365.5C 76.4183,1366.88 66.4183,1360.88 61,1347.5C 60.0576,1338.4 60.3909,1329.4 62,1320.5C 70.3983,1313.26 78.8983,1306.26 87.5,1299.5 Z"/></g>
<g><path style="opacity:0.972" fill="#15143f" d="M 1611.5,1243.5 C 1612.83,1243.5 1614.17,1243.5 1615.5,1243.5C 1617.28,1258.2 1619.28,1272.86 1621.5,1287.5C 1600.42,1289.76 1579.42,1292.59 1558.5,1296C 1543.06,1303.39 1537.06,1315.56 1540.5,1332.5C 1566.29,1338.2 1591.96,1344.36 1617.5,1351C 1627.54,1356.04 1634.38,1363.87 1638,1374.5C 1644.04,1401.27 1639.04,1425.6 1623,1447.5C 1611.4,1460.72 1596.9,1468.89 1579.5,1472C 1547.17,1473.99 1514.83,1473.99 1482.5,1472C 1448.3,1464.8 1426.8,1444.3 1418,1410.5C 1416.54,1377.54 1416.04,1344.54 1416.5,1311.5C 1429.83,1311.5 1443.17,1311.5 1456.5,1311.5C 1456.33,1339.5 1456.5,1367.5 1457,1395.5C 1462.77,1414.61 1475.61,1424.78 1495.5,1426C 1523.19,1426.93 1550.86,1426.6 1578.5,1425C 1595.32,1418.54 1602.15,1406.37 1599,1388.5C 1566.31,1380.29 1533.48,1372.62 1500.5,1365.5C 1500.13,1346.47 1500.63,1327.47 1502,1308.5C 1508.44,1279.39 1525.94,1260.56 1554.5,1252C 1573.62,1249.07 1592.62,1246.24 1611.5,1243.5 Z"/></g>
<g><path style="opacity:0.975" fill="#15143f" d="M 1853.5,1262.5 C 1867.5,1262.33 1881.5,1262.5 1895.5,1263C 1920.75,1269.25 1936.25,1285.08 1942,1310.5C 1942.67,1343.83 1942.67,1377.17 1942,1410.5C 1936.75,1442.19 1919.59,1464.69 1890.5,1478C 1872.04,1484.65 1853.54,1491.15 1835,1497.5C 1830.53,1484.58 1826.36,1471.58 1822.5,1458.5C 1839.57,1453.31 1856.57,1447.81 1873.5,1442C 1891.86,1435.15 1901.53,1421.98 1902.5,1402.5C 1882.64,1407.19 1862.64,1407.69 1842.5,1404C 1814.96,1393.75 1801.79,1373.92 1803,1344.5C 1805.39,1327.19 1809.06,1310.19 1814,1293.5C 1822.67,1277.27 1835.84,1266.94 1853.5,1262.5 Z M 1856.5,1307.5 C 1869.17,1307.33 1881.84,1307.5 1894.5,1308C 1896.96,1309.46 1899.13,1311.29 1901,1313.5C 1902.47,1328.74 1902.97,1344.07 1902.5,1359.5C 1886.16,1359.67 1869.83,1359.5 1853.5,1359C 1847.41,1358.07 1843.74,1354.57 1842.5,1348.5C 1844.64,1336.31 1847.47,1324.31 1851,1312.5C 1852.73,1310.6 1854.56,1308.93 1856.5,1307.5 Z"/></g>
<g><path style="opacity:0.975" fill="#15143f" d="M 2131.5,1262.5 C 2145.5,1262.33 2159.5,1262.5 2173.5,1263C 2198.75,1269.25 2214.25,1285.08 2220,1310.5C 2220.5,1326.83 2220.67,1343.16 2220.5,1359.5C 2248.84,1359.67 2277.17,1359.5 2305.5,1359C 2315.22,1358.28 2320.72,1353.12 2322,1343.5C 2322.5,1318.5 2322.67,1293.5 2322.5,1268.5C 2335.83,1268.5 2349.17,1268.5 2362.5,1268.5C 2362.93,1297.2 2362.43,1325.86 2361,1354.5C 2354.17,1381.33 2337.33,1398.17 2310.5,1405C 2280.52,1406.4 2250.52,1406.9 2220.5,1406.5C 2217.33,1439.17 2200.99,1462.67 2171.5,1477C 2152.2,1483.93 2132.87,1490.77 2113.5,1497.5C 2108.17,1484.86 2103.84,1471.86 2100.5,1458.5C 2120.94,1452.96 2140.94,1446.13 2160.5,1438C 2173.83,1429.84 2180.16,1418.01 2179.5,1402.5C 2169.23,1405.38 2158.73,1406.71 2148,1406.5C 2108.35,1408.34 2085.85,1389.67 2080.5,1350.5C 2082.62,1331.13 2086.45,1312.13 2092,1293.5C 2100.67,1277.27 2113.84,1266.94 2131.5,1262.5 Z M 2134.5,1307.5 C 2147.17,1307.33 2159.84,1307.5 2172.5,1308C 2174.96,1309.46 2177.13,1311.29 2179,1313.5C 2180.47,1328.74 2180.97,1344.07 2180.5,1359.5C 2164.16,1359.67 2147.83,1359.5 2131.5,1359C 2125.41,1358.07 2121.74,1354.57 2120.5,1348.5C 2122.64,1336.31 2125.47,1324.31 2129,1312.5C 2130.73,1310.6 2132.56,1308.93 2134.5,1307.5 Z"/></g>
<g><path style="opacity:0.97" fill="#15143f" d="M 1725.5,1278.5 C 1738.83,1278.5 1752.17,1278.5 1765.5,1278.5C 1765.67,1319.83 1765.5,1361.17 1765,1402.5C 1761.87,1438.62 1743.7,1463.78 1710.5,1478C 1692.65,1484.17 1674.82,1490.34 1657,1496.5C 1652.82,1483.97 1648.66,1471.47 1644.5,1459C 1664.59,1452.19 1684.59,1445.19 1704.5,1438C 1714.44,1431.73 1720.94,1422.89 1724,1411.5C 1725.46,1367.2 1725.96,1322.86 1725.5,1278.5 Z"/></g>
<g><path style="opacity:0.97" fill="#15143f" d="M 3098.5,1278.5 C 3111.83,1278.5 3125.17,1278.5 3138.5,1278.5C 3138.67,1319.83 3138.5,1361.17 3138,1402.5C 3134.87,1438.62 3116.7,1463.78 3083.5,1478C 3065.65,1484.17 3047.82,1490.34 3030,1496.5C 3025.82,1483.97 3021.66,1471.47 3017.5,1459C 3037.59,1452.19 3057.59,1445.19 3077.5,1438C 3087.44,1431.73 3093.94,1422.89 3097,1411.5C 3098.46,1367.2 3098.96,1322.86 3098.5,1278.5 Z"/></g>
</svg>
