<svg height="511pt" viewBox="0 0 511.99947 511" width="511pt" xmlns="http://www.w3.org/2000/svg"><path d="m470.738281 498.734375c5.996094-14.542969 4.582031-31.824219-4.019531-45.117187-2.929688-4.539063-6.359375-8.441407-10.167969-11.679688l-48.789062-42.558594-36.625 36.625 42.507812 48.835938c.871094 1.03125 1.789063 2.03125 2.761719 3 14.691406 14.6875 36.242188 18.304687 54.332031 10.894531zm0 0" fill="#91552c"/><path d="m371.136719 436.003906 37.28125-37.285156-30.21875-26.347656-.027344.03125-33.355469 33.351562zm0 0" fill="#57555c"/><path d="m228.632812 101.855469-127.277343 127.277343 44.710937 44.707032 7.066406 7.070312 35.171876-35.167968c.058593-.070313.117187-.132813.179687-.191407l56.566406-56.566406c.058594-.0625.121094-.121094.191407-.179687l35.167968-35.171876zm0 0" fill="#feb756"/><g fill="#91552c"><path d="m247.40625 243.207031c3.910156-3.902343 5.859375-9.019531 5.859375-14.140625s-1.949219-10.238281-5.859375-14.148437c-7.761719-7.75-20.28125-7.8125-28.097656-.179688l-31.003906 31.003907c-3.792969 3.867187-5.679688 8.90625-5.679688 13.949218 0 5.117188 1.949219 10.238282 5.859375 14.148438 7.808594 7.808594 20.476563 7.808594 28.289063 0l7.066406-7.070313 120.96875 138.976563.179687-.160156 34.164063-34.164063.027344-.03125-138.84375-121.113281zm0 0"/><path d="m229.992188 452.484375h-117.328126c-22.089843 0-40 17.90625-40 39.996094v10h197.324219v-10c0-22.089844-17.90625-39.996094-39.996093-39.996094zm0 0"/><path d="m249.992188 427.484375c0-13.808594-11.191407-25-25-25h-107.328126c-6.902343 0-13.160156 2.800781-17.679687 7.320313-4.519531 4.519531-7.320313 10.78125-7.320313 17.679687 0 13.808594 11.1875 25 25 25h107.328126c6.898437 0 13.160156-2.800781 17.679687-7.320313 4.519531-4.519531 7.320313-10.78125 7.320313-17.679687zm0 0"/><path d="m231.203125 62.007812c-11.710937 11.710938-11.710937 30.707032 0 42.417969l42.136719 42.140625c11.710937 11.707032 30.707031 11.707032 42.417968-.003906 11.71875-11.71875 11.71875-30.707031 0-42.425781l-42.128906-42.128907c-5.859375-5.859374-13.539062-8.789062-21.21875-8.789062-7.667968 0-15.347656 2.929688-21.207031 8.789062zm0 0"/><path d="m146.066406 316.257812c11.707032-11.710937 11.707032-30.707031 0-42.417968l-42.140625-42.140625c-5.847656-5.847657-13.527343-8.777344-21.207031-8.777344s-15.359375 2.929687-21.210938 8.777344c-11.71875 11.722656-11.71875 30.710937 0 42.429687l42.128907 42.128906c11.71875 11.71875 30.707031 11.71875 42.429687 0zm0 0"/></g><path d="m103.636719 174.84375c-3.910157 3.910156-3.910157 10.238281 0 14.140625 3.898437 3.910156 10.238281 3.910156 14.140625 0 3.90625-3.902344 3.90625-10.230469 0-14.140625-3.902344-3.898438-10.242188-3.898438-14.140625 0zm0 0"/><path d="m253.199219 448.214844c4.410156-5.96875 6.792969-13.167969 6.792969-20.730469 0-19.296875-15.703126-35-35-35h-169.996094c-9.351563 0-18.140625 3.640625-24.746094 10.25-6.609375 6.605469-10.25 15.398437-10.25 24.75 0 7.75 2.535156 14.914063 6.8125 20.71875-15.921875 8.371094-26.8125 25.074219-26.8125 44.277344v10c0 5.523437 4.476562 10 10 10h259.988281c5.523438 0 10-4.476563 10-10v-10c0-19.195313-10.878906-35.886719-26.789062-44.265625zm-208.808594-31.339844c2.832031-2.832031 6.597656-4.390625 10.605469-4.390625h169.996094c8.269531 0 15 6.726563 15 15 0 4.007813-1.5625 7.773437-4.394532 10.605469-2.828125 2.832031-6.597656 4.390625-10.605468 4.390625h-169.996094c-8.269532 0-14.996094-6.726563-14.996094-14.996094 0-4.011719 1.558594-7.777344 4.390625-10.609375zm-24.390625 75.605469c0-16.539063 13.457031-29.996094 30-29.996094h179.992188c16.539062 0 30 13.457031 30 29.996094zm0 0"/><path d="m502.691406 420.621094c-3.394531-5.261719-7.445312-9.914063-12.042968-13.832032l-46.726563-40.753906c-.363281-.546875-.785156-1.066406-1.265625-1.550781-.8125-.808594-1.734375-1.441406-2.710938-1.917969l-28.257812-24.644531-130.789062-114.089844c5.351562-5.597656 8.300781-12.917969 8.300781-20.699219 0-8.019531-3.121094-15.554687-8.792969-21.226562-2.472656-2.46875-5.285156-4.414062-8.292969-5.835938l12.101563-12.101562c3.382812.902344 6.855468 1.359375 10.335937 1.359375 10.238281 0 20.480469-3.898437 28.277344-11.691406 7.558594-7.558594 11.71875-17.605469 11.71875-28.285157 0-10.683593-4.160156-20.730468-11.71875-28.285156l-84.847656-84.847656c-7.554688-7.558594-17.601563-11.71875-28.289063-11.71875-10.679687 0-20.722656 4.160156-28.277344 11.71875-10.445312 10.441406-13.882812 25.273438-10.335937 38.613281l-120.726563 120.726563c-3.335937-.886719-6.808593-1.355469-10.351562-1.355469-10.6875 0-20.730469 4.15625-28.28125 11.707031-15.597656 15.597656-15.597656 40.972656 0 56.570313l84.847656 84.847656c7.796875 7.796875 18.042969 11.695313 28.285156 11.695313 10.242188 0 20.484376-3.898438 28.285157-11.695313 10.441406-10.445313 13.882812-25.273437 10.335937-38.613281l12.074219-12.078125c1.449219 3.03125 3.417969 5.828125 5.867187 8.273437 5.664063 5.664063 13.199219 8.785156 21.214844 8.785156 7.773438 0 15.089844-2.941406 20.695313-8.289062l139.304687 160.054688c.382813.597656.832032 1.167968 1.355469 1.695312.179687.175781.371094.339844.558594.503906l41.511719 47.691406c1.03125 1.21875 2.136718 2.417969 3.28125 3.5625 11.398437 11.394532 26.457031 17.582032 42.269531 17.582032 2.785156 0 5.597656-.191406 8.417969-.582032 18.828124-2.605468 35.101562-13.871093 44.644531-30.90625 10.449219-18.675781 9.671875-42.382812-1.976563-60.386718zm-144.207031-14.390625 47.097656-47.101563 15.109375 13.175782-49.046875 49.046874zm-120.972656-138.988281 29.222656-29.226563 123.742187 107.9375-45.152343 45.152344zm-41.957031-240.882813c3.777343-3.777344 8.800781-5.859375 14.136718-5.859375 5.34375 0 10.371094 2.082031 14.148438 5.859375l84.847656 84.847656c3.78125 3.777344 5.859375 8.800781 5.859375 14.144531 0 5.339844-2.078125 10.363282-5.859375 14.140626-7.792969 7.796874-20.480469 7.796874-28.277344 0l-84.851562-84.851563s0 0-.003906-.003906c-7.796876-7.796875-7.796876-20.480469 0-28.277344zm-56.5625 282.828125c-7.796876 7.796875-20.488282 7.796875-28.285157 0l-84.847656-84.847656c-7.796875-7.796875-7.796875-20.488282 0-28.285156 3.773437-3.773438 8.792969-5.851563 14.140625-5.851563 5.339844 0 10.359375 2.078125 14.132812 5.847656l84.859376 84.859375c7.796874 7.796875 7.796874 20.480469 0 28.277344zm-70.710938-127.273438 113.132812-113.136718 84.851563 84.855468-28.011719 28.015626c-.089844.085937-.179687.167968-.273437.261718l-56.539063 56.539063c-.117187.117187-.230468.238281-.34375.359375l-27.960937 27.960937zm134.347656 87.78125c-2.675781 0-5.1875-1.039062-7.074218-2.925781-1.890626-1.890625-2.933594-4.40625-2.933594-7.082031 0-2.617188 1-5.078125 2.8125-6.9375l56.800781-56.800781c3.894531-3.785157 10.1875-3.738281 14.035156.105469 1.890625 1.890624 2.929688 4.402343 2.929688 7.078124 0 2.671876-1.035157 5.179688-2.929688 7.066407l-7 7.003906c-.050781.046875-.097656.09375-.144531.140625l-42.324219 42.324219c-.019531.019531-.039062.039062-.058593.058593l-7.039063 7.042969c-1.890625 1.886719-4.402344 2.925781-7.074219 2.925781zm284.589844 201.539063c-6.457031 11.523437-17.367188 19.128906-29.9375 20.867187-12.542969 1.738282-24.867188-2.394531-33.808594-11.332031-.765625-.765625-1.503906-1.566406-2.1875-2.378906-.035156-.039063-.066406-.078125-.097656-.113281l-36.378906-41.804688 50.988281-50.988281 41.75 36.414063c.03125.027343.0625.054687.097656.082031 3.125 2.660156 5.898438 5.847656 8.25 9.496093 7.5625 11.683594 8.089844 27.664063 1.324219 39.757813zm0 0"/><path d="m188.484375 104.132812c-3.90625-3.902343-10.234375-3.902343-14.144531 0l-42.425782 42.429688c-3.90625 3.90625-3.90625 10.238281 0 14.140625 1.953126 1.953125 4.511719 2.929687 7.070313 2.929687s5.117187-.976562 7.070313-2.929687l42.429687-42.429687c3.90625-3.902344 3.90625-10.234376 0-14.140626zm0 0"/></svg>