<?xml version="1.0" encoding="iso-8859-1"?>
<!-- Generator: Adobe Illustrator 19.0.0, SVG Export Plug-In . SVG Version: 6.00 Build 0)  -->
<svg version="1.1" id="Layer_1" xmlns="http://www.w3.org/2000/svg" xmlns:xlink="http://www.w3.org/1999/xlink" x="0px" y="0px"
	 viewBox="0 0 512 512" style="enable-background:new 0 0 512 512;" xml:space="preserve">
<g>
	<g>
		<g>
			<path d="M501.333,279.438l-10.667-16v-28.771C490.667,211.135,471.531,192,448,192h-93.479c-5.375,0-8.135-3.542-9.073-5.063
				c-0.948-1.521-2.875-5.573-0.469-10.375l34.25-68.5c3.125-6.24,4.771-13.229,4.771-20.208c0-24.917-20.271-45.188-45.188-45.188
				h-8.146c-2.958,0-5.781,1.229-7.802,3.385L207.958,169.167c-24.042,25.771-37.292,59.375-37.292,94.615v98.885
				c0,58.813,47.854,106.667,106.667,106.667h115.833c17.875,0,34.458-8.875,44.375-23.75l63.792-95.688
				C508.313,339.448,512,327.26,512,314.667S508.313,289.885,501.333,279.438z"/>
			<path d="M106.667,192h-64C19.135,192,0,211.135,0,234.667v192c0,23.531,19.135,42.667,42.667,42.667h64
				c23.531,0,42.667-19.135,42.667-42.667v-192C149.333,211.135,130.198,192,106.667,192z"/>
		</g>
	</g>
</g>
<g>
</g>
<g>
</g>
<g>
</g>
<g>
</g>
<g>
</g>
<g>
</g>
<g>
</g>
<g>
</g>
<g>
</g>
<g>
</g>
<g>
</g>
<g>
</g>
<g>
</g>
<g>
</g>
<g>
</g>
</svg>
