<svg height="512pt" viewBox="0 0 512 512" width="512pt" xmlns="http://www.w3.org/2000/svg"><path d="m288 352h192c11.765625-.035156 21.296875-9.566406 21.332031-21.332031v-74.667969c0-35.347656-28.652343-64-64-64h-85.332031c-35.347656 0-64 28.652344-64 64zm0 0" fill="#d1d8e0"/><path d="m32 352h170.667969c11.765625-.035156 21.296875-9.566406 21.332031-21.332031v-74.667969c0-35.347656-28.652344-64-64-64h-85.332031c-35.347657 0-64 28.652344-64 64v74.667969c0 11.78125 9.550781 21.332031 21.332031 21.332031zm0 0" fill="#d1d8e0"/><path d="m170.667969 74.667969v42.664062c0 23.566407-19.105469 42.667969-42.667969 42.667969h-21.332031c-23.566407 0-42.667969-19.101562-42.667969-42.667969v-42.664062h42.667969l21.332031-21.335938 21.332031 21.335938zm0 0" fill="#fed8bf"/><path d="m448 74.667969v42.664062c0 23.566407-19.101562 42.667969-42.667969 42.667969h-21.332031c-23.5625 0-42.667969-19.101562-42.667969-42.667969v-42.664062h21.335938l21.332031-21.335938 21.332031 21.335938zm0 0" fill="#fed8bf"/><path d="m309.332031 224v42.667969c0 23.5625-19.101562 42.664062-42.664062 42.664062h-21.335938c-23.5625 0-42.664062-19.101562-42.664062-42.664062v-42.667969h21.332031l21.332031-21.332031 21.335938 21.332031zm0 0" fill="#fed8bf"/><path d="m309.332031 202.667969v21.332031h-42.664062l-21.335938-21.332031-21.332031 21.332031h-21.332031v-21.332031c0-23.566407 19.101562-42.667969 42.664062-42.667969h21.335938c23.5625 0 42.664062 19.101562 42.664062 42.667969zm0 0" fill="#778ca3"/><path d="m170.667969 53.332031v21.335938h-21.335938l-21.332031-21.335938-21.332031 21.335938h-42.667969v-21.335938c0-23.5625 19.101562-42.664062 42.667969-42.664062h21.332031c23.5625 0 42.667969 19.101562 42.667969 42.664062zm0 0" fill="#778ca3"/><path d="m448 53.332031v21.335938h-42.667969l-21.332031-21.335938-21.332031 21.335938h-21.335938v-21.335938c0-23.5625 19.105469-42.664062 42.667969-42.664062h21.332031c23.566407 0 42.667969 19.101562 42.667969 42.664062zm0 0" fill="#778ca3"/><path d="m256 448v53.332031h-85.332031c-11.769531-.035156-21.300781-9.566406-21.335938-21.332031v-74.667969c0-35.34375 28.65625-64 64-64zm0 0" fill="#778ca3"/><path d="m256 448 42.667969-106.667969c35.34375 0 64 28.65625 64 64v74.667969c-.035157 11.765625-9.566407 21.296875-21.335938 21.332031h-85.332031zm0 0" fill="#778ca3"/><g fill="#474c54"><path d="m245.332031 320h21.335938c29.4375-.035156 53.296875-23.894531 53.332031-53.332031v-64c-.035156-29.441407-23.894531-53.300781-53.332031-53.335938h-21.335938c-29.4375.035157-53.296875 23.894531-53.332031 53.335938v64c.035156 29.4375 23.894531 53.296875 53.332031 53.332031zm21.335938-21.332031h-21.335938c-17.671875 0-32-14.328125-32-32v-32h10.667969c2.828125 0 5.542969-1.125 7.542969-3.125l13.789062-13.792969 13.792969 13.792969c2 2 4.714844 3.125 7.542969 3.125h32v32c0 17.671875-14.328125 32-32 32zm-21.335938-128h21.335938c17.671875 0 32 14.324219 32 32v10.664062h-27.585938l-18.207031-18.207031c-4.164062-4.164062-10.917969-4.164062-15.082031 0l-18.207031 18.207031h-6.253907v-10.664062c0-17.675781 14.328125-32 32-32zm0 0"/><path d="m298.667969 330.667969c-4.363281-.003907-8.289063 2.648437-9.910157 6.699219l-32.757812 81.917968-32.757812-81.917968c-1.621094-4.050782-5.546876-6.703126-9.910157-6.699219-41.214843.046875-74.617187 33.449219-74.664062 74.664062v74.667969c0 17.671875 14.324219 32 32 32h170.664062c17.675781 0 32-14.328125 32-32v-74.667969c-.046875-41.214843-33.449219-74.617187-74.664062-74.664062zm-138.667969 149.332031v-74.667969c.035156-26.722656 19.808594-49.308593 46.292969-52.875l29.375 73.453125-33-16.503906v-25.40625h-21.335938v32c-.019531 4.0625 2.265625 7.785156 5.898438 9.601562l58.101562 28.992188v36.074219h-74.664062c-5.890625 0-10.667969-4.777344-10.667969-10.667969zm192 0c0 5.890625-4.777344 10.667969-10.667969 10.667969h-74.664062v-36.074219l58.101562-28.992188c3.632813-1.816406 5.917969-5.539062 5.898438-9.601562v-32h-21.335938v25.40625l-33 16.503906 29.375-73.453125c26.484375 3.566407 46.257813 26.152344 46.292969 52.875zm0 0"/><path d="m384 170.667969h21.332031c29.441407-.035157 53.300781-23.894531 53.335938-53.335938v-64c-.035157-29.4375-23.894531-53.2968748-53.335938-53.332031h-21.332031c-29.441406.0351562-53.296875 23.894531-53.332031 53.332031v64c.035156 29.441407 23.890625 53.300781 53.332031 53.335938zm21.332031-21.335938h-21.332031c-17.671875 0-32-14.324219-32-32v-32h10.667969c2.828125 0 5.539062-1.125 7.539062-3.125l13.792969-13.792969 13.792969 13.792969c2 2 4.710937 3.125 7.539062 3.125h32v32c0 17.675781-14.324219 32-32 32zm-21.332031-128h21.332031c17.675781 0 32 14.328125 32 32v10.667969h-27.582031l-18.207031-18.207031c-4.167969-4.164063-10.917969-4.164063-15.085938 0l-18.207031 18.207031h-6.25v-10.667969c0-17.671875 14.328125-32 32-32zm0 0"/><path d="m437.332031 181.332031h-96v21.335938h42.667969v117.332031h21.332031v-117.332031h32c29.441407.035156 53.300781 23.890625 53.335938 53.332031v74.667969c0 5.890625-4.777344 10.664062-10.667969 10.664062h-96v21.335938h96c17.671875 0 32-14.328125 32-32v-74.667969c-.046875-41.21875-33.449219-74.621094-74.667969-74.667969zm0 0"/><path d="m106.667969 170.667969h21.332031c29.441406-.035157 53.296875-23.894531 53.332031-53.335938v-64c-.035156-29.4375-23.890625-53.2968748-53.332031-53.332031h-21.332031c-29.441407.0351562-53.300781 23.894531-53.335938 53.332031v64c.035157 29.441407 23.894531 53.300781 53.335938 53.335938zm21.332031-21.335938h-21.332031c-17.675781 0-32-14.324219-32-32v-32h32c2.828125 0 5.539062-1.125 7.539062-3.125l13.792969-13.792969 13.792969 13.792969c2 2 4.710937 3.125 7.539062 3.125h10.667969v32c0 17.675781-14.328125 32-32 32zm-21.332031-128h21.332031c17.671875 0 32 14.328125 32 32v10.667969h-6.25l-18.207031-18.207031c-4.167969-4.164063-10.917969-4.164063-15.085938 0l-18.207031 18.207031h-27.582031v-10.667969c0-17.671875 14.324219-32 32-32zm0 0"/><path d="m128 320v-117.332031h42.667969v-21.335938h-96c-41.21875.046875-74.621094 33.449219-74.667969 74.667969v74.667969c0 17.671875 14.328125 32 32 32h96v-21.335938h-96c-5.890625 0-10.667969-4.773437-10.667969-10.664062v-74.667969c.035157-29.441406 23.894531-53.296875 53.335938-53.332031h32v117.332031zm0 0"/></g></svg>