<?xml version="1.0" encoding="iso-8859-1"?>
<!-- Generator: Adobe Illustrator 19.0.0, SVG Export Plug-In . SVG Version: 6.00 Build 0)  -->
<svg version="1.1" id="Layer_1" xmlns="http://www.w3.org/2000/svg" xmlns:xlink="http://www.w3.org/1999/xlink" x="0px" y="0px"
	 viewBox="0 0 512 512" style="enable-background:new 0 0 512 512;" xml:space="preserve">
<g>
	<g>
		<path d="M397.061,293.095h-45.976c-4.329,0-7.837,3.508-7.837,7.837c0,4.329,3.508,7.837,7.837,7.837h45.976
			c4.329,0,7.837-3.508,7.837-7.837C404.898,296.603,401.39,293.095,397.061,293.095z"/>
	</g>
</g>
<g>
	<g>
		<path d="M315.559,293.095h-200.62c-4.328,0-7.837,3.508-7.837,7.837c0,4.329,3.509,7.837,7.837,7.837h200.62
			c4.329,0,7.837-3.508,7.837-7.837C323.396,296.603,319.888,293.095,315.559,293.095z"/>
	</g>
</g>
<g>
	<g>
		<path d="M397.061,334.891H114.939c-4.328,0-7.837,3.508-7.837,7.837c0,4.329,3.509,7.837,7.837,7.837h282.122
			c4.329,0,7.837-3.508,7.837-7.837C404.898,338.399,401.39,334.891,397.061,334.891z"/>
	</g>
</g>
<g>
	<g>
		<path d="M397.061,376.687H208.979c-4.328,0-7.837,3.508-7.837,7.837s3.509,7.837,7.837,7.837h188.083
			c4.329,0,7.837-3.508,7.837-7.837S401.39,376.687,397.061,376.687z"/>
	</g>
</g>
<g>
	<g>
		<path d="M172.408,376.687h-57.469c-4.328,0-7.837,3.508-7.837,7.837s3.509,7.837,7.837,7.837h57.469
			c4.328,0,7.837-3.508,7.837-7.837S176.736,376.687,172.408,376.687z"/>
	</g>
</g>
<g>
	<g>
		<path d="M397.061,418.483H114.939c-4.328,0-7.837,3.508-7.837,7.837c0,4.329,3.509,7.837,7.837,7.837h282.122
			c4.329,0,7.837-3.508,7.837-7.837C404.898,421.99,401.39,418.483,397.061,418.483z"/>
	</g>
</g>
<g>
	<g>
		<path d="M463.448,435.2c4.329,0,7.837-3.508,7.837-7.837V139.74c0-7.812-4.171-17.862-9.704-23.376l-10.919-10.886
			c-3.066-3.055-8.028-3.05-11.083,0.018c-3.056,3.066-3.048,8.027,0.018,11.082l4.892,4.877h-92.425
			c-1.416,0-2.612-1.196-2.612-2.612V26.715l65.067,64.863c3.065,3.053,8.027,3.048,11.082-0.018
			c3.056-3.066,3.048-8.027-0.018-11.082L354.546,9.664C349.02,4.156,338.968,0,331.165,0H59.001
			C48.919,0,40.716,8.203,40.716,18.286v475.429c0,10.082,8.203,18.286,18.286,18.286h393.998c10.082,0,18.286-8.203,18.286-18.286
			v-28.733c0-4.329-3.508-7.837-7.837-7.837c-4.329,0-7.837,3.508-7.837,7.837v28.733c0,1.416-1.196,2.612-2.612,2.612H59.001
			c-1.416,0-2.612-1.196-2.612-2.612V18.286c0-1.416,1.196-2.612,2.612-2.612h272.164c0.786,0,1.676,0.116,2.612,0.317v61.856
			H120.163c-7.202,0-13.061,5.859-13.061,13.061v158.826c0,7.202,5.859,13.061,13.061,13.061h271.673
			c7.203,0,13.061-5.859,13.061-13.061v-16.72c0-4.329-3.508-7.837-7.837-7.837s-7.837,3.508-7.837,7.837v14.108H122.776V93.519
			h211.001v25.323c0,10.082,8.203,18.286,18.286,18.286h37.162v59.313c0,4.329,3.508,7.837,7.837,7.837s7.837-3.508,7.837-7.837
			v-59.313h50.386c0.206,0.943,0.328,1.835,0.328,2.612v287.623C455.611,431.692,459.12,435.2,463.448,435.2z"/>
	</g>
</g>
<g>
</g>
<g>
</g>
<g>
</g>
<g>
</g>
<g>
</g>
<g>
</g>
<g>
</g>
<g>
</g>
<g>
</g>
<g>
</g>
<g>
</g>
<g>
</g>
<g>
</g>
<g>
</g>
<g>
</g>
</svg>
