<svg height="512pt" viewBox="0 0 512 512" width="512pt" xmlns="http://www.w3.org/2000/svg"><path d="m138.667969 64v32c0 23.5625-19.105469 42.667969-42.667969 42.667969s-42.667969-19.105469-42.667969-42.667969v-32zm0 0" fill="#fed0b1"/><path d="m138.667969 266.667969h-128v-64c0-23.566407 19.101562-42.667969 42.664062-42.667969h85.335938c23.5625 0 42.664062 19.101562 42.664062 42.667969v64zm0 0" fill="#fc934e"/><path d="m138.667969 32v32h-85.335938v-32c.035157-11.765625 9.566407-21.296875 21.335938-21.332031h42.664062c11.769531.035156 21.300781 9.566406 21.335938 21.332031zm0 0" fill="#768ba0"/><path d="m458.667969 309.332031v21.335938c0 23.5625-19.105469 42.664062-42.667969 42.664062s-42.667969-19.101562-42.667969-42.664062v-21.335938c.035157-11.765625 9.566407-21.296875 21.335938-21.332031 0 0 0 21.332031 64 21.332031zm0 0" fill="#fed0b1"/><path d="m480 400.425781c13.21875 7.582031 21.363281 21.667969 21.332031 36.90625v64h-170.664062v-64c.058593-23.539062 19.125-42.605469 42.664062-42.664062h85.335938c7.492187.007812 14.851562 1.992187 21.332031 5.757812zm0 0" fill="#49aaee"/><path d="m458.667969 330.667969v-21.335938c-64 0-64-21.332031-64-21.332031-11.769531.035156-21.300781 9.566406-21.335938 21.332031v21.335938c0 23.5625 19.105469 42.664062 42.667969 42.664062s42.667969-19.101562 42.667969-42.664062zm21.332031-42.667969v112.425781c-6.480469-3.765625-13.839844-5.75-21.332031-5.757812h-85.335938c-7.492187.007812-14.851562 1.992187-21.332031 5.757812v-112.425781c0-35.347656 28.652344-64 64-64s64 28.652344 64 64zm0 0" fill="#fed049"/><g fill="#474c54"><path d="m192 266.667969v-64c-.035156-29.441407-23.894531-53.300781-53.332031-53.335938h-85.335938c-29.4375.035157-53.2968748 23.894531-53.332031 53.335938v64c0 5.890625 4.777344 10.664062 10.667969 10.664062h170.664062c5.890625 0 10.667969-4.773437 10.667969-10.664062zm-21.332031-10.667969h-21.335938v-32h-21.332031v32h-64v-32h-21.332031v32h-21.335938v-53.332031c0-17.675781 14.328125-32 32-32h85.335938c17.671875 0 32 14.324219 32 32zm0 0"/><path d="m149.332031 96v-64c0-17.671875-14.324219-32-32-32h-42.664062c-17.675781 0-32 14.328125-32 32v64c0 29.457031 23.875 53.332031 53.332031 53.332031s53.332031-23.875 53.332031-53.332031zm-74.664062-74.667969h42.664062c5.890625 0 10.667969 4.777344 10.667969 10.667969v21.332031h-64v-21.332031c0-5.890625 4.777344-10.667969 10.667969-10.667969zm21.332031 106.667969c-17.671875 0-32-14.328125-32-32v-21.332031h64v21.332031c0 17.671875-14.328125 32-32 32zm0 0"/><path d="m490.667969 394.945312v-106.945312c0-41.238281-33.429688-74.667969-74.667969-74.667969s-74.667969 33.429688-74.667969 74.667969v106.945312c-13.378906 9.988282-21.285156 25.6875-21.332031 42.386719v64c0 5.890625 4.777344 10.667969 10.667969 10.667969h170.664062c5.890625 0 10.667969-4.777344 10.667969-10.667969v-64c-.046875-16.699219-7.953125-32.398437-21.332031-42.386719zm-128-106.945312c0-29.457031 23.875-53.332031 53.332031-53.332031s53.332031 23.875 53.332031 53.332031v21.332031c0-5.890625-4.773437-10.664062-10.664062-10.664062-44.738281 0-52.609375-10.667969-53.429688-12.054688-.695312-5.308593-5.21875-9.277343-10.570312-9.28125-17.675781 0-32 14.328125-32 32zm85.332031 31.785156v10.882813c0 17.671875-14.328125 32-32 32s-32-14.328125-32-32v-21.335938c.003906-3.515625 1.738281-6.800781 4.640625-8.789062 6.601563 8.480469 22.347656 17.761719 59.359375 19.242187zm-85.332031 10.882813c0 29.453125 23.875 53.332031 53.332031 53.332031s53.332031-23.878906 53.332031-53.332031v54.398437c-3.507812-.710937-7.082031-1.070312-10.664062-1.066406h-85.335938c-3.582031-.003906-7.15625.355469-10.664062 1.066406zm128 160h-21.335938v-32h-21.332031v32h-64v-32h-21.332031v32h-21.335938v-53.335938c0-17.671875 14.328125-32 32-32h85.335938c17.671875 0 32 14.328125 32 32zm0 0"/><path d="m106.667969 437.332031v-70.25l24.457031 24.460938 15.082031-15.085938-42.664062-42.664062c-1.972657-2.039063-4.6875-3.183594-7.523438-3.167969-2.832031.015625-5.535156 1.183594-7.484375 3.242188l-.066406-.066407-42.667969 42.667969 15.085938 15.082031 24.445312-24.46875v70.25c0 17.675781 14.328125 32 32 32h170.667969v-21.332031h-170.667969c-5.890625 0-10.664062-4.777344-10.664062-10.667969zm0 0"/><path d="m405.332031 74.667969v70.25l-24.457031-24.460938-15.082031 15.085938 42.664062 42.664062c2 2 4.714844 3.125 7.542969 3.125 2.828125.03125 5.539062-1.128906 7.464844-3.199219l.066406.066407 42.667969-42.667969-15.085938-15.082031-24.445312 24.46875v-70.25c0-17.675781-14.328125-32-32-32h-170.667969v21.332031h170.667969c5.890625 0 10.664062 4.777344 10.664062 10.667969zm0 0"/></g></svg>