<svg height="512pt" viewBox="0 0 512 512" width="512pt" xmlns="http://www.w3.org/2000/svg"><path d="m490.667969 490.667969h21.332031v21.332031h-21.332031zm0 0"/><path d="m458.667969 437.332031h-234.667969c-2.828125 0-5.542969-1.125-7.542969-3.125l-42.664062-42.664062c-4.164063-4.167969-4.164063-10.917969 0-15.085938l42.664062-42.664062c2-2 4.714844-3.125 7.542969-3.125h234.667969c5.890625 0 10.664062 4.773437 10.664062 10.664062v85.335938c0 5.890625-4.773437 10.664062-10.664062 10.664062zm-230.253907-21.332031h219.585938v-64h-219.585938l-32 32zm0 0"/><path d="m458.667969 309.332031h-234.667969c-5.890625 0-10.667969-4.773437-10.667969-10.664062v-85.335938c0-5.890625 4.777344-10.664062 10.667969-10.664062h234.667969c2.828125 0 5.539062 1.125 7.539062 3.125l42.667969 42.664062c4.164062 4.167969 4.164062 10.917969 0 15.085938l-42.667969 42.664062c-2 2-4.710937 3.125-7.539062 3.125zm-224-21.332031h219.582031l32-32-32-32h-219.582031zm0 0"/><path d="m298.667969 298.667969h21.332031v42.664062h-21.332031zm0 0"/><path d="m362.667969 298.667969h21.332031v42.664062h-21.332031zm0 0"/><path d="m298.667969 426.667969h21.332031v74.664062h-21.332031zm0 0"/><path d="m362.667969 426.667969h21.332031v74.664062h-21.332031zm0 0"/><path d="m384 213.332031h-21.332031v-21.332031c0-5.890625-4.777344-10.667969-10.667969-10.667969h-21.332031c-5.890625 0-10.667969 4.777344-10.667969 10.667969v21.332031h-21.332031v-21.332031c0-17.671875 14.324219-32 32-32h21.332031c17.671875 0 32 14.328125 32 32zm0 0"/><path d="m256 245.332031h21.332031v21.335938h-21.332031zm0 0"/><path d="m298.667969 245.332031h138.664062v21.335938h-138.664062zm0 0"/><path d="m405.332031 373.332031h21.335938v21.335938h-21.335938zm0 0"/><path d="m245.332031 373.332031h138.667969v21.335938h-138.667969zm0 0"/><path d="m138.667969 362.667969c-2.828125 0-5.542969-1.125-7.542969-3.125l-50.207031-50.210938h-48.917969c-17.671875 0-32-14.324219-32-32v-245.332031c0-17.671875 14.328125-32 32-32h298.667969c17.671875 0 32 14.328125 32 32v106.667969h-21.335938v-106.667969c0-5.890625-4.773437-10.667969-10.664062-10.667969h-298.667969c-5.890625 0-10.667969 4.777344-10.667969 10.667969v245.332031c0 5.890625 4.777344 10.667969 10.667969 10.667969h53.332031c2.828125 0 5.542969 1.125 7.542969 3.125l35.125 35.125v-27.582031c0-5.890625 4.777344-10.667969 10.667969-10.667969h53.332031v21.332031h-42.667969v42.667969c0 5.890625-4.773437 10.667969-10.664062 10.667969zm0 0"/><path d="m174.773438 232.40625c-6.976563-5.441406-68.105469-54.328125-68.105469-93.738281 0-41.238281 33.429687-74.667969 74.664062-74.667969 41.238281 0 74.667969 33.429688 74.667969 74.667969h-21.332031c0-29.457031-23.878907-53.335938-53.335938-53.335938-29.453125 0-53.332031 23.878907-53.332031 53.335938 0 21.90625 36.734375 58.816406 59.902344 76.925781zm0 0"/><path d="m181.332031 170.667969c-17.671875 0-32-14.328125-32-32 0-17.675781 14.328125-32 32-32 17.675781 0 32 14.324219 32 32 0 17.671875-14.324219 32-32 32zm0-42.667969c-5.890625 0-10.664062 4.777344-10.664062 10.667969s4.773437 10.664062 10.664062 10.664062 10.667969-4.773437 10.667969-10.664062-4.777344-10.667969-10.667969-10.667969zm0 0"/><path d="m170.667969 490.667969h298.664062v21.332031h-298.664062zm0 0"/></svg>