<svg height="512pt" viewBox="0 -84 512 512" width="512pt" xmlns="http://www.w3.org/2000/svg"><g fill="#ffdcc0"><path d="m180.054688 191.285156c8.269531 8.320313 8.269531 21.757813 0 30.078125l-15.148438 15.148438c-3.984375 3.992187-9.398438 6.238281-15.039062 6.238281-5.644532 0-11.054688-2.246094-15.039063-6.238281-2.761719-2.664063-4.6875-6.074219-5.546875-9.816407-1.953125-7.292968.164062-15.074218 5.546875-20.371093l15.039063-15.039063c3.980468-4.042968 9.417968-6.320312 15.09375-6.320312 5.671874 0 11.109374 2.277344 15.09375 6.320312zm0 0"/><path d="m210.238281 221.363281c4 4.03125 6.261719 9.46875 6.296875 15.148438-.015625 5.648437-2.28125 11.0625-6.296875 15.039062l-15.144531 15.144531c-8.335938 8.335938-21.851562 8.335938-30.1875 0-8.335938-8.335937-8.335938-21.847656 0-30.183593l15.148438-15.148438c4-4.003906 9.429687-6.257812 15.09375-6.257812 5.660156 0 11.089843 2.253906 15.089843 6.257812zm0 0"/><path d="m240.425781 251.550781c8.25 8.371094 8.25 21.816407 0 30.1875l-7.574219 7.570313-7.570312 7.574218c-8.335938 8.335938-21.851562 8.335938-30.1875 0-8.335938-8.335937-8.335938-21.851562 0-30.1875l15.144531-15.144531c4.003907-4.007812 9.433594-6.257812 15.09375-6.257812 5.664063 0 11.09375 2.25 15.09375 6.257812zm0 0"/><path d="m263.039062 319.496094c-8.335937 8.335937-21.851562 8.335937-30.1875 0-8.335937-8.335938-8.335937-21.851563 0-30.1875l7.574219-7.570313c3.988281-3.996093 9.398438-6.238281 15.039063-6.238281 5.644531 0 11.054687 2.242188 15.042968 6.238281 4.074219 3.976563 6.347657 9.449219 6.292969 15.144531-.007812 4.535157-1.464843 8.945313-4.160156 12.585938-.652344.867188-1.367187 1.6875-2.132813 2.453125zm0 0"/><path d="m235.625 14.75-75.089844 74.988281c-8.335937 8.335938-8.335937 21.851563 0 30.183594 8.335938 8.335937 21.847656 8.335937 30.183594 0l75.949219-42.132813c10.664062 21.335938 40.425781 32 64 32l90.453125 110.613282c.210937 6.507812-2.304688 12.8125-6.933594 17.386718-4.472656 4.507813-10.558594 7.042969-16.90625 7.042969-6.351562 0-12.4375-2.535156-16.90625-7.042969l-1.28125-1.277343c4.003906 4 6.257812 9.429687 6.257812 15.09375 0 5.660156-2.253906 11.089843-6.257812 15.089843-4.03125 4-9.46875 6.261719-15.148438 6.296876-5.648437-.015626-11.0625-2.28125-15.039062-6.296876 4.007812 4.003907 6.257812 9.433594 6.257812 15.09375 0 5.664063-2.25 11.09375-6.257812 15.09375-8.371094 8.25-21.816406 8.25-30.1875 0 8.273438 8.320313 8.273438 21.761719 0 30.082032-3.988281 4.027344-9.421875 6.292968-15.09375 6.292968-5.667969 0-11.101562-2.265624-15.089844-6.292968l-15.894531-17.496094c2.695313-3.640625 4.152344-8.050781 4.160156-12.585938.054688-5.695312-2.21875-11.167968-6.292969-15.144531-3.988281-3.996093-9.398437-6.238281-15.042968-6.238281-5.640625 0-11.050782 2.242188-15.039063 6.238281 8.335938-8.335937 8.335938-21.851562 0-30.1875-8.335937-8.335937-21.851562-8.335937-30.1875 0 4.015625-3.976562 6.28125-9.390625 6.296875-15.039062-.035156-5.679688-2.296875-11.117188-6.296875-15.148438-4-4.003906-9.429687-6.257812-15.089843-6.257812-5.664063 0-11.09375 2.253906-15.09375 6.257812 7.621093-8.441406 7.28125-21.378906-.777344-29.40625-8.058594-8.03125-20.996094-8.324219-29.410156-.671875l-15.039063 15.039063c-5.382813 5.296875-7.5 13.078125-5.546875 20.371093l-1.28125.429688h-74.667969v-170.667969h74.667969l54.078125-37.011719c6.496094-3.71875 13.851563-5.664062 21.335937-5.65625h31.253907zm0 0"/><path d="m235.945312 14.324219c8.320313-8.320313 30.1875 0 30.1875 0l107.199219 42.132812h85.335938v170.667969h-32l-5.546875-6.722656-90.453125-110.613282c-23.574219 0-53.335938-10.664062-64-32l-75.949219 42.132813c-8.335938 8.335937-21.847656 8.335937-30.183594 0-8.335937-8.332031-8.335937-21.847656 0-30.183594l75.089844-74.988281zm0 0"/></g><path d="m501.332031 35.125v213.332031h-42.664062v-213.332031zm0 0" fill="#616881"/><path d="m53.332031 227.125v21.332031h-42.664062v-213.332031h42.664062zm0 0" fill="#616881"/><path d="m501.332031 24.457031h-42.664062c-5.890625 0-10.667969 4.777344-10.667969 10.667969v10.664062h-72.652344l-105.417968-41.4375c-4.160157-1.578124-23.378907-8.183593-36.5-1.226562h-30.015626c-9.628906.027344-19.074218 2.621094-27.359374 7.519531l-51.363282 35.144531h-60.691406v-10.664062c0-5.890625-4.777344-10.667969-10.667969-10.667969h-42.664062c-5.890625 0-10.667969 4.777344-10.667969 10.667969v213.332031c0 5.890625 4.777344 10.667969 10.667969 10.667969h42.664062c5.890625 0 10.667969-4.777344 10.667969-10.667969v-10.667969h58.453125c1.316406 2.300782 2.941406 4.40625 4.832031 6.261719 5.574219 5.558594 13.019532 8.839844 20.886719 9.207031.652344 16.402344 13.824219 29.539063 30.226563 30.144532.335937 9.445312 4.894531 18.242187 12.417968 23.960937 7.523438 5.722657 17.21875 7.765625 26.410156 5.5625 3.695313 13.898438 16.316407 23.546875 30.699219 23.46875 8.523438.007813 16.699219-3.378906 22.71875-9.410156l1.824219-1.84375 8.425781 9.269531c8.902344 8.949219 22.230469 11.828125 34.035157 7.355469 11.800781-4.476563 19.871093-15.46875 20.601562-28.070313 7.902344-.378906 15.382812-3.699218 20.960938-9.3125 5.503906-5.570312 8.785156-12.960937 9.226562-20.777343 7.878906-.472657 15.316406-3.800781 20.914062-9.367188 5.066407-5.054687 8.28125-11.667969 9.132813-18.773437 13.039063.703125 25.316406-6.183594 31.519531-17.675782h20.714844v10.667969c0 5.890625 4.777344 10.667969 10.667969 10.667969h42.664062c5.890625 0 10.667969-4.777344 10.667969-10.667969v-213.332031c0-5.890625-4.777344-10.667969-10.667969-10.667969zm-458.664062 213.332031h-21.335938v-192h21.335938zm96.90625-13.867187c-.960938-3.601563.109375-7.4375 2.792969-10.023437l15.082031-15.082032c1.957031-2.03125 4.648437-3.183594 7.46875-3.203125 4.308593.003907 8.195312 2.597657 9.847656 6.578125 1.652344 3.984375.746094 8.566406-2.296875 11.621094l-15.15625 15.144531c-2.023438 1.996094-4.757812 3.105469-7.597656 3.078125-2.84375-.03125-5.554688-1.191406-7.539063-3.226562-1.328125-1.335938-2.234375-3.035156-2.601562-4.886719zm32.863281 20.171875 15.148438-15.144531c4.128906-4.144531 10.824218-4.183594 15.007812-.097657 2.050781 2.042969 3.222656 4.804688 3.261719 7.703126-.03125 2.8125-1.183594 5.5-3.199219 7.464843l-15.105469 15.105469c-4.167969 4.171875-10.929687 4.175781-15.101562.007812-4.175781-4.167968-4.179688-10.929687-.011719-15.101562zm30.230469 45.292969c-2.019531-2.003907-3.15625-4.730469-3.15625-7.574219s1.136719-5.570312 3.15625-7.574219l15.113281-15.113281c2-2.007812 4.71875-3.136719 7.550781-3.136719 2.835938 0 5.550781 1.128907 7.554688 3.136719 4.078125 4.207031 4.078125 10.894531 0 15.101562l-15.125 15.125c-2 2.007813-4.710938 3.140626-7.542969 3.144532-2.828125.007812-5.546875-1.113282-7.550781-3.109375zm60.222656 15.050781-7.402344 7.519531c-4.171875 4.167969-10.933593 4.167969-15.105469 0-4.167968-4.171875-4.167968-10.933593 0-15.105469l7.585938-7.574218c1.972656-1.988282 4.660156-3.109375 7.464844-3.113282 2.859375.003907 5.59375 1.160157 7.597656 3.199219 1.996094 1.964844 3.105469 4.664063 3.070312 7.46875-.003906 2.226563-.71875 4.398438-2.039062 6.195313-.347656.5-.738281.972656-1.160156 1.410156zm125.011719-74.1875-1.269532-1.28125c-4.183593-4.042969-10.835937-3.984375-14.949218.128906-4.117188 4.117188-4.175782 10.769532-.132813 14.953125 4.140625 4.132813 4.183594 10.824219.097657 15.007813-4.199219 4.167968-10.964844 4.195312-15.199219.066406-4.175781-4.175781-10.941407-4.175781-15.117188 0-4.171875 4.171875-4.171875 10.941406 0 15.113281 2.007813 2 3.136719 4.71875 3.136719 7.550781 0 2.835938-1.128906 5.550782-3.136719 7.554688-4.207031 4.078125-10.894531 4.078125-15.101562 0-2.679688-2.773438-6.644531-3.886719-10.375-2.910156-3.730469.976562-6.640625 3.890625-7.617188 7.617187-.976562 3.730469.136719 7.695313 2.910157 10.375 1.988281 2.011719 3.097656 4.734375 3.078124 7.566407-.015624 2.832031-1.160156 5.539062-3.175781 7.527343-1.964843 2-4.664062 3.109375-7.464843 3.070313-2.660157.058594-5.234376-.945313-7.148438-2.792969l-10.945312-12.054687c1.285156-3.476563 1.957031-7.152344 1.984374-10.859376.164063-17.019531-13.300781-31.054687-30.3125-31.59375-.480468-16.480468-13.636718-29.777343-30.113281-30.433593-.410156-7.90625-3.703125-15.390625-9.257812-21.03125-5.621094-5.589844-13.128907-8.875-21.046875-9.207031-.785156-16.976563-14.78125-30.332032-31.777344-30.324219-8.507812-.023438-16.667969 3.382812-22.632812 9.449219l-15.039063 15.039062c-4.71875 4.820312-7.796875 11.003906-8.789063 17.675781h-54.507812v-149.332031h64c2.152344 0 4.253906-.652344 6.027344-1.867188l53.332031-36.566406c4.875-2.78125 10.386719-4.253906 16-4.265625h7.394531l-57.816406 57.738281c-12.476562 12.515626-12.476562 32.765626 0 45.28125 12.191406 11.722657 31.316406 12.210938 44.085938 1.117188l66.132812-36.660156c16.125 17.449218 38.589844 27.671875 62.335938 28.375l84.46875 103.292968c-.414063 2.5-1.570313 4.8125-3.316407 6.648438-5.210937 5.058594-13.5 5.070312-18.730469.03125zm43.789062-13.792969-92.800781-113.417969c-2.019531-2.46875-5.035156-3.90625-8.222656-3.914062-20.074219 0-45.984375-9.152344-54.453125-26.101562-1.300782-2.605469-3.605469-4.566407-6.386719-5.425782-2.777344-.863281-5.789063-.550781-8.335937.859375l-75.890626 42.144531c-.871093.476563-1.667968 1.078126-2.371093 1.78125-4.207031 4.074219-10.890625 4.074219-15.101563 0-2.003906-2-3.128906-4.714843-3.128906-7.546874 0-2.832032 1.125-5.546876 3.128906-7.546876l75.070313-74.964843c.160156-.144531.304687-.300781.4375-.46875 6.316406-.933594 12.765625-.09375 18.636719 2.421875l107.199218 42.140625c1.230469.472656 2.542969.710937 3.859375.707031h74.667969v149.332031zm58.976563 21.332031h-21.335938v-192h21.335938zm0 0"/></svg>