<?xml version="1.0" encoding="iso-8859-1"?>
<!-- Generator: Adobe Illustrator 21.0.0, SVG Export Plug-In . SVG Version: 6.00 Build 0)  -->
<svg xmlns="http://www.w3.org/2000/svg" xmlns:xlink="http://www.w3.org/1999/xlink" version="1.1" id="Capa_1" x="0px" y="0px" viewBox="0 0 512 512" style="enable-background:new 0 0 512 512;" xml:space="preserve" width="512" height="512">
<g>
	<path style="fill:#C9CDD3;" d="M82.06,101.18v378.47c0,13.724,11.126,24.85,24.85,24.85h268.78c13.724,0,24.85-11.126,24.85-24.85   V101.18c0-13.724-11.126-24.85-24.85-24.85H106.91C93.186,76.33,82.06,87.456,82.06,101.18z"/>
	<path style="fill:#EBEEF2;" d="M55.729,74.849v378.47c0,13.724,11.126,24.85,24.85,24.85h268.78c13.724,0,24.85-11.126,24.85-24.85   V74.849c0-13.724-11.126-24.85-24.85-24.85H80.579C66.854,49.998,55.729,61.124,55.729,74.849z"/>
	<path style="fill:#F6BB93;" d="M426.861,398.607c-7.347,0.348-13.657-4.323-15.797-10.88c-0.249-0.764-1.307-0.752-1.557,0.011   c-2.068,6.321-8.013,10.887-15.025,10.887c-7.015,0-12.963-4.57-15.028-10.896c-0.25-0.766-1.305-0.766-1.555,0   c-2.065,6.326-8.013,10.896-15.028,10.896c-8.729,0-15.806-7.076-15.806-15.806v53.399c0,8.511-6.54,15.834-15.042,16.234   c-9.077,0.427-16.57-6.805-16.57-15.788v-96.652l-20.728,25.824c-5.961,7.104-16.203,7.551-22.76,0.994l0,0   c-6.557-6.557-7.045-17.734-1.084-24.838l44.572-54.241v-27.577h126.446v70.475v23.906v27.817   C441.899,390.668,435.147,398.215,426.861,398.607z"/>
	<rect x="315.454" y="260.175" style="fill:#E49775;" width="126.446" height="24.125"/>
	<path style="fill:#E49775;" d="M420.655,260.175v70.475v23.906v27.817c0,4.594-2.077,8.953-5.333,12   c2.996,2.794,7.073,4.445,11.539,4.234c8.285-0.392,15.038-7.939,15.038-16.234v-27.817V330.65v-70.475H420.655z"/>
	<path style="fill:#3872B7;" d="M451.521,202.698H310.795c-2.623,0-4.75,2.127-4.75,4.75v52.791c0,3.9,3.161,7.061,7.061,7.061   H449.21c3.9,0,7.061-3.161,7.061-7.061v-52.791C456.271,204.824,454.144,202.698,451.521,202.698z"/>
	<path style="fill:#254E87;" d="M451.521,202.698h-24c2.624,0,4.75,2.126,4.75,4.75v52.791c0,3.9-3.161,7.061-7.061,7.061h24   c3.9,0,7.061-3.161,7.061-7.061v-52.791C456.271,204.824,454.144,202.698,451.521,202.698z"/>
	<g>
		<path d="M280.757,170.927c4.143,0,7.5-3.357,7.5-7.5s-3.357-7.5-7.5-7.5H149.181c-4.142,0-7.5,3.357-7.5,7.5s3.358,7.5,7.5,7.5    H280.757z"/>
		<path d="M451.521,195.197H408.04V101.18c0-15.948-11.6-29.237-26.806-31.874C378.597,54.1,365.308,42.5,349.36,42.5H165.186    v-5.667C165.186,16.523,148.663,0,128.353,0S91.521,16.523,91.521,36.833V42.5H80.58c-17.838,0-32.35,14.512-32.35,32.35v73.58    c0,4.143,3.358,7.5,7.5,7.5s7.5-3.357,7.5-7.5V74.85c0-9.566,7.783-17.35,17.35-17.35h69.606v48.217    c0,6.195-5.04,11.235-11.235,11.235c-6.195,0-11.235-5.04-11.235-11.235V76.349c0-4.143-3.358-7.5-7.5-7.5s-7.5,3.357-7.5,7.5    v29.368c0,14.466,11.769,26.235,26.235,26.235c14.466,0,26.235-11.77,26.235-26.235V57.5H349.36c9.566,0,17.35,7.783,17.35,17.35    v120.348h-55.915c-6.755,0-12.25,5.495-12.25,12.25v19.373H110.82c-4.142,0-7.5,3.357-7.5,7.5s3.358,7.5,7.5,7.5h187.725v18.419    c0,6.214,3.913,11.531,9.405,13.618v7.653H110.82c-4.142,0-7.5,3.357-7.5,7.5s3.358,7.5,7.5,7.5h187.725l-32.614,39.69H110.82    c-4.142,0-7.5,3.357-7.5,7.5s3.358,7.5,7.5,7.5h148.513c-0.081,0.846-0.123,1.7-0.123,2.56c0,6.937,2.718,13.634,7.452,18.37    c4.669,4.676,10.78,7.088,17.226,6.821c6.442-0.278,12.333-3.222,16.587-8.289c0.036-0.043,0.071-0.086,0.106-0.129l7.369-9.188    v75.314c0,6.343,2.633,12.492,7.224,16.87c4.378,4.176,10.044,6.438,16.057,6.438c0.38,0,0.76-0.009,1.142-0.027    c12.448-0.586,22.198-11.006,22.198-23.722v-31.618c2.579,0.987,5.378,1.528,8.3,1.528c6.013,0,11.599-2.285,15.803-6.164    c3.865,3.565,8.904,5.786,14.367,6.12v73.565c0,9.566-7.783,17.35-17.35,17.35H106.91c-7.452,0-13.822-4.723-16.274-11.332    h258.723c17.838,0,32.35-14.512,32.35-32.35v-23.892c0-4.143-3.357-7.5-7.5-7.5s-7.5,3.357-7.5,7.5v23.892    c0,9.566-7.783,17.35-17.35,17.35H80.579c-9.567,0-17.35-7.783-17.35-17.35V178.427c0-4.143-3.358-7.5-7.5-7.5s-7.5,3.357-7.5,7.5    v274.892c0,15.948,11.601,29.237,26.807,31.874C77.671,500.399,90.961,512,106.91,512h268.78c17.838,0,32.35-14.512,32.35-32.35    v-77.853c0.794-0.567,1.553-1.184,2.271-1.847c4.484,4.112,10.552,6.447,16.911,6.15c12.229-0.591,22.179-11.236,22.179-23.731    v-36.61c0-4.143-3.357-7.5-7.5-7.5s-7.5,3.357-7.5,7.5v36.61c0,4.379-3.767,8.549-7.887,8.748    c-3.746,0.157-7.154-2.169-8.318-5.695c-1.101-3.42-4.234-5.73-7.827-5.761c-0.023-0.001-0.047-0.001-0.071-0.001    c-3.606,0-6.78,2.297-7.915,5.745c-2.46,7.512-13.307,7.612-15.798,0.01c-1.118-3.447-4.297-5.764-7.908-5.764    c-3.612,0-6.791,2.316-7.902,5.743c-1.124,3.43-4.3,5.734-7.903,5.734c-4.576,0-8.3-3.728-8.3-8.31c0-4.143-3.357-7.5-7.5-7.5    s-7.5,3.357-7.5,7.5v53.399c0,4.613-3.546,8.533-7.905,8.739c-2.301,0.098-4.481-0.702-6.139-2.283    c-1.661-1.585-2.576-3.721-2.576-6.016v-96.65c0-3.184-2.01-6.02-5.013-7.075c-3.003-1.057-6.346-0.101-8.338,2.382l-20.66,25.756    c-1.511,1.772-3.532,2.799-5.698,2.893c-2.196,0.097-4.303-0.771-5.968-2.438c-1.946-1.947-3.063-4.778-3.063-7.768    c0-2.622,0.859-5.091,2.465-7.008l44.57-54.24c1.103-1.342,1.705-3.025,1.705-4.762V274.8H434.4v40.96c0,4.143,3.357,7.5,7.5,7.5    s7.5-3.357,7.5-7.5v-40.961c7.942-0.102,14.371-6.594,14.371-14.559v-52.792C463.771,200.692,458.276,195.197,451.521,195.197z     M106.521,42.5v-5.667c0-12.039,9.794-21.833,21.833-21.833s21.833,9.794,21.833,21.833V42.5H106.521z M381.71,84.907    c6.608,2.452,11.33,8.821,11.33,16.272v94.018h-11.33V84.907z M448.771,210.197V259.8H313.545v-25.222    c0.003-0.086,0.005-0.171,0.005-0.258s-0.002-0.172-0.005-0.258v-23.865C331.173,210.198,427.638,210.199,448.771,210.197z"/>
		<path d="M329.01,242.499h4.051c4.143,0,7.5-3.357,7.5-7.5s-3.357-7.5-7.5-7.5h-4.051c-4.143,0-7.5,3.357-7.5,7.5    S324.868,242.499,329.01,242.499z"/>
	</g>
</g>















</svg>
