<svg height="512pt" viewBox="-48 0 512 512" width="512pt" xmlns="http://www.w3.org/2000/svg"><path d="m48 152h32v24h-32zm0 0" fill="#ff7675"/><path d="m392 64v16h-80v-48c40 0 80 32 80 32zm0 0" fill="#a1aaad"/><path d="m224 40h24v32h-24zm0 0" fill="#a1aaad"/><g fill="#74b9ff"><path d="m264 8h32v24h-32zm0 0"/><path d="m264 80h32v160h-32zm0 0"/><path d="m48 176h32v64h-32zm0 0"/></g><path d="m208 112h24v128h-24zm0 0" fill="#fdcb6e"/><path d="m152 208v-96h56v128h-56zm0 0" fill="#ff7675"/><path d="m64 8 56 56v88h-112v-88zm0 0" fill="#edf1f2"/><path d="m312 32v48h-64v-48zm0 0" fill="#edf1f2"/><path d="m224 40v40h-32v-48h32zm0 0" fill="#edf1f2"/><path d="m352 112 24 56-16 8h-16l-16-8zm0 0" fill="#fab1a0"/><path d="m376 168v72h-48v-72l16 8h16zm0 0" fill="#81ecec"/><path d="m240 288v64h-64v-80h64zm0 0" fill="#fdcb6e"/><path d="m72 480h272v24h-272zm0 0" fill="#6e7a7c"/><path d="m408 240v48h-168v-16h-64v16h-168v-48zm0 0" fill="#d4d7d8"/><path d="m72 480v24h-64v-64h32v32h32zm0 0" fill="#d4d7d8"/><path d="m408 440v64h-64v-32h32v-32zm0 0" fill="#d4d7d8"/><path d="m384 288h24v152h-24zm0 0" fill="#6e7a7c"/><path d="m384 288v152h-8v32h-32v8h-272v-8h-32v-32h-8v-152h144v64h64v-64zm0 0" fill="#a1aaad"/><path d="m8 288h24v152h-24zm0 0" fill="#6e7a7c"/><path d="m408 232h-24v-64c-.019531-1.078125-.257812-2.144531-.703125-3.128906h.054687l-24-56c-1.261718-2.9375-4.152343-4.84375-7.351562-4.84375s-6.089844 1.90625-7.351562 4.84375l-24 56h.054687c-.445313.984375-.683594 2.050781-.703125 3.128906v64h-16v-144h88c4.417969 0 8-3.582031 8-8v-16c0-2.429688-1.101562-4.730469-3-6.246094-1.726562-1.378906-42.679688-33.753906-85-33.753906h-8v-16c0-4.417969-3.582031-8-8-8h-32c-4.417969 0-8 3.582031-8 8v16h-8c-4.417969 0-8 3.582031-8 8h-8c0-4.417969-3.582031-8-8-8h-32c-4.417969 0-8 3.582031-8 8v48c0 4.417969 3.582031 8 8 8h32c4.417969 0 8-3.582031 8-8h8c0 4.417969 3.582031 8 8 8h8v144h-16v-120c0-4.417969-3.582031-8-8-8h-80c-4.417969 0-8 3.582031-8 8v120h-56v-72h32c4.417969 0 8-3.582031 8-8v-88c0-2.121094-.84375-4.15625-2.34375-5.65625l-56-56c-3.125-3.121094-8.1875-3.121094-11.3125 0l-56 56c-1.5 1.5-2.34375 3.535156-2.34375 5.65625v88c0 4.417969 3.582031 8 8 8h32v72h-32c-4.417969 0-8 3.582031-8 8v264c0 4.417969 3.582031 8 8 8h400c4.417969 0 8-3.582031 8-8v-264c0-4.417969-3.582031-8-8-8zm-24-160h-64v-31.496094c23.195312 4.015625 45.121094 13.4375 64 27.496094zm-168 0h-16v-32h16zm16-8v-16h8v16zm104 116.945312 4.425781 2.207032c1.109375.554687 2.332031.847656 3.574219.847656h16c1.242188 0 2.464844-.285156 3.574219-.839844l4.425781-2.214844v51.054688h-32zm16-48.632812 13.679688 31.902344-7.566407 3.785156h-12.226562l-7.558594-3.785156zm-80-116.3125h16v8h-16zm-16 24h48v32h-48zm16 48h16v144h-16zm-48 144h-8v-112h8zm-64-16h24v-16h-24v-16h24v-16h-24v-16h24v-16h-24v-16h40v112h-40zm-144-148.6875 40-40v100.6875h16v-100.6875l40 40v76.6875h-96zm56 92.6875v8h-16v-8zm-16 24h16v48h-16zm272 64h72v32h-152v-8c0-4.417969-3.582031-8-8-8h-64c-4.417969 0-8 3.582031-8 8v8h-152v-32zm-248 240h256v8h-256zm256-16h-256c0-4.417969-3.582031-8-8-8h-24v-24c0-4.417969-3.582031-8-8-8v-136h128v56c0 4.417969 3.582031 8 8 8h64c4.417969 0 8-3.582031 8-8v-56h128v136c-4.417969 0-8 3.582031-8 8v24h-24c-4.417969 0-8 3.582031-8 8zm-320-40v-136h8v136zm168-88v-64h48v64zm208-48h8v136h-8zm-376 152h16v24c0 4.417969 3.582031 8 8 8h24v16h-48zm336 48v-16h24c4.417969 0 8-3.582031 8-8v-24h16v48zm0 0"/><path d="m200 296h16v32h-16zm0 0"/></svg>