<svg id="Capa_1" enable-background="new 0 0 512 512" height="512" viewBox="0 0 512 512" width="512" xmlns="http://www.w3.org/2000/svg"><path d="m497 361h-46v-75c0-8.284-6.716-15-15-15h-165v-60h105c8.284 0 15-6.716 15-15v-181c0-8.284-6.716-15-15-15h-240c-8.284 0-15 6.716-15 15v181c0 8.284 6.716 15 15 15h105v60h-165c-8.284 0-15 6.716-15 15v75h-46c-8.284 0-15 6.716-15 15v121c0 8.284 6.716 15 15 15h121c8.284 0 15-6.716 15-15v-121c0-8.284-6.716-15-15-15h-45v-60h150v60h-45c-8.284 0-15 6.716-15 15v121c0 8.284 6.716 15 15 15h120c8.284 0 15-6.716 15-15v-121c0-8.284-6.716-15-15-15h-45v-60h150v60h-45c-8.284 0-15 6.716-15 15v121c0 8.284 6.716 15 15 15h121c8.284 0 15-6.716 15-15v-121c0-8.284-6.716-15-15-15zm-346-331h210v151h-210zm-30 452h-91v-91h91zm180 0h-90v-91h90zm181 0h-91v-91h91z"/><path d="m196 91h90c8.284 0 15-6.716 15-15s-6.716-15-15-15h-90c-8.284 0-15 6.716-15 15s6.716 15 15 15z"/><path d="m331 136c0-8.284-6.716-15-15-15h-120c-8.284 0-15 6.716-15 15s6.716 15 15 15h120c8.284 0 15-6.716 15-15z"/></svg>